SplineFontDB: 3.0
FontName: TimesNewRomanPSMT
FullName: Ahom Font
FamilyName: Ahom Font
Weight: Book
Copyright: Generated by Fontographer 3.5
Version: MS core font:V1.00
ItalicAngle: 0
UnderlinePosition: -173
UnderlineWidth: 100
Ascent: 1638
Descent: 410
sfntRevision: 0x00010000
LayerCount: 2
Layer: 0 0 "Back"  1
Layer: 1 0 "Fore"  0
XUID: [1021 416 24995 15565]
FSType: 0
OS2Version: 0
OS2_WeightWidthSlopeOnly: 0
OS2_UseTypoMetrics: 1
CreationTime: -1150508617
ModificationTime: 1337841437
PfmFamily: 17
TTFWeight: 400
TTFWidth: 5
LineGap: 87
VLineGap: 0
Panose: 2 2 6 3 5 4 5 2 3 4
OS2TypoAscent: -218
OS2TypoAOffset: 1
OS2TypoDescent: -32
OS2TypoDOffset: 1
OS2TypoLinegap: 307
OS2WinAscent: 0
OS2WinAOffset: 1
OS2WinDescent: 0
OS2WinDOffset: 1
HheadAscent: 0
HheadAOffset: 1
HheadDescent: 153
HheadDOffset: 1
OS2SubXSize: 1434
OS2SubYSize: 1331
OS2SubXOff: 0
OS2SubYOff: 293
OS2SupXSize: 1434
OS2SupYSize: 1331
OS2SupXOff: 0
OS2SupYOff: 928
OS2StrikeYSize: 102
OS2StrikeYPos: 530
OS2FamilyClass: 261
OS2Vendor: 'Mono'
OS2UnicodeRanges: 00000000.00000000.00000000.00000000
MarkAttachClasses: 1
DEI: 91125
TtTable: prep

EndTTInstrs
TtTable: fpgm

EndTTInstrs
ShortTable: cvt  76
  674
  1379
  700
  1096
  1420
  938
  1225
  638
  -63
  1151
  -14
  197
  826
  776
  889
  982
  1257
  736
  1825
  1587
  526
  606
  1044
  1
  -20
  -437
  -401
  835
  -594
  -343
  453
  -144
  -462
  586
  1053
  -494
  804
  682
  551
  869
  714
  426
  -315
  1093
  398
  -120
  -55
  81
  97
  1
  106
  305
  239
  79
  286
  683
  262
  350
  310
  926
  953
  168
  302
  199
  257
  135
  112
  223
  359
  324
  280
  384
  37
  90
  60
  75
EndShort
ShortTable: maxp 16
  1
  0
  147
  152
  7
  93
  3
  2
  8
  64
  10
  0
  120
  299
  2
  3
EndShort
LangName: 1033 "" "" "Regular" "Monotype:Times New Roman Regular:Version 1 (Microsoft)" "" "MS core font:V1.00" 
Encoding: UnicodeBmp
Compacted: 1
UnicodeInterp: none
NameList: Adobe Glyph List
DisplaySize: -48
AntiAlias: 1
FitToEm: 1

StartChar: .notdef
Encoding: 65536 -1 0
Width: 1825
Flags: HW
LayerCount: 2
Fore
SplineSet
114 0 m 1
 114 1825 l 1
 1711 1825 l 1
 1711 0 l 1
 114 0 l 1
1597 114 m 1
 1597 1711 l 1
 228 1711 l 1
 228 114 l 1
 1597 114 l 1
EndSplineSet
EndChar

StartChar: exclam
Encoding: 33 33 4
Width: 682
Flags: HW
LayerCount: 2
Fore
SplineSet
342 1387 m 256
 417.195 1387 454 1319.79 454 1236 c 2
 454 1208 l 1
 423.276 924.391 391.224 642.109 360 359 c 1
 322 359 l 1
 234 1169 l 2
 230 1204.33 228 1230.67 228 1248 c 0
 228 1318.35 274.537 1387 342 1387 c 256
229 83 m 256
 229 143.009 279.699 193 340 193 c 0
 399.453 193 451 142.477 451 83 c 0
 451 27.2021 397.641 -28 340 -28 c 0
 274.275 -28 229 22.04 229 83 c 256
EndSplineSet
EndChar

StartChar: quotedbl
Encoding: 34 34 5
Width: 836
Flags: HW
LayerCount: 2
Fore
SplineSet
600 1387 m 0
 659.182 1387 700 1341.32 700 1280 c 0
 700 1220 693.667 1158.67 681 1096 c 2
 624 803 l 1
 576 803 l 1
 550.62 940.62 524.926 1077.93 500 1216 c 1
 498 1266 l 1
 498 1338.49 530.892 1387 600 1387 c 0
231 1387 m 0
 290.162 1387 333 1340.3 333 1279 c 1
 327 1218 l 1
 318 1158 l 1
 296.309 1039.69 274.669 921.331 253 803 c 1
 210 803 l 1
 155 1099 l 1
 140.333 1195.67 133 1251 133 1265 c 0
 133 1340.05 162.17 1387 231 1387 c 0
EndSplineSet
EndChar

StartChar: numbersign
Encoding: 35 35 6
Width: 763
Flags: HW
LayerCount: 2
Fore
SplineSet
690 544 m 0
 736.943 544 743 416.44 743 349 c 0
 743 253.771 733.373 217.002 701 159 c 0
 681.667 123.667 655.667 91 623 61 c 1
 589.24 33.9919 552.463 13.5774 510 -5 c 1
 485 -12 l 1
 444 -21 l 1
 406 -25 l 1
 383 -26 l 1
 271.782 -26 200.019 12.7255 136.5 71 c 128
 71.6239 130.519 29 204.346 29 320 c 2
 29 901 l 2
 29 1098.38 179.467 1257 378 1257 c 0
 468 1257 549 1223.67 621 1157 c 128
 693 1090.33 729 1007.67 729 909 c 0
 729 871 711.667 852 677 852 c 0
 638.333 852 619 871 619 909 c 0
 619 941 612.667 970 600 996 c 1
 589.299 1025.05 566.93 1053.22 545 1074 c 1
 522.333 1097.34 497 1114.68 469 1126 c 1
 423 1141 l 1
 391 1144 l 1
 378 1144 l 2
 243.662 1144 138 1037.04 138 904 c 2
 142 320 l 2
 142 308 142 308 142 298 c 128
 142 291.333 142.667 284 144 276 c 2
 156 233 l 1
 167.071 198.207 184.028 179.792 210 155 c 1
 256.667 107 314.333 83 383 83 c 0
 468.377 83 556.044 133.457 591 199 c 0
 606.107 226.697 630 299.758 630 351 c 0
 630 361 629 371.667 627 383 c 1
 593 357.667 558.333 332.167 523 306.5 c 128
 487.667 280.833 461.667 268 445 268 c 0
 355.859 268 317 346.593 317 436 c 256
 317 474.521 318.396 501.316 320 535 c 0
 319.333 541 319 551 319 565 c 0
 319 583.792 324.114 661.331 322 678 c 1
 367.599 678 381.809 676.89 399.5 650 c 128
 410.846 632.754 422.1 608 440 608 c 0
 469.599 608 508.883 648.324 522 668 c 0
 526 674 530.667 683.333 536 696 c 0
 552.035 734.306 565.018 754.69 584 780 c 1
 591.333 788 600.333 792 611 792 c 0
 629.01 792 634 780.667 634 758 c 0
 634 744 632 728 628 710 c 1
 613.999 660.998 603.506 623.223 575.5 592 c 128
 552.882 566.786 510.108 532.222 464 523 c 1
 451.333 521.651 439 520.317 427 519 c 1
 424.221 491.206 424 482.047 424 452 c 0
 424 415.804 422.296 375 454 375 c 0
 478 375 511.333 395.667 554 437 c 0
 579 462 579 462 605 488 c 0
 625 507.333 638.667 519.667 646 525 c 0
 662.669 537.667 677.336 544 690 544 c 0
EndSplineSet
EndChar

StartChar: quotesingle
Encoding: 39 39 7
Width: 369
Flags: HW
LayerCount: 2
Fore
SplineSet
81 1265 m 0
 81 1340 109.222 1387 178 1387 c 0
 234.97 1387 282 1339.46 282 1280 c 1
 276 1221 l 1
 267 1160 l 1
 245.833 1040.5 223.631 922.036 202 803 c 1
 158 803 l 1
 104 1099 l 1
 88.6667 1189 81 1244.33 81 1265 c 0
EndSplineSet
EndChar

StartChar: parenleft
Encoding: 40 40 8
Width: 682
Flags: HW
LayerCount: 2
Fore
SplineSet
636 -401 m 1
 636 -438 l 1
 535.333 -388 451.333 -328.667 384 -260 c 0
 215.835 -91.8348 84 174.621 84 491 c 0
 84 693.667 135 880.167 237 1050.5 c 128
 339 1220.83 472 1344.67 636 1422 c 1
 636 1380 l 1
 459.273 1285.17 370.323 1127.02 318.5 896 c 128
 290.833 772.666 277 646.333 277 517 c 0
 277 291.42 307.053 65.9494 373 -93 c 0
 393.667 -141.667 426.667 -195.333 472 -254 c 0
 493.334 -280 517.334 -305 544 -329 c 2
 586 -365 l 1
 636 -401 l 1
EndSplineSet
EndChar

StartChar: parenright
Encoding: 41 41 9
Width: 682
Flags: HW
LayerCount: 2
Fore
SplineSet
46 1380 m 1
 46 1422 l 1
 143.333 1374 227.667 1315 299 1245 c 1
 434.014 1107.07 531.54 927.997 578 702 c 0
 591.003 635.682 598 570.719 598 493 c 0
 598 288.333 547.333 101 446 -69 c 128
 344.667 -239 211.333 -362 46 -438 c 1
 46 -401 l 1
 300.479 -255.884 405 55.1856 405 463 c 0
 405 648.314 385.563 824.425 345 974 c 0
 341 991.333 335.667 1008 329 1024 c 1
 324.333 1040 318 1055.67 310 1071 c 1
 252.898 1199.48 164.884 1296.08 46 1380 c 1
EndSplineSet
EndChar

StartChar: comma
Encoding: 44 44 10
Width: 512
Flags: HW
LayerCount: 2
Fore
SplineSet
239 200 m 0
 338.699 200 408 100.937 408 -10 c 0
 408 -78.6667 385 -141.667 339 -199 c 128
 293 -256.333 216.667 -303.667 110 -341 c 1
 110 -297 l 1
 219.874 -261.452 326 -170.292 326 -40 c 0
 326 -24.1061 317.499 1 303 1 c 0
 284.505 1 247.049 -28 217 -28 c 0
 150.867 -28 110 14.2334 110 81 c 0
 110 144.402 173.373 200 239 200 c 0
EndSplineSet
EndChar

StartChar: period
Encoding: 46 46 11
Width: 512
Flags: HW
LayerCount: 2
Fore
SplineSet
145 83 m 256
 145 142.453 196.549 194 256 194 c 256
 315.987 194 367 143.303 367 83 c 0
 367 27.2021 313.641 -28 256 -28 c 0
 190.276 -28 145 22.04 145 83 c 256
EndSplineSet
EndChar

StartChar: slash
Encoding: 47 47 12
Width: 723
Flags: HW
LayerCount: 2
Fore
SplineSet
562 34 m 1
 556 15 l 1
 548.14 1.90021 526.044 -8 505 -8 c 0
 487.645 -8 463.669 2.24713 455 12 c 1
 444 34 l 1
 444 688 l 1
 452 710 l 1
 503 732 l 1
 524.767 732 546.236 715.716 558 702 c 1
 562 687 l 1
 562 34 l 1
240 730 m 1
 268.398 730 291.404 708.39 301 686 c 1
 301 32 l 1
 293 13 l 1
 284.18 -0.860519 264.188 -10 242 -10 c 0
 224.644 -10 200.669 0.247018 192 10 c 1
 180 31 l 1
 180 686 l 1
 189 706 l 1
 196.523 713.584 227.198 723.599 240 730 c 1
EndSplineSet
EndChar

StartChar: zero
Encoding: 48 48 13
Width: 760
Flags: HW
LayerCount: 2
Fore
SplineSet
724 328 m 0
 724 256.775 704.517 186.163 672 141 c 0
 657.436 122.275 637.584 100.525 624 85 c 1
 557.333 18.3333 476.667 -15 382 -15 c 0
 288.667 -15 208.667 18.3333 142 85 c 1
 82.4971 141.003 41 221.025 41 328 c 0
 41 517.465 191.596 668 382 668 c 0
 487.381 668 562.426 626.57 620 569 c 1
 689.333 505 724 424.667 724 328 c 0
134 328 m 0
 134 193.91 237.026 79 382 79 c 0
 446.667 79 504.667 103.333 556 152 c 1
 606 203.333 631 262 631 328 c 0
 631 390 606.667 447.333 558 500 c 1
 507.333 548.667 448.666 573 382 573 c 0
 247.28 573 134 472.123 134 328 c 0
EndSplineSet
EndChar

StartChar: one
Encoding: 49 49 14
Width: 1151
Flags: HW
LayerCount: 2
Fore
SplineSet
443 514 m 0
 396.988 514 352 561.833 352 609 c 0
 352 651.667 384.667 673 450 673 c 0
 510.667 673 571.667 690 633 724 c 0
 656.333 736.667 691.667 767.667 739 817 c 1
 894 988 l 1
 932 988 l 1
 935 963 l 1
 941 936 l 1
 927.428 897.998 853.811 789.697 831 761 c 0
 787.387 707.574 696.14 623.883 628 575 c 1
 607.333 563.667 573 549.667 525 533 c 1
 483.667 520.333 456.333 514 443 514 c 0
1043 380 m 0
 1043 357.146 998 123.652 998 103 c 0
 998 72.3333 1018 44.6667 1058 20 c 128
 1098 -4.66667 1118 -32 1118 -62 c 0
 1118 -81.6725 1087.19 -151.601 1069 -153 c 1
 1025 -153 982.333 -138 941 -108 c 1
 897.667 -74 876 -31 876 21 c 1
 907 354 l 1
 907 384 890 408 856 426 c 0
 847.333 430 787 447 675 477 c 1
 672 485 l 1
 666 496 l 1
 666 514 684.667 534.333 722 557 c 0
 751.333 574.333 784.667 583 822 583 c 0
 933.151 583 1043 491.863 1043 380 c 0
521 351 m 256
 521 381.405 541.923 404 574 404 c 0
 581.333 404 609 396 657 380 c 128
 705 364 733 352.667 741 346 c 1
 773.369 327.503 793 285.784 793 239 c 0
 793 202.333 771.667 144.5 729 65.5 c 128
 686.333 -13.5 655 -53 635 -53 c 1
 613.906 -49.2775 585 -25.6008 585 -1 c 1
 614.615 44.9545 659 126.816 659 194 c 0
 659 206 648 221.667 626 241 c 1
 533 312 l 1
 525 324 521 337 521 351 c 256
202 378 m 1
 222.295 403.127 320.456 449 364 449 c 0
 379.334 449 401.667 427.333 431 384 c 0
 463 336.667 479 295 479 259 c 0
 479 111.137 373.306 28.8164 245 -9 c 1
 202.333 -19.6667 175 -25 163 -25 c 0
 149 -25 135 -22 121 -16 c 1
 106.333 -8 96 3 90 17 c 1
 88 25 107.667 39.3333 149 60 c 1
 203 85.3333 243.667 108.333 271 129 c 0
 315.667 164.333 338 204.667 338 250 c 0
 338 275.333 313.667 302 265 330 c 1
 235 346 214 362 202 378 c 1
EndSplineSet
EndChar

StartChar: two
Encoding: 50 50 15
Width: 977
Flags: HW
LayerCount: 2
Fore
SplineSet
668 625 m 0
 822.82 625 934 507.293 934 352 c 0
 934 296 906 234 850 166 c 0
 786 88.6667 714.333 50 635 50 c 0
 570.625 50 525 129.67 525 197 c 0
 525 227.2 559.815 259.802 587 263 c 1
 605.667 263 624.667 256.333 644 243 c 1
 701 197 l 1
 746.333 197 784.333 216.333 815 255 c 0
 838.333 284.333 850 310 850 332 c 1
 851 345 l 1
 851 432.677 766.305 514 676 514 c 0
 535.039 514 431.978 391.89 369 295 c 1
 291 171 l 1
 251 74 l 2
 231 25.3333 207 -5 179 -17 c 1
 167.667 -0.333334 158.667 16 152 32 c 1
 145 75 l 1
 163 221 l 1
 168.585 276.849 171 321.708 171 384 c 0
 171 490.667 144.667 544 92 544 c 0
 40.6667 544 15 565 15 607 c 0
 15 634.333 26.3333 657.333 49 676 c 1
 66.3333 692 80.3333 700 91 700 c 0
 170.836 700 243.607 610.912 259 536 c 1
 265 492 l 1
 268 454 l 1
 270 400 l 1
 270 374 l 2
 270 341.02 268.976 333.062 295 330 c 1
 350 406 l 2
 417.345 499.095 533.232 625 668 625 c 0
EndSplineSet
EndChar

StartChar: three
Encoding: 51 51 16
Width: 1059
Flags: HW
LayerCount: 2
Fore
SplineSet
1036 979 m 0
 1036 962.333 1032.33 947 1025 933 c 1
 1007 907 l 1
 993 889 l 1
 976 876 l 1
 946 860 l 1
 919 851 l 1
 894 849 l 1
 877.333 849 862 852.667 848 860 c 2
 826 873 l 1
 801 892 l 1
 782.47 915.471 766 950.274 766 991 c 0
 766 1025 780 1056 808 1084 c 1
 823.069 1093.26 839.141 1101.53 855 1110 c 1
 877 1116.67 894 1120 906 1120 c 0
 920.667 1120 935.667 1116.67 951 1110 c 1
 966.352 1101.02 981.219 1091.55 996 1082 c 1
 1009 1062 l 1
 1026 1032 l 1
 1032.67 1010 1036 992.333 1036 979 c 0
898 1046 m 1
 874.15 1046 852.734 1007.4 842 989 c 1
 842 966.943 857.535 946.465 872 932 c 1
 898 926 l 1
 903.333 926 910.667 928.333 920 933 c 2
 940 943 l 1
 954 963 l 1
 961 986 l 1
 961 997.333 956.333 1008.67 947 1020 c 1
 929 1034 l 1
 898 1046 l 1
1036 979 m 0
 1036 962.333 1032.33 947 1025 933 c 1
 1007 907 l 1
 993 889 l 1
 976 876 l 1
 946 860 l 1
 919 851 l 1
 894 849 l 1
 877.333 849 862 852.667 848 860 c 2
 826 873 l 1
 801 892 l 1
 782.47 915.471 766 950.274 766 991 c 0
 766 1025 780 1056 808 1084 c 1
 823.069 1093.26 839.141 1101.53 855 1110 c 1
 877 1116.67 894 1120 906 1120 c 0
 920.667 1120 935.667 1116.67 951 1110 c 1
 966.352 1101.02 981.219 1091.55 996 1082 c 1
 1009 1062 l 1
 1026 1032 l 1
 1032.67 1010 1036 992.333 1036 979 c 0
898 1046 m 1
 874.15 1046 852.734 1007.4 842 989 c 1
 842 966.943 857.535 946.465 872 932 c 1
 898 926 l 1
 903.333 926 910.667 928.333 920 933 c 2
 940 943 l 1
 954 963 l 1
 961 986 l 1
 961 997.333 956.333 1008.67 947 1020 c 1
 929 1034 l 1
 898 1046 l 1
992 782 m 2
 1029.75 782 1041 757.082 1041 716 c 0
 1041 639.333 1019.67 556 977 466 c 0
 969.667 450.667 962.667 435.667 956 421 c 0
 927.128 365.182 889.895 302.885 850 255 c 1
 783 169 l 2
 761 141 745.667 125 737 121 c 128
 728.333 117 724 110.667 724 102 c 0
 724.667 88 725.333 74 726 60 c 0
 726 18.6667 706.333 -2 667 -2 c 0
 639.664 -2 622.331 20.3333 615 65 c 1
 603 342 l 1
 599.667 361.333 587.667 371 567 371 c 0
 560.333 371 544.333 360.333 519 339 c 0
 454.296 281.704 390.931 223.069 328 164 c 0
 277.333 117.333 246.333 93 235 91 c 1
 189.196 91 188 155.292 188 203 c 2
 189 307 l 1
 190 430 l 2
 190 499.997 154.635 515.874 96 538 c 1
 32 559.333 0 578 0 594 c 0
 0 640.19 46.5839 680 93 680 c 0
 123 680 154 670.333 186 651 c 0
 210.667 637 233.333 619 254 597 c 1
 261.333 586.333 267.333 574.667 272 562 c 2
 280 540 l 1
 301.372 499.037 301 438.909 301 380 c 0
 301 372 301 364 301 356 c 2
 300 321 l 2
 300 306.667 300 292.333 300 278 c 1
 316.667 285.334 346.667 310.667 390 354 c 1
 540 511 l 1
 588.667 557.667 624 581 646 581 c 0
 669.581 581 712.694 549.44 721 519 c 1
 725 495 l 1
 722 373 l 1
 718 273 l 1
 719 246 l 1
 721.667 245.333 723.667 245 725 245 c 0
 766.333 265.667 825 362 901 534 c 0
 911 555.333 921 606.333 931 687 c 0
 938.333 747 948 778 960 780 c 2
 984 782 l 1
 992 782 l 2
EndSplineSet
EndChar

StartChar: four
Encoding: 52 52 17
Width: 1059
Flags: HW
LayerCount: 2
Fore
SplineSet
992 782 m 2
 1029.75 782 1041 757.082 1041 716 c 0
 1041 639.333 1019.67 556 977 466 c 0
 969.667 450.667 962.667 435.667 956 421 c 0
 927.128 365.182 889.895 302.885 850 255 c 1
 783 169 l 2
 761 141 745.667 125 737 121 c 128
 728.333 117 724 110.667 724 102 c 0
 724.667 88 725.333 74 726 60 c 0
 726 18.6667 706.333 -2 667 -2 c 0
 639.664 -2 622.331 20.3333 615 65 c 1
 603 342 l 1
 599.667 361.333 587.667 371 567 371 c 0
 560.333 371 544.333 360.333 519 339 c 0
 454.296 281.704 390.931 223.069 328 164 c 0
 277.333 117.333 246.333 93 235 91 c 1
 189.196 91 188 155.292 188 203 c 2
 189 307 l 1
 190 430 l 2
 190 499.997 154.635 515.874 96 538 c 1
 32 559.333 0 578 0 594 c 0
 0 640.19 46.5839 680 93 680 c 0
 123 680 154 670.333 186 651 c 0
 210.667 637 233.333 619 254 597 c 1
 261.333 586.333 267.333 574.667 272 562 c 2
 280 540 l 1
 301.372 499.037 301 438.909 301 380 c 0
 301 372 301 364 301 356 c 2
 300 321 l 2
 300 306.667 300 292.333 300 278 c 1
 316.667 285.334 346.667 310.667 390 354 c 1
 540 511 l 1
 588.667 557.667 624 581 646 581 c 0
 669.581 581 712.694 549.44 721 519 c 1
 725 495 l 1
 722 373 l 1
 718 273 l 1
 719 246 l 1
 721.667 245.333 723.667 245 725 245 c 0
 766.333 265.667 825 362 901 534 c 0
 911 555.333 921 606.333 931 687 c 0
 938.333 747 948 778 960 780 c 2
 984 782 l 1
 992 782 l 2
EndSplineSet
EndChar

StartChar: five
Encoding: 53 53 18
Width: 760
Flags: HW
LayerCount: 2
Fore
SplineSet
377 324 m 0
 377 237.572 295.19 157 206 157 c 0
 184.667 157 163 161 141 169 c 0
 121.667 177 103.333 190 86 208 c 1
 70 230 l 1
 50 264 l 1
 41.3333 290 37 312 37 330 c 1
 45 376 l 1
 57.4864 468.088 98.8312 524.996 157 582 c 1
 205 618 l 1
 248.224 646.096 309.738 668 380 668 c 0
 423.333 668 466 660.667 508 646 c 1
 564 619 l 1
 582.179 604.179 600.201 589.201 618 574 c 0
 687.333 510 722 428.667 722 330 c 2
 722 -251 l 2
 722 -337 689 -416 623 -488 c 128
 557 -560 476.667 -596 382 -596 c 0
 300.667 -596 219.333 -563 138 -497 c 1
 106.215 -466.888 84.6129 -428.356 62 -382 c 1
 54 -359 l 1
 44 -317 l 1
 39 -287 l 1
 37 -258 l 1
 37 -219.333 52.3333 -200 83 -200 c 0
 113 -200 128 -219.333 128 -258 c 2
 128 -290 l 1
 133 -317 l 1
 135 -330 l 1
 138.677 -336.99 141.699 -344.634 145 -352 c 2
 154 -374 l 1
 168.588 -395.079 185.784 -413.549 202 -433 c 1
 244.29 -475.29 300.717 -503 382 -503 c 0
 511.671 -503 628 -395.618 628 -251 c 2
 628 336 l 2
 628 455.934 515.89 579 380 579 c 0
 297.758 579 245.613 543.959 201 496 c 1
 209 497 l 1
 288.04 497 377 405.225 377 324 c 0
206 246 m 0
 231.708 246 288 286.726 288 324 c 0
 288 340.667 279 359 261 379 c 1
 245 394 l 1
 235 402 223.333 406 210 406 c 0
 183.333 406 158.667 389.667 136 357 c 1
 136 334 l 2
 136 323.333 134.667 314.333 132 307 c 1
 142 286 l 1
 158 265 l 1
 172.667 252.333 188.667 246 206 246 c 0
EndSplineSet
EndChar

StartChar: six
Encoding: 54 54 19
Width: 763
Flags: HW
LayerCount: 2
Fore
SplineSet
685 474 m 1
 679.299 431.99 665.355 416.847 631 383 c 1
 640.686 376.543 650.226 370.521 659 363 c 2
 687 336 l 1
 706.333 314.667 716 285 716 247 c 0
 716 189.667 683 130.333 617 69 c 1
 582.333 41.6667 546 20.3333 508 5 c 1
 483 -2 l 1
 442 -11 l 1
 406 -15 l 1
 383 -16 l 1
 291.667 -16 211.5 15.6667 142.5 79 c 128
 73.5 142.333 39 222.667 39 320 c 2
 39 901 l 2
 39 995 71.6667 1075.67 137 1143 c 1
 200.333 1212.33 280.667 1247 378 1247 c 0
 465.333 1247 544 1214.67 614 1150 c 128
 684 1085.33 719 1005 719 909 c 0
 719 877.667 705 862 677 862 c 0
 645 862 629 877.667 629 909 c 0
 629 986.442 598.087 1034.78 555.5 1078.5 c 128
 530.5 1104.17 503 1123.33 473 1136 c 1
 427 1151 l 1
 391 1154 l 1
 378 1154 l 2
 237.855 1154 128 1043.17 128 904 c 2
 132 320 l 2
 132 307 132 307 132 296.5 c 128
 132 289.5 132.667 282 134 274 c 2
 146 229 l 1
 179.101 144.178 275.617 72.9999 383 73 c 0
 446.334 73 501.667 93.1667 549 133.5 c 128
 596.333 173.833 620 213.667 620 253 c 1
 622 267 l 1
 617.38 276.24 616.99 278.01 609 286 c 2
 594 300 l 1
 580 310 l 1
 499 340 l 1
 464 345 l 1
 425 364 l 1
 378.333 402.667 355 450.667 355 508 c 2
 355 528 l 1
 357 548 l 1
 357 559.166 359.635 571.243 363 578 c 2
 376 598 l 1
 384.981 607.979 386.473 612.855 400 623 c 0
 416.079 634.699 431.756 646.388 449 657 c 1
 515 672 l 1
 540.333 672 561.667 668.667 579 662 c 1
 597.667 658 615.667 646.333 633 627 c 1
 640.333 620.333 647.333 612 654 602 c 2
 672 570 l 1
 684 509 l 1
 685 474 l 1
516 582 m 0
 477.239 582 441 543.518 441 507 c 0
 441 493 449 476 465 456 c 1
 506 431 l 1
 522 429 l 1
 534 429 551 437.667 573 455 c 1
 583.949 468.386 594 483.924 594 507 c 0
 594 538.061 566.694 565.415 544 576 c 1
 538 580 528.667 582 516 582 c 0
EndSplineSet
EndChar

StartChar: seven
Encoding: 55 55 20
Width: 1074
Flags: HW
LayerCount: 2
Fore
SplineSet
410 169 m 0
 410 107.719 461.848 52 522 52 c 0
 555.333 52 594.167 83.8333 638.5 147.5 c 128
 682.833 211.167 705 272.333 705 331 c 1
 706.333 353.667 707 367.667 707 373 c 0
 707 391.603 692.23 421 672 421 c 0
 648.667 421 615.667 403.833 573 369.5 c 128
 530.333 335.167 492.5 297.667 459.5 257 c 128
 426.5 216.333 410 187 410 169 c 0
977 5 m 0
 977 37.6037 995 261.814 995 297 c 0
 995 330.681 974.759 361.718 956.5 387 c 128
 930.452 423.067 876.831 452 814 452 c 0
 797.31 452 783.167 452.917 788 436 c 128
 793.381 417.166 801 394.323 801 367 c 0
 801 261.486 734.304 127.218 678 64 c 0
 645.333 26.6667 619.5 1.83334 600.5 -10.5 c 128
 581.5 -22.8333 557.667 -29 529 -29 c 2
 517 -29 l 1
 511.667 -27.6667 507.667 -27 505 -27 c 0
 393.05 -15.3688 358.143 47.1233 341 161 c 0
 340.333 163.667 340 167.667 340 173 c 0
 340 217.667 373.667 276.167 441 348.5 c 128
 508.333 420.833 574.667 480 640 526 c 1
 590.666 572.667 547.332 596 510 596 c 0
 450.776 596 376.13 567.762 341 542 c 1
 301.846 511.358 137.282 358.654 114 315 c 1
 90.4961 276.806 15.5558 188.556 -17 156 c 1
 -49 267 l 1
 199 519 l 2
 243.419 563.42 293.832 624.09 347.5 656 c 128
 388.338 680.282 434.849 708 500 708 c 0
 552 708 596 696.667 632 674 c 128
 668 651.333 704.333 607.333 741 542 c 1
 897 542 995 516.333 1035 465 c 0
 1088.33 397 1115 332 1115 270 c 0
 1115 228 1112.33 176.5 1107 115.5 c 128
 1101.67 54.5 1099 23.3333 1099 22 c 0
 1099 -36.6667 1109.67 -86.6667 1131 -128 c 128
 1152.33 -169.333 1185.33 -214.667 1230 -264 c 0
 1283.33 -322.667 1310 -357.667 1310 -369 c 0
 1310 -378.333 1297.33 -383 1272 -383 c 0
 1174.18 -383 1060.53 -272.56 1029 -199 c 1
 1002 -132 l 2
 985.333 -92.6667 977 -47 977 5 c 0
EndSplineSet
EndChar

StartChar: eight
Encoding: 56 56 21
Width: 1555
Flags: HW
LayerCount: 2
Fore
SplineSet
816 169 m 0
 816 107.719 867.848 52 928 52 c 0
 961.333 52 1000.17 83.8333 1044.5 147.5 c 128
 1088.83 211.167 1111 272.333 1111 331 c 1
 1112.33 353.667 1113 367.667 1113 373 c 0
 1113 391.603 1098.23 421 1078 421 c 0
 1054.67 421 1021.67 403.833 979 369.5 c 128
 936.333 335.167 898.5 297.667 865.5 257 c 128
 832.5 216.333 816 187 816 169 c 0
335 187 m 0
 335 125.719 386.848 70 447 70 c 0
 480.333 70 519.167 101.833 563.5 165.5 c 128
 607.833 229.167 630 290.333 630 349 c 1
 631.333 371.667 632 385.667 632 391 c 0
 632 409.603 617.23 439 597 439 c 0
 573.667 439 540.667 421.833 498 387.5 c 128
 455.333 353.167 417.5 315.667 384.5 275 c 128
 351.5 234.333 335 205 335 187 c 0
425 726 m 0
 535.453 726 603.528 673.18 634 597 c 1
 687.321 643.533 816.946 708 906 708 c 0
 958 708 1002 696.667 1038 674 c 128
 1074 651.333 1110.33 607.333 1147 542 c 1
 1303 542 1401 516.333 1441 465 c 0
 1494.33 397 1521 332 1521 270 c 0
 1521 228 1518.33 176.5 1513 115.5 c 128
 1507.67 54.5 1505 23.3333 1505 22 c 0
 1505 -36.6667 1515.67 -86.6667 1537 -128 c 128
 1558.33 -169.333 1591.33 -214.667 1636 -264 c 0
 1689.33 -322.667 1716 -357.667 1716 -369 c 0
 1716 -378.333 1703.33 -383 1678 -383 c 0
 1580.18 -383 1466.53 -272.56 1435 -199 c 1
 1408 -132 l 2
 1391.33 -92.6667 1383 -47 1383 5 c 0
 1383 37.6037 1401 261.814 1401 297 c 0
 1401 330.681 1380.76 361.718 1362.5 387 c 128
 1336.45 423.067 1282.83 452 1220 452 c 0
 1203.31 452 1189.17 452.917 1194 436 c 128
 1199.38 417.166 1207 394.323 1207 367 c 0
 1207 261.486 1140.3 127.218 1084 64 c 0
 1051.33 26.6667 1025.5 1.83334 1006.5 -10.5 c 128
 987.5 -22.8333 963.667 -29 935 -29 c 2
 923 -29 l 1
 917.667 -27.6667 913.667 -27 911 -27 c 0
 799.051 -15.3693 764.137 47.1236 747 161 c 0
 746.333 163.667 746 167.667 746 173 c 0
 746 217.667 779.667 276.167 847 348.5 c 128
 914.333 420.833 980.667 480 1046 526 c 1
 998.667 570.667 958.667 593 926 593 c 0
 866.181 593 715.303 546.926 690 516 c 1
 687.521 505.256 726 394.383 726 385 c 0
 726 279.486 659.304 145.218 603 82 c 0
 570.333 44.6667 544.5 19.8333 525.5 7.5 c 128
 506.5 -4.83333 482.667 -11 454 -11 c 2
 442 -11 l 1
 436.667 -9.66667 432.667 -9 430 -9 c 0
 318.05 2.63118 283.143 65.1233 266 179 c 0
 265.333 181.667 265 185.667 265 191 c 0
 265 235.667 298.667 294.167 366 366.5 c 128
 433.334 438.833 499.667 498 565 544 c 1
 515.667 590.667 472.333 614 435 614 c 0
 375.776 614 301.13 585.762 266 560 c 1
 226.846 529.358 62.2822 376.654 39 333 c 1
 15.4962 294.806 -59.4442 206.556 -92 174 c 1
 -124 285 l 1
 124 537 l 2
 168.42 581.42 218.833 642.089 272.5 674 c 128
 313.338 698.282 359.849 726 425 726 c 0
EndSplineSet
EndChar

StartChar: nine
Encoding: 57 57 22
Width: 763
Flags: HW
LayerCount: 2
Fore
SplineSet
628 -253 m 0
 628 -219.943 641.211 -207 675 -207 c 0
 703.667 -207 718 -222.333 718 -253 c 0
 718 -361.199 662.365 -472.006 573 -527 c 1
 509 -563 l 1
 488.127 -569.793 467.274 -576.607 446 -583 c 1
 405 -591 l 1
 376 -593 l 1
 289.333 -593 211.167 -557.833 141.5 -487.5 c 128
 71.8333 -417.167 37 -336.333 37 -245 c 2
 37 336 l 2
 37 420 71.6667 497.667 141 569 c 0
 175 605 212 631 252 647 c 1
 313 666 l 1
 345 670 l 1
 382 672 l 1
 463.333 672 541.667 643 617 585 c 0
 627 577 637.333 564.667 648 548 c 2
 680 498 l 1
 693 467 l 1
 702 420 l 1
 706 374 l 1
 706 351.865 697.536 333.546 687 320 c 1
 679.549 314.039 675.07 309 661 309 c 1
 639.922 327.268 612.318 354 574 354 c 1
 547 351 l 1
 513 341.667 490.667 330 480 316 c 1
 464 269 l 1
 457 234 l 1
 456 214 l 2
 456 201.333 456 188.667 456 176 c 0
 456 172 455.333 165.333 454 156 c 2
 450 131 l 1
 506 107 l 1
 517.235 94.1597 529.655 63.7933 534 42 c 1
 534 30.6667 532 19 528 7 c 1
 507 -23 l 1
 489 -43 466 -53 438 -53 c 0
 409.515 -53 394.024 -39.0186 373 -23 c 1
 365 -13 l 1
 357 3 l 1
 349 37 l 1
 349 61 l 1
 351 91 l 1
 353 99 359 108 369 118 c 1
 370 152 l 1
 371 197 l 1
 374 245 l 1
 381 295 l 2
 385 329 398.333 358.333 421 383 c 0
 435.153 397.153 495.636 427.981 553 431 c 1
 585 428 l 1
 617 423 l 1
 612 422 l 1
 609 432 l 1
 601 450 l 1
 580 485 l 1
 552 515 l 1
 513.641 549.975 449.901 582 382 582 c 0
 316 582 256.333 558.667 203 512 c 1
 172 475 l 1
 163.333 462.333 155.333 448.333 148 433 c 1
 134 385 l 1
 131 361 l 1
 130 336 l 1
 132 -247 l 2
 132 -395.038 234.732 -500 376 -500 c 0
 451.278 -500 502.484 -467.066 547 -427 c 128
 593.105 -385.509 628 -333.092 628 -253 c 0
408 31 m 1
 416.947 21.1579 424.811 12.5051 440 9 c 1
 452.312 9 467.333 21.6671 471 40 c 1
 468 56 l 1
 464 65 l 1
 452 69 l 1
 438 70 l 1
 433 70 l 1
 418.195 63.6552 410.36 60.0572 408 40 c 1
 408 31 l 1
EndSplineSet
EndChar

StartChar: colon
Encoding: 58 58 23
Width: 569
Flags: HW
LayerCount: 2
Fore
SplineSet
178 833 m 0
 178 893.84 228.163 944 289 944 c 0
 348.987 944 400 893.303 400 833 c 0
 400 777.202 346.64 722 289 722 c 0
 219.936 722 178 772.647 178 833 c 0
176 83 m 0
 176 150.723 226.282 195 287 195 c 0
 343.894 195 399 140.816 399 83 c 0
 399 56.3333 388 30 366 4 c 1
 343.333 -17.3333 317 -28 287 -28 c 0
 221.276 -28 176 22.04 176 83 c 0
EndSplineSet
EndChar

StartChar: semicolon
Encoding: 59 59 24
Width: 372
Flags: HW
LayerCount: 2
Fore
SplineSet
288 795 m 1
 285 730 l 1
 280 678 l 2
 276 640 264 609 244 585 c 2
 159 489 l 1
 145 467 l 1
 133.667 452.333 122 445 110 445 c 0
 101.333 445 93.6666 451.667 87 465 c 1
 81 486 l 1
 79 499 l 1
 79 533 103.833 576.333 153.5 629 c 128
 203.167 681.667 228 736.334 228 793 c 1
 225 835 l 1
 289 835 l 1
 288 795 l 1
149 -136 m 1
 141.722 -132.945 133.243 -131.09 123 -131 c 1
 123 -99 l 1
 212 48 l 1
 212 74 195.333 99.3333 162 124 c 2
 60 198 l 1
 81 248 l 1
 97 279.333 109.667 296 119 298 c 1
 149 298 182 276.667 218 234 c 0
 257.333 187.333 277 138.333 277 87 c 0
 277 34.3333 260 -18 226 -70 c 1
 196 -114 170.333 -136 149 -136 c 1
EndSplineSet
EndChar

StartChar: question
Encoding: 63 63 25
Width: 909
Flags: HW
LayerCount: 2
Fore
SplineSet
203 943 m 0
 136.106 943 92 1022.93 92 1100 c 0
 92 1172 124.167 1237.83 188.5 1297.5 c 128
 252.833 1357.17 340.667 1387 452 1387 c 0
 588 1387 689 1347 755 1267 c 0
 803 1209 827 1144 827 1072 c 0
 827 1023.33 816.667 973.667 796 923 c 128
 775.333 872.333 733.667 811.667 671 741 c 0
 575 633 515.667 555.333 493 508 c 0
 485 490 475.667 462 465 424 c 1
 457 375 l 1
 454 320 l 1
 413 320 l 1
 413 366 l 1
 414 392 l 1
 422.379 438.075 428.696 487.189 444 528 c 1
 456.667 575.333 490.667 652 546 758 c 0
 586.669 834.667 612.836 892.667 624.5 932 c 128
 636.167 971.333 642 1012 642 1054 c 0
 642 1206.69 554.455 1331 409 1331 c 0
 316.728 1331 222 1282.12 222 1201 c 0
 222 1164.84 282 1064.13 282 1028 c 0
 282 981.13 248.719 943 203 943 c 0
329 84 m 0
 329 145.666 378.632 196 440 196 c 0
 497.149 196 552 143.008 552 84 c 0
 552 57.3333 541 31 519 5 c 1
 496.333 -16.3333 470 -27 440 -27 c 0
 374.275 -27 329 23.04 329 84 c 0
EndSplineSet
EndChar

StartChar: A
Encoding: 65 65 26
Width: 1138
Flags: HW
LayerCount: 2
Fore
SplineSet
336 94 m 2
 336 34.0099 328.835 -4 276 -4 c 0
 254 -4 236.333 3.66667 223 19 c 1
 213 47 l 1
 211 104 l 1
 212 193 l 1
 214 252 l 2
 214 271.333 214 290.667 214 310 c 1
 212 321 l 1
 212 333 211.333 341.333 210 346 c 2
 206 369 l 2
 205.333 376.333 170.333 411 101 473 c 0
 70.3333 499.667 55 525.333 55 550 c 1
 65 577 l 1
 81 616.333 98.3333 639 117 645 c 1
 128 646 l 1
 154.667 646 189.333 616.667 232 558 c 1
 317 433 l 1
 485 660 l 2
 527.667 717.333 571.5 771.667 616.5 823 c 128
 661.5 874.333 699.333 907.333 730 922 c 0
 769.333 940 802.667 949 830 949 c 0
 871.6 949 903 923.645 903 879 c 0
 903 841.048 859.973 794 825 794 c 1
 779 809 l 1
 744 816 l 1
 734 816 726 815 720 813 c 0
 687.333 803 657.333 779.333 630 742 c 0
 606 710 594 685.667 594 669 c 1
 657 528 l 2
 675.667 486 688 449.333 694 418 c 1
 741.333 496 790.167 558 840.5 604 c 128
 890.833 650 935.333 673 974 673 c 0
 1041.35 673 1091 482.291 1091 406 c 2
 1088 19 l 2
 1088 13.6667 1082.33 9.66667 1071 7 c 1
 1032 3 l 1
 1022 3 1012 3 1002 3 c 1
 991.773 4.46095 967.392 5.60819 964 9 c 0
 956 14.3333 952 57.6667 952 139 c 2
 953 247 l 1
 954 368 l 1
 957 413 l 1
 961 452 l 1
 961 473.119 954.852 495 934 495 c 0
 910 495 884.667 481.333 858 454 c 1
 823 410 l 1
 781 378 753 332 739 272 c 1
 730.333 230 726 180.333 726 123 c 0
 726 111.333 726 99.6667 726 88 c 0
 726 56.6667 724.333 36.3333 721 27 c 1
 715.268 -9.30553 679.012 -17 636 -17 c 0
 607.022 -17 590.637 -12.9116 583 10 c 1
 579.667 28 578 75 578 151 c 2
 578 248 l 2
 578 274.667 576.667 291.667 574 299 c 1
 574 335 l 1
 576 383 l 1
 576 443.519 572.364 503 530 503 c 0
 506 503 468.667 477.333 418 426 c 128
 367.333 374.667 339 332.333 333 299 c 1
 335 220 l 1
 336 152 l 1
 336 94 l 2
EndSplineSet
EndChar

StartChar: B
Encoding: 66 66 27
Width: 1111
Flags: HW
LayerCount: 2
Fore
SplineSet
552 370 m 0
 552 454.233 563.13 637 606 637 c 0
 626 637 641 624.833 651 600.5 c 128
 661 576.167 672 564 684 564 c 1
 783 596 l 2
 796.331 599.636 850.818 612 869 612 c 0
 917 612 969.333 575.333 1026 502 c 0
 1069.33 445.333 1091 380.666 1091 308 c 0
 1091 196.828 982.678 130.772 895 86 c 1
 815 51 l 2
 807.667 47.6666 802 41.3333 798 32 c 1
 792 4 l 1
 792 -8 792.667 -16.6667 794 -22 c 2
 799 -46 l 1
 800 -59 l 1
 800 -75 l 2
 800 -207.552 747.721 -443 648 -443 c 0
 622 -443 591.667 -420.667 557 -376 c 0
 513 -318 484 -239.333 470 -140 c 1
 470 -130.667 469.333 -124.667 468 -122 c 1
 468 -111 l 2
 468 -94.3333 470.333 -75.3333 475 -54 c 1
 482 4 l 1
 482 20.6667 479.667 39.3333 475 60 c 1
 453.515 40.5613 422.104 20 387 20 c 1
 356 23 l 1
 325 30 l 1
 263 42 221 88.3333 199 169 c 0
 196.333 179 191 223.667 183 303 c 1
 183 411.667 144.333 473.333 67 488 c 0
 31 494.001 13 512.334 13 543 c 0
 13 581.876 70.2499 612 113 612 c 0
 149 612 187 597 227 567 c 0
 272.333 531.667 295 489.333 295 440 c 0
 295 415.667 295 391.333 295 367 c 1
 293 344 l 1
 289 276 l 1
 289 210.116 335.552 133 401 133 c 0
 501.143 133 552 257.513 552 370 c 0
791 214 m 0
 872.314 214 960 278.283 960 361 c 0
 960 416.601 925.249 478 875 478 c 0
 767.523 478 714 413.674 714 300 c 0
 714 266.107 758.783 214 791 214 c 0
644 -299 m 0
 696.785 -299 693 -179.42 693 -100 c 0
 693 -45.7772 667.945 57.8494 631 65 c 1
 612.333 67 597.667 53 587 23 c 1
 579 -7 575 -46 575 -94 c 0
 575 -147.333 580.333 -193.333 591 -232 c 0
 599 -262.667 608 -282 618 -290 c 1
 628 -296 636.667 -299 644 -299 c 0
EndSplineSet
EndChar

StartChar: D
Encoding: 68 68 28
Width: 1103
Flags: HW
LayerCount: 2
Fore
SplineSet
405 569 m 0
 417.24 569 422.539 571.181 434 572 c 0
 468.625 572 464.782 571.604 499 564 c 2
 542 554 l 1
 566 595 l 2
 573.333 609 585 616 601 616 c 0
 615.667 616 626.667 612.667 634 606 c 1
 660 567 l 1
 709 583 l 1
 751 594 l 2
 787.668 602.667 816.335 607 837 607 c 0
 887 607 934.667 586.333 980 545 c 0
 1029.33 499.667 1054 442 1054 372 c 1
 1052 346 l 1
 1047 318 l 2
 1032.33 237.333 996.667 176.667 940 136 c 0
 896 105.333 845 90 787 90 c 0
 749.465 90 727.732 94.7072 702 105 c 1
 704.435 85.5211 704.434 82.7512 712 60 c 1
 728 3 l 2
 746 -59 755 -110.333 755 -151 c 0
 755 -264.742 708.113 -417 611 -417 c 0
 555 -417 513.667 -391.333 487 -340 c 0
 478.88 -323.181 438 -177.862 438 -106 c 0
 438 -69.0559 465 42.1762 465 80 c 1
 379 70 l 1
 359 71 l 1
 341 75 l 1
 326 80 l 1
 307 92 l 1
 267 114 238.667 151.667 222 205 c 0
 218.665 218.333 215.332 237 212 261 c 1
 209 333 l 1
 209 426.334 186 488.667 140 520 c 1
 72 542 l 2
 50.6667 549.333 37.3333 555 32 559 c 1
 6.66667 572.333 -6 592 -6 618 c 0
 -6 650.835 38.6388 675 77 675 c 0
 136.333 675 183.833 649.667 219.5 599 c 128
 255.167 548.333 279.333 523 292 523 c 0
 304 523 327.333 532.667 362 552 c 0
 380.667 563.333 395 569 405 569 c 0
795 195 m 0
 892.974 195 964 257.498 964 349 c 0
 964 380.334 951.667 413.667 927 449 c 0
 897 491 862 512 822 512 c 0
 727.611 512 667 442.418 667 341 c 0
 667 275.171 731.364 195 795 195 c 0
299 353 m 0
 299 248.958 308.644 157 393 157 c 0
 417.667 157 447.667 172.667 483 204 c 0
 523.667 239.333 544 276 544 314 c 0
 544 395.164 503.488 477 434 477 c 0
 358.261 477 299 428.359 299 353 c 0
599 53 m 0
 568.03 53 545 15.5579 545 -21 c 2
 545 -109 l 1
 546 -188 l 2
 546 -221.947 553.054 -255.815 571 -271 c 1
 590 -285 l 1
 609 -289 l 1
 615.667 -289 621 -286 625 -280 c 1
 635 -259 l 1
 643 -236 l 1
 647 -182 l 1
 646 -153 l 1
 647 -125 l 1
 647 -68.1127 639.77 53 599 53 c 0
EndSplineSet
EndChar

StartChar: E
Encoding: 69 69 29
Width: 574
Flags: HW
LayerCount: 2
Fore
SplineSet
479 219 m 1
 501.215 212.058 511 203.624 511 176 c 0
 511 125.326 433.9 52.6445 383.5 29 c 128
 356.5 16.3333 332.333 10 311 10 c 1
 290 13 l 2
 272 15 254 23 236 37 c 0
 222.666 46.3333 207.333 61.3333 190 82 c 2
 161 119 l 1
 130.396 163.206 129 247.599 129 327 c 2
 128 453 l 1
 128 559 l 1
 129 651 l 2
 129 675 127.333 690 124 696 c 1
 108 713 l 1
 74 701 l 1
 60.6667 697.667 46.6667 696 32 696 c 2
 7 697 l 1
 -14.0799 699.342 -68.2836 741.788 -81 756 c 0
 -113.039 792.459 -133 827.781 -133 887 c 0
 -133 945 -116 1004.67 -82 1066 c 1
 -42.6667 1134 3.66667 1168 57 1168 c 0
 128.333 1168 178 1137.67 206 1077 c 2
 223 1039 l 2
 230.333 1020.33 234 1003 234 987 c 0
 233.328 857.672 232.661 728.339 232 599 c 0
 232 540.523 234 359.448 234 306 c 0
 234 239.237 232.607 161.862 264.5 135 c 128
 270.834 129.666 289.667 124.666 321 120 c 0
 335 118 357.833 126.667 389.5 146 c 128
 421.167 165.333 451 189.667 479 219 c 1
27 794 m 0
 113.292 794 147 859.408 147 952 c 0
 147 1006.32 109.566 1062 58 1062 c 0
 -0.834263 1062 -45 968.628 -45 915 c 0
 -45 896.333 -39.6667 874 -29 848 c 0
 -15 812 3.66667 794 27 794 c 0
EndSplineSet
EndChar

StartChar: G
Encoding: 71 71 30
Width: 1073
Flags: HW
LayerCount: 2
Fore
SplineSet
819 628 m 0
 955.002 628 1032 513.011 1032 372 c 0
 1032 236.705 948.149 123 815 123 c 0
 754.193 123 699 180.831 699 244 c 0
 699 306.922 725.307 350 789 350 c 0
 827 350 852 331.333 864 294 c 128
 876 256.667 889.667 238 905 238 c 0
 933.889 238 944 306.216 944 343 c 0
 944 381 927.667 415 895 445 c 0
 865.667 471 839.667 484 817 484 c 1
 796 485 l 1
 779 486 l 2
 771.667 486 765 484.333 759 481 c 1
 752.333 479 744 473.333 734 464 c 2
 689 422 l 2
 667.667 401.333 651 383 639 367 c 2
 611 329 l 1
 573 257 l 1
 545 191 l 1
 538.528 171.585 525.658 128.798 519 103 c 1
 559 37 l 2
 585.702 -7.50317 629 -96.883 629 -149 c 0
 629 -179 619.333 -209 600 -239 c 1
 583.333 -269 558.667 -295.667 526 -319 c 0
 512.666 -327.665 492.666 -335.332 466 -342 c 1
 430 -347 l 1
 394 -349 l 1
 365 -348 l 2
 357 -348 351.333 -347.333 348 -346 c 1
 343.333 -346 319.333 -332 276 -304 c 0
 224.667 -270 184 -238.333 154 -209 c 0
 110.667 -167.667 89 -134.333 89 -109 c 0
 89 -84.0353 98.1948 -73.9183 123 -71 c 1
 141.667 -71 176.833 -94.8333 228.5 -142.5 c 128
 280.167 -190.167 327 -214 369 -214 c 0
 438.211 -214 514 -181.527 514 -123 c 0
 514 -56.5133 471.03 0.159944 423 27 c 1
 401.027 14.9726 379.094 2.90616 357 -9 c 1
 329.667 -21 302.333 -27 275 -27 c 0
 180.025 -27 111 47.2645 111 143 c 0
 111 160.333 118.833 194 134.5 244 c 128
 150.167 294 158 323.333 158 332 c 0
 158 362 155.333 387.667 150 409 c 1
 137 448 l 2
 133 462 109.333 473.333 66 482 c 1
 24.6667 488 4 505.667 4 535 c 0
 4 564.289 1.20101 599 24 599 c 0
 124.174 599 220.251 566.402 252 507 c 1
 260.667 488.333 268 468 274 446 c 1
 278 406 l 1
 279 374 l 1
 279 331.141 250.456 245.824 239 200 c 128
 235 184 233 172 233 164 c 0
 233 131.714 253.851 97 288 97 c 0
 334 97 369.667 109.333 395 134 c 1
 433 193 l 1
 496 314 l 1
 542 396 589.333 464.333 638 519 c 0
 671.333 555.667 702.833 583 732.5 601 c 128
 762.167 619 791 628 819 628 c 0
EndSplineSet
EndChar

StartChar: I
Encoding: 73 73 31
Width: 245
Flags: HW
LayerCount: 2
Fore
SplineSet
276 906 m 0
 276 878 273 854 267 834 c 1
 250 796 l 1
 220.667 734 190.667 683 160 643 c 128
 129.333 603 103.333 583 82 583 c 0
 58 583 25.3333 610 -16 664 c 1
 -72 747 l 2
 -80.6667 761 -93 786 -109 822 c 0
 -118.549 845.873 -131 870.088 -131 895 c 2
 -131 957 l 2
 -131 1024.77 -98.4042 1101.82 -72 1141 c 1
 -45.2673 1193.35 5.35289 1236 77 1236 c 0
 103.667 1236 128.667 1227.67 152 1211 c 0
 172 1197.67 193.667 1174.33 217 1141 c 0
 235 1113.67 249.333 1081 260 1043 c 1
 270 977 l 2
 274 951 276 927.333 276 906 c 0
186 936 m 1
 179 983 l 2
 173 1017 164.667 1044.67 154 1066 c 1
 136 1090 l 1
 117 1109 l 1
 91 1120 l 1
 77 1121 l 2
 68.3333 1121 63 1120.33 61 1119 c 2
 39 1111 l 1
 24.3378 1100.74 8.60613 1082.91 -2 1067 c 1
 -19 1033 l 2
 -24.9341 1022.32 -28.8295 1009.51 -33 997 c 1
 -46 936 l 1
 186 936 l 1
-39 883 m 1
 -37 871 -33.3333 860.333 -28 851 c 0
 -8.61674 818.05 11.2793 785.613 31 753 c 1
 51 723.667 68 709 82 709 c 0
 111.958 709 144.684 782.719 162 819 c 1
 175 850 l 1
 182 882 l 1
 -39 883 l 1
EndSplineSet
EndChar

StartChar: J
Encoding: 74 74 32
Width: 1271
Flags: HW
LayerCount: 2
Fore
SplineSet
978 525 m 0
 978 564.187 1025.82 641 1066 641 c 0
 1107.34 641 1147.67 616.333 1187 567 c 0
 1224.33 520.333 1243 477.667 1243 439 c 0
 1243 321.437 1197.26 170.307 1152 103 c 0
 1129.33 69 1105 42.3333 1079 23 c 1
 1053.67 5.66667 1026 -3 996 -3 c 0
 967.333 -3 932 7.33333 890 28 c 2
 826 61 l 1
 848.221 33.2239 871 -37.831 871 -94 c 0
 871 -200.628 858.71 -235.402 822 -318 c 0
 788 -396.667 748.667 -436 704 -436 c 0
 639.085 -436 606.288 -412.916 586 -366 c 0
 578 -345.333 566.333 -283 551 -179 c 1
 551 -160 551 -160 551 -143 c 128
 551 -131.667 551.667 -122 553 -114 c 1
 553 -95.4943 581 15.8588 581 19 c 0
 581 25 576.333 30.3333 567 35 c 1
 559 37.6667 528 33 474 21 c 2
 393 2 l 1
 313.672 2 227 70.5303 227 146 c 0
 227 192.7 235.326 242.535 241.5 288.5 c 128
 244.5 310.834 250 346.667 258 396 c 1
 258 456 226 486 162 486 c 0
 98.6666 486 67 507.333 67 550 c 0
 67 601.707 144.878 638 192 638 c 0
 293.572 638 375 591.616 375 481 c 1
 373 425 l 1
 371 379 l 1
 371 353.858 369.965 328.147 366 307 c 1
 362 237 l 1
 365 173 l 1
 367 153 370.667 139 376 131 c 1
 380 123 389.667 118 405 116 c 1
 460 113 l 1
 490 113 527.667 139.667 573 193 c 0
 596.387 221.584 610.126 240.608 629 274 c 1
 641.667 300.667 648 325.333 648 348 c 1
 661 506 l 1
 670.333 579.333 688.667 616 716 616 c 0
 771.893 616 779 502.554 779 428 c 2
 779 402 l 2
 779 370.667 777.667 344.333 775 323 c 1
 775 299.667 799 261 847 207 c 1
 899.667 150.333 944.667 122 982 122 c 0
 1004.67 122 1031.33 142.333 1062 183 c 1
 1096 231 1113 284.667 1113 344 c 0
 1113 386 1090.5 421.5 1045.5 450.5 c 128
 1000.5 479.5 978 504.333 978 525 c 0
649 -194 m 2
 649 -235.821 667.026 -271 688 -271 c 0
 723.668 -271 762.924 -219.876 772.5 -187.5 c 128
 779.5 -163.833 783 -128.667 783 -82 c 1
 780 -20 l 1
 774.139 50.3261 740.887 112.457 693 129 c 1
 664 69 l 1
 657 7 l 1
 651 -58 l 1
 650.374 -96.3743 649.715 -134.715 649 -173 c 2
 649 -194 l 2
EndSplineSet
EndChar

StartChar: K
Encoding: 75 75 33
Width: 554
Flags: HW
LayerCount: 2
Fore
SplineSet
141 385 m 1
 89.4144 385 42 444.854 42 497 c 0
 42 525.667 59.6667 567.334 95 622 c 1
 130.003 680.005 176.565 711 250 711 c 0
 294.164 711 328.778 693.789 361 673 c 1
 438.817 626.561 495 529.238 495 408 c 0
 495 376.667 480.667 327 452 259 c 0
 438.187 227.146 423.119 196.548 408 166 c 1
 390.667 142 356.333 110.333 305 71 c 1
 237 21 177 -4 125 -4 c 0
 89 -4 67 6 59 26 c 1
 45 87 l 1
 97 114 l 1
 120.333 124 141.667 129 161 129 c 0
 206.333 129 257.5 161.5 314.5 226.5 c 128
 371.5 291.5 400 352.333 400 409 c 0
 400 502.106 336.053 565.973 258 605 c 1
 223 603 l 1
 188 602 l 1
 203.091 560.758 218.007 519.34 232 477 c 1
 213.633 428.022 190.833 392.475 141 385 c 1
EndSplineSet
EndChar

StartChar: M
Encoding: 77 77 34
Width: 32
Flags: HW
LayerCount: 2
Fore
SplineSet
-176 965 m 4
 -176 948.333 -179.667 933 -187 919 c 5
 -205 893 l 5
 -219 875 l 5
 -236 862 l 5
 -266 846 l 5
 -293 837 l 5
 -318 835 l 5
 -334.667 835 -350 838.667 -364 846 c 6
 -386 859 l 5
 -411 878 l 5
 -429.53 901.471 -446 936.274 -446 977 c 4
 -446 1011 -432 1042 -404 1070 c 5
 -388.931 1079.26 -372.859 1087.53 -357 1096 c 5
 -335 1102.67 -318 1106 -306 1106 c 4
 -291.333 1106 -276.333 1102.67 -261 1096 c 5
 -245.648 1087.02 -230.781 1077.55 -216 1068 c 5
 -203 1048 l 5
 -186 1018 l 5
 -179.333 996 -176 978.333 -176 965 c 4
-314 1032 m 5
 -337.85 1032 -359.266 993.402 -370 975 c 5
 -370 952.943 -354.465 932.465 -340 918 c 5
 -314 912 l 5
 -308.668 912 -301.335 914.333 -292 919 c 6
 -272 929 l 5
 -258 949 l 5
 -251 972 l 5
 -251 983.333 -255.667 994.667 -265 1006 c 5
 -283 1020 l 5
 -314 1032 l 5
EndSplineSet
EndChar

StartChar: N
Encoding: 78 78 35
Width: 1103
Flags: HW
LayerCount: 2
Fore
SplineSet
851 351 m 2
 851 403.633 882.23 446 931 446 c 0
 955.667 446 981.667 437.667 1009 421 c 0
 1044.33 399.667 1062 373 1062 341 c 0
 1062 291 1034.33 224.333 979 141 c 0
 916.333 48.3333 855.667 2 797 2 c 0
 751 2 714.667 21.6667 688 61 c 0
 676 79 659.333 118.667 638 180 c 1
 621 244 l 1
 617 266 615 287 615 307 c 0
 615 350.333 605 372 585 372 c 0
 576.333 372 551.333 344.333 510 289 c 2
 392 133 l 1
 348 77 318.667 49 304 49 c 0
 244.324 49 227 112.295 227 179 c 1
 228 211 l 2
 228 223 228.667 231 230 235 c 1
 230 243.667 224.167 275.833 212.5 331.5 c 128
 200.833 387.167 192.333 417.333 187 422 c 1
 183 428 153.667 437.333 99 450 c 0
 57 460 36 482.667 36 518 c 1
 37 545 l 1
 38.3333 553 41.6667 560.333 47 567 c 0
 58.3333 579 84.3333 585 125 585 c 0
 163.434 585 188.943 573.434 213 559 c 1
 257 535 286.333 499.333 301 452 c 1
 316 394 l 1
 330 323 l 1
 337.333 277.667 349 255 365 255 c 0
 379 255 407.667 286 451 348 c 1
 562 521 l 1
 604.668 583.667 635.335 615 654 615 c 0
 669.333 615 682 608.167 692 594.5 c 128
 702 580.833 713 574 725 574 c 0
 737.667 574 753 582 771 598 c 1
 808 640 l 1
 847.388 686.773 877.757 730.028 894 795 c 1
 901 843 l 1
 903 922 l 2
 903 953.367 904.256 972 932 972 c 1
 953 969 l 1
 973 963 985.667 944 991 912 c 1
 992 863 l 1
 994 833 l 1
 991 788 l 1
 989 775.333 985 760.667 979 744 c 1
 932 635 l 1
 916 589.666 866.333 534.332 783 469 c 0
 749 443 732 418.667 732 396 c 1
 746 194 l 1
 746 162.52 776.96 99 809 99 c 0
 828.333 99 857.333 123.667 896 173 c 0
 932.667 219.667 951 248.333 951 259 c 0
 951 267.667 934.333 277 901 287 c 128
 867.667 297 851 314.333 851 339 c 2
 851 351 l 2
EndSplineSet
EndChar

StartChar: O
Encoding: 79 79 36
Width: 32
Flags: HW
LayerCount: 2
Fore
SplineSet
-597 965 m 0
 -597 948.333 -600.667 933 -608 919 c 1
 -626 893 l 1
 -640 875 l 1
 -657 862 l 1
 -687 846 l 1
 -714 837 l 1
 -739 835 l 1
 -755.667 835 -771 838.667 -785 846 c 2
 -807 859 l 1
 -832 878 l 1
 -850.53 901.471 -867 936.274 -867 977 c 0
 -867 1011 -853 1042 -825 1070 c 1
 -809.931 1079.26 -793.859 1087.53 -778 1096 c 1
 -756 1102.67 -739 1106 -727 1106 c 0
 -712.333 1106 -697.333 1102.67 -682 1096 c 1
 -666.648 1087.02 -651.781 1077.55 -637 1068 c 1
 -624 1048 l 1
 -607 1018 l 1
 -600.333 996 -597 978.333 -597 965 c 0
-735 1032 m 1
 -758.85 1032 -780.266 993.402 -791 975 c 1
 -791 952.943 -775.465 932.465 -761 918 c 1
 -735 912 l 1
 -729.667 912 -722.333 914.333 -713 919 c 2
 -693 929 l 1
 -679 949 l 1
 -672 972 l 1
 -672 983.333 -676.667 994.667 -686 1006 c 1
 -704 1020 l 1
 -735 1032 l 1
EndSplineSet
EndChar

StartChar: R
Encoding: 82 82 37
Width: 205
Flags: HW
LayerCount: 2
Fore
SplineSet
1079 -172 m 0
 1114.96 -172 1132.05 -188.667 1142 -221 c 1
 1142 -237 1118.67 -259 1072 -287 c 0
 1003.28 -327.85 947.389 -367.443 871 -402 c 1
 843.826 -413.159 815.819 -423.485 788 -434 c 1
 760 -443.333 734 -450.333 710 -455 c 1
 671 -460 l 1
 625 -462 l 1
 472.476 -462 361.372 -423.949 279 -344 c 0
 252.232 -319.101 226.204 -293.463 201 -267 c 1
 160 -220 l 1
 147.308 -197.026 134.653 -174.013 122 -151 c 1
 89 -76 l 1
 57.1771 7.01634 40 136.627 40 255 c 1
 42 325 l 1
 44 380 l 1
 47 437 l 1
 50.4089 477.907 54.3004 480.703 57 505 c 0
 67 587 80 650 96 694 c 1
 107.333 732 119 762.667 131 786 c 1
 143.667 813.333 157.333 836.667 172 856 c 1
 186.667 878 206.334 899 231 919 c 0
 349.731 1020.77 512.402 1073.34 706 1101 c 1
 777 1107 l 1
 856 1109 l 1
 918 1109 979 1106 1039 1100 c 0
 1049 1100 1049 1100 1058 1100 c 128
 1064 1100 1070.67 1099.33 1078 1098 c 0
 1111.53 1093.87 1144.98 1089.65 1178 1085 c 1
 1255.27 1085 1311.19 1041.55 1366 1021 c 0
 1387.37 1013.03 1409 1005.33 1430 997 c 1
 1451.21 992.758 1488 970.819 1488 946 c 0
 1488 926.331 1475.3 916.51 1460 906 c 1
 1436 900 l 1
 1407 898 l 1
 1392 898 l 1
 1368.84 905.24 1345.6 914.699 1325 925 c 1
 1326.47 929.196 1327.77 933.559 1329 938 c 1
 1329 943.333 1303 951.667 1251 963 c 1
 1036 989 l 1
 956 995 l 1
 859 998 l 1
 794 997 l 2
 779 997 779 997 769.5 997 c 128
 763.167 997 752 995.667 736 993 c 1
 714 993 692 991 670 987 c 1
 628 977 l 1
 556 963 488.333 937.667 425 901 c 1
 397.177 887.751 368.522 872.547 346 854 c 1
 329.333 842 310.667 826.667 290 808 c 1
 280.667 797.333 268 779 252 753 c 0
 240.667 733 228.667 707.333 216 676 c 1
 207 647 l 1
 196 607 l 1
 179 507 l 1
 169.667 421.667 165 342 165 268 c 0
 165 138.859 168.195 -0.191345 215 -83 c 1
 239.698 -131.161 264.372 -172.98 305 -202 c 1
 313 -210 355.333 -239.333 432 -290 c 1
 474 -314 l 1
 518 -333 l 1
 554 -343.667 583 -349 605 -349 c 0
 657.884 -349 737.795 -324.739 781 -302 c 1
 805 -292.667 829.667 -280 855 -264 c 1
 944 -236 l 1
 1019 -191 l 1
 1045.67 -178.333 1065.67 -172 1079 -172 c 0
EndSplineSet
EndChar

StartChar: U
Encoding: 85 85 38
Width: 61
Flags: HW
LayerCount: 2
Fore
SplineSet
-193 -467 m 0
 -193 -441.72 -176.574 -432.878 -156 -427 c 1
 -152 -427 -148.333 -428.333 -145 -431 c 2
 -123 -450 l 1
 -101 -465 l 2
 -85 -476.333 -71.6667 -483.333 -61 -486 c 2
 -32 -493 l 1
 -2 -496 l 1
 20 -495 l 1
 45 -495 l 2
 76.254 -495 89.6284 -488.237 115 -475 c 1
 150 -455 l 1
 178.145 -433.415 221.219 -398.961 252 -386 c 1
 262.884 -383.032 290 -385.253 290 -395 c 1
 286 -423 280.667 -441.333 274 -450 c 1
 244 -480 l 1
 210.666 -516 186.333 -537.667 171 -545 c 1
 48 -590 l 1
 29 -593 l 1
 19 -593 -4 -587 -40 -575 c 0
 -86 -559 -126 -537 -160 -509 c 1
 -180 -490 l 1
 -188 -484 -192.333 -476.333 -193 -467 c 0
181 -280 m 0
 197.168 -280 194.891 -292.687 196 -306 c 1
 196 -318.667 171 -339 121 -367 c 0
 93 -381.667 73.3333 -390.667 62 -394 c 2
 29 -404 l 1
 6 -410 l 1
 -12 -414 l 1
 -24 -413 l 1
 -33 -412 l 1
 -56 -405 l 1
 -76 -401 -89 -396.333 -95 -391 c 1
 -103 -387 -114.333 -378.667 -129 -366 c 1
 -149 -346 -165 -320.667 -177 -290 c 1
 -185 -257 l 1
 -188 -215 l 1
 -188 -189.667 -185.667 -164 -181 -138 c 2
 -174 -103 l 1
 -174 -73 -158.333 -58 -127 -58 c 0
 -97 -58 -82 -72.6667 -82 -102 c 2
 -82 -122 l 1
 -83 -150 l 1
 -82 -187 l 2
 -82 -202.333 -80.6667 -214.333 -78 -223 c 2
 -71 -258 l 2
 -69 -270 -66 -278 -62 -282 c 2
 -48 -297 l 1
 -38 -305 l 1
 -15 -310 l 1
 15 -313 l 1
 34 -311 l 1
 81 -297 l 1
 108.387 -290.914 143.072 -280 173 -280 c 128
 179 -280 179 -280 181 -280 c 0
EndSplineSet
EndChar

StartChar: W
Encoding: 87 87 39
Width: 319
Flags: HW
LayerCount: 2
Fore
SplineSet
-95 954 m 0
 -95 1043.48 26.0822 1077 125 1077 c 0
 148.819 1077 235.509 1047.12 243 1030 c 1
 268 989 l 1
 282 957 l 1
 285 930 l 1
 282 895 l 1
 277 866 l 2
 269 823.333 221.333 765.333 134 692 c 0
 49.3333 620.667 -8 585 -38 585 c 0
 -54.2683 585 -81 602.776 -81 619 c 0
 -81 623 -60 643.667 -18 681 c 1
 32.6667 723.667 72.3333 761 101 793 c 0
 143.667 841.667 165 884.334 165 921 c 0
 165 953.239 114.951 997 81 997 c 0
 55.7117 997 53 970.689 53 943 c 2
 53 915 l 2
 53 848.817 39.6993 818 -22 818 c 0
 -82.5586 818 -95 880.302 -95 954 c 0
149 -66 m 1
 195.858 -101.143 215.893 -147.069 220 -221 c 1
 220 -238 l 1
 215 -267 l 2
 213.667 -277.666 205 -295.333 189 -320 c 1
 170 -342 l 1
 146 -364 l 2
 131.333 -376.667 109 -386 79 -392 c 1
 57 -394 l 1
 18.3333 -394 -15.6667 -380.333 -45 -353 c 1
 -53.6862 -347.788 -59.2039 -342.061 -66 -333 c 1
 -74.6667 -323.668 -82.6667 -312.335 -90 -299 c 1
 -104 -266 l 1
 -110 -232 l 1
 -110.698 -221.031 -111.362 -210.029 -112 -199 c 0
 -112 -151.603 -103.421 -134.987 -84 -101 c 1
 -72 -82.3333 -56 -65.6667 -36 -51 c 1
 -21.3333 -41.6667 -3.66667 -35 17 -31 c 1
 51 -28 l 1
 72 -28 l 2
 103.15 -28 126.048 -45.8024 149 -66 c 1
138 -213 m 1
 134.533 -160.401 106.875 -116.722 51 -110 c 1
 34 -111 l 2
 30.6667 -111 22.3333 -114 9 -120 c 1
 -0.0134408 -120 -8.5022 -137.003 -13 -143 c 0
 -25 -159 -31 -178.667 -31 -202 c 1
 -27.9541 -259.872 1.5291 -309 66 -309 c 1
 110.347 -302.843 138 -260.938 138 -213 c 1
EndSplineSet
EndChar

StartChar: Y
Encoding: 89 89 40
Width: 29
Flags: HW
LayerCount: 2
Fore
SplineSet
-146 -74 m 1
 -112.554 -74 -100 -112.633 -100 -149 c 0
 -100 -162.333 -102 -175 -106 -187 c 2
 -130 -250 l 1
 -156 -303 l 1
 -176.197 -346.502 -221.599 -398.057 -260 -420 c 1
 -309 -445 l 1
 -327.667 -453 -354 -462 -388 -472 c 1
 -490 -488 l 1
 -526 -492 -562.667 -494 -600 -494 c 0
 -614 -494 -628 -494 -642 -494 c 1
 -661 -492 l 1
 -733 -488 l 1
 -804 -480 l 1
 -824.142 -480 -848.14 -475.302 -863 -472 c 1
 -885 -470 -901 -466 -911 -460 c 1
 -977 -429 l 1
 -1036 -406 l 2
 -1049.66 -400.145 -1066 -384.731 -1066 -368 c 0
 -1066 -351.779 -1056.14 -341.446 -1043 -333 c 1
 -1019 -328 l 1
 -1009.67 -328 -1000.33 -328 -991 -328 c 1
 -956 -340 l 1
 -942 -346 l 1
 -944 -348 -945 -351.667 -945 -357 c 256
 -945 -362.333 -925.333 -368.333 -886 -375 c 1
 -731 -394 l 1
 -667 -398 l 1
 -602 -400 l 1
 -513 -397 l 2
 -494.866 -397 -478.678 -395.618 -463 -392 c 2
 -435 -385 l 1
 -413 -381 -387 -372 -357 -358 c 2
 -320 -341 l 1
 -285 -320 l 1
 -246 -253 l 2
 -231.91 -228.344 -219.325 -199.439 -205 -169 c 1
 -198 -139 l 2
 -196 -129 -192.667 -119.333 -188 -110 c 1
 -180 -84 -166 -72 -146 -74 c 1
EndSplineSet
EndChar

StartChar: bracketleft
Encoding: 91 91 41
Width: 586
Flags: HW
LayerCount: 2
Fore
SplineSet
545 871 m 0
 565.845 871 577.499 853.757 580 835 c 1
 580 818 580 818 580 802 c 1
 574.448 774.241 572.077 751.537 565 725 c 0
 551 673.665 528.667 627.332 498 586 c 0
 458.667 534.666 405.333 491 338 455 c 1
 286 428.333 252 409 236 397 c 1
 222.666 389 215.333 383 214 379 c 1
 216 374 l 1
 216 365 l 1
 217 131 l 1
 220 107 l 1
 225.907 87.3088 242.236 73 268 73 c 256
 284.667 73 312.667 87.6667 352 117 c 0
 394.667 148.333 416 174.333 416 195 c 256
 416 215.667 403.167 230 377.5 238 c 128
 351.833 246 339 264.333 339 293 c 0
 339 319.913 369.575 380 396 380 c 0
 493.619 380 541 319.572 541 223 c 0
 541 178.333 533.333 148.667 518 134 c 1
 490 116 l 1
 486 109.333 477 100.333 463 89 c 128
 428.592 61.1457 371.681 25.8403 326 3 c 1
 303.333 -6.33333 284 -11 268 -11 c 0
 147.042 -11 109 74.4328 109 207 c 1
 111 287 l 1
 111 319 l 2
 111 328.333 111.667 335 113 339 c 1
 110 418 l 2
 110 434.667 108.667 448.667 106 460 c 1
 104 474 100.667 486 96 496 c 1
 86 524 63.6667 543.167 29 553.5 c 128
 -5.66667 563.833 -23 583.333 -23 612 c 0
 -23 641.25 41.6525 669 71 669 c 0
 113 669 148 648 176 606 c 128
 204 564 233 543 263 543 c 0
 295.291 543 313.064 553.253 339 569 c 1
 387 602 l 1
 391 608 395 612 399 614 c 1
 418.554 634.857 432.497 653.04 448 677 c 1
 469.334 717.667 487.168 760.167 501.5 804.5 c 128
 515.833 848.833 530.333 871 545 871 c 0
EndSplineSet
EndChar

StartChar: backslash
Encoding: 92 92 42
Width: 569
Flags: HW
LayerCount: 2
Fore
SplineSet
83 1422 m 1
 573 -28 l 1
 493 -28 l 1
 3 1422 l 1
 83 1422 l 1
EndSplineSet
EndChar

StartChar: bracketright
Encoding: 93 93 43
Width: 609
Flags: HW
LayerCount: 2
Fore
SplineSet
-30 553 m 0
 -57.4011 553 -79 584.246 -79 612 c 0
 -79 624 -55.1667 644 -7.5 672 c 128
 40.1667 700 64 734.333 64 775 c 1
 61 801 l 1
 55 863 l 1
 53 986 l 2
 53 1003.33 56 1020.67 62 1038 c 1
 83 1075 l 1
 103.551 1177.76 207.941 1207 345 1207 c 1
 394 1206 l 1
 434 1205 l 1
 488.308 1205 575 1158.46 575 1109 c 1
 558 1083 l 1
 546.663 1067.67 535.329 1059 524 1057 c 1
 515 1061 l 1
 495.981 1080.02 319.472 1100 279 1100 c 0
 257 1100 234 1088.33 210 1065 c 0
 186 1043 169 1016.67 159 986 c 1
 147 932 l 1
 143 887 l 1
 144 857 l 1
 147.438 822.625 165 786.129 165 750 c 2
 165 739 l 1
 156.434 687.605 138.007 651.22 89 609 c 128
 45.6667 571.667 6 553 -30 553 c 0
EndSplineSet
EndChar

StartChar: grave
Encoding: 96 96 44
Width: 682
Flags: HW
LayerCount: 2
Fore
SplineSet
118 1390 m 1
 341 1390 l 1
 447 1045 l 1
 412 1045 l 1
 118 1390 l 1
EndSplineSet
EndChar

StartChar: a
Encoding: 97 97 45
Width: 588
Flags: HW
LayerCount: 2
Fore
SplineSet
485 -230 m 0
 507.552 -230 525 -241.808 525 -261 c 1
 524 -274 l 1
 515.032 -295.497 490.048 -308.195 460 -320 c 1
 437.361 -327.546 446.206 -335.632 420 -340 c 1
 389 -343 l 1
 376 -343 l 2
 331.109 -343 319.019 -339.509 286 -323 c 1
 259.591 -313.568 232.975 -294.797 210 -276 c 1
 154 -242 126 -183.333 126 -100 c 2
 126 534 l 2
 126 609.121 34.7507 669 -44 669 c 0
 -57.1336 669 -139.535 716 -154 716 c 1
 -160 751 l 1
 -123.333 764.333 -84.6667 771 -44 771 c 0
 101.959 771 240 689.434 240 534 c 2
 240 -90 l 2
 240 -133.967 261.001 -178.039 290 -197 c 1
 296 -203 305.667 -208 319 -212 c 2
 364 -223 l 1
 400 -229 l 1
 425 -230 l 2
 445 -230 465 -230 485 -230 c 0
EndSplineSet
EndChar

StartChar: b
Encoding: 98 98 46
Width: 708
Flags: HW
LayerCount: 2
Fore
SplineSet
493 691 m 0
 594.86 691 694 591.789 694 476 c 0
 694 330.051 611.852 181.777 533 105 c 0
 475 49 406.667 14.3333 328 1 c 1
 294 -2 l 1
 145.871 -2 129 170.104 129 327 c 2
 129 359 l 1
 130 390 l 1
 127 450 l 1
 125 468 121.333 483 116 495 c 0
 106 522.333 84.6667 546 52 566 c 1
 16 590 l 2
 2 599.333 -5 617 -5 643 c 0
 -5 659 14.6667 676 54 694 c 1
 113 712 l 1
 140.333 712 165.333 688.667 188 642 c 2
 223 570 l 1
 233.667 550.667 240.334 539.667 243 537 c 1
 309 592.333 352 626.333 372 639 c 1
 405.623 663.283 423.968 675.277 461.5 686 c 128
 473.167 689.333 483.667 691 493 691 c 0
241 238 m 0
 241 179.281 276.407 108 332 108 c 0
 382.667 108 430.333 132.333 475 181 c 0
 508.333 218.333 537.667 269.667 563 335 c 1
 583 391 593 435.667 593 469 c 0
 593 526.014 504.75 574 443 574 c 0
 389 574 340 531.667 296 447 c 1
 259.333 372.333 241 302.667 241 238 c 0
EndSplineSet
EndChar

StartChar: c
Encoding: 99 99 47
Width: 1115
Flags: HW
LayerCount: 2
Fore
SplineSet
893 669 m 0
 1009.12 669 1067 581.104 1067 457 c 0
 1067 244.702 957.446 99.3661 813 20 c 0
 759 -8.66667 708.333 -23 661 -23 c 0
 628.221 -23 607.682 1.5498 590 21 c 1
 578.658 37.6577 567.902 54.9022 557 72 c 1
 552 89 l 1
 542 138 l 1
 538 179 l 1
 537 222 l 1
 539 306 l 1
 542 374 l 1
 526 374 493.333 341.333 444 276 c 2
 306 92 l 1
 250 26 206.333 -7 175 -7 c 1
 156.824 35.4099 145 92.3701 145 153 c 2
 145 183 l 1
 149 226 l 2
 149 232 151 241.667 155 255 c 1
 155 385.47 154.047 531 61 531 c 0
 53.6667 531 42.3333 529 27 525 c 1
 5 525 l 1
 5 620 l 1
 34 620 l 2
 43.3333 620 53 621.333 63 624 c 1
 95 636 l 1
 209.294 636 251 559.451 251 439 c 0
 251.715 416.715 252.376 394.376 253 372 c 2
 255 308 l 1
 249 277 l 1
 247 252 l 1
 247 236.666 249.333 226.333 254 221 c 1
 286.763 259.904 317.453 300.88 349 341 c 1
 431.505 453.495 515.424 564.576 600 675 c 1
 602.084 671.874 615.439 644.902 617 641 c 2
 623 611 l 1
 622 585 l 1
 623 558 l 1
 625 538 l 1
 633 508 l 1
 680 549 l 2
 719.333 582.333 755 608.333 787 627 c 0
 832.333 655 867.667 669 893 669 c 0
639 211 m 1
 639 164.206 668.287 99 710 99 c 0
 756 99 808.333 123.333 867 172 c 0
 939.667 231.333 976 301.667 976 383 c 0
 976 420.333 969.333 450.333 956 473 c 1
 944 496.334 923.333 512.334 894 521 c 1
 871 525 l 1
 849 525 823.333 515.667 794 497 c 1
 746 461 l 1
 728.667 449.667 705 404 675 324 c 1
 639 211 l 1
EndSplineSet
EndChar

StartChar: d
Encoding: 100 100 48
Width: 770
Flags: HW
LayerCount: 2
Fore
SplineSet
636 645 m 2
 686.534 645 731 586.863 731 534 c 0
 731 478.404 653.665 419 596 419 c 0
 565.333 419 547 438 541 476 c 1
 541 498.667 530.333 510 509 510 c 1
 477.055 504.192 452.167 499.254 401 478 c 1
 336 453 l 1
 290.558 440.442 245.113 427.887 201 414 c 1
 200 285 l 2
 200 260.41 198 179.776 198 156 c 1
 206 156 221.333 161.667 244 173 c 0
 305.333 202.333 348 220.667 372 228 c 1
 403 232 l 1
 519.616 232 621.381 136.485 664 70 c 0
 687.333 33.3333 699 -8 699 -54 c 0
 699 -102.481 636.279 -219.312 614 -240 c 0
 588.666 -262.667 557.332 -280 520 -292 c 0
 488.667 -301.333 456.667 -306 424 -306 c 0
 365.858 -306 306 -254.254 306 -198 c 0
 306 -164.917 364.035 -91 398 -91 c 0
 433.428 -91 454.928 -101.196 480 -120 c 0
 500.676 -135.99 519.589 -153.744 539 -171 c 1
 563.059 -171 606 -86.4336 606 -63 c 1
 583.122 53.9302 500.32 128 364 128 c 0
 322.667 128 276 109 224 71 c 0
 199.333 52.3333 179.833 39.3333 165.5 32 c 128
 151.167 24.6667 139 21 129 21 c 0
 113.077 21 102.959 43.1417 99 57 c 1
 99 453 l 2
 99 480.501 76.1407 496.93 56 507 c 1
 19 522 l 1
 -3 529 l 2
 -25.7704 535.21 -45 553.258 -45 577 c 0
 -45 631.133 -34.4473 649 18 649 c 2
 48 649 l 2
 86 649 117.667 641 143 625 c 1
 177.523 597.856 210.908 569.575 244 541 c 1
 262.667 526.333 276.333 519 285 519 c 0
 291.667 519 335 538.333 415 577 c 2
 501 618 l 1
 518 625 l 1
 507 621 l 1
 528.981 637.809 584.085 645 619 645 c 2
 636 645 l 2
EndSplineSet
EndChar

StartChar: e
Encoding: 101 101 49
Width: 857
Flags: HW
LayerCount: 2
Fore
SplineSet
194 247 m 0
 131.936 247 87.2595 306.811 84 372 c 1
 84 392.667 88.3333 414 97 436 c 1
 108.128 474.95 132.446 503.322 159 532 c 0
 208.12 584.096 287.806 642 381 642 c 0
 443.109 642 475.723 624.089 507 588 c 1
 536.552 544.552 566.855 501.855 597 459 c 1
 641.535 581.798 686.723 703.943 732 826 c 1
 825 1068 l 1
 866.908 1167.25 889.782 1212.36 933 1221 c 1
 948.582 1221 964.18 1215.84 969 1205 c 1
 973 1182 l 1
 973 1144.62 962.898 1121.69 950 1082 c 2
 904 947 l 2
 862.429 825.366 874.587 858.365 827 731 c 1
 751.638 524.028 677.954 315.379 606 105 c 1
 594 64 l 1
 587.163 31.1815 572.767 3 532 3 c 0
 498.365 3 467 39.3036 467 74 c 0
 467 85.3333 473 103 485 127 c 0
 513.667 183.667 532 242.333 540 303 c 1
 540 354.062 527.433 378.336 504 417 c 0
 481.333 456.333 464.333 481.333 453 492 c 0
 431 514 403.333 525 370 525 c 0
 331.825 525 242 484.587 242 450 c 1
 275 392 l 1
 282 372 l 2
 286 362 288 352.333 288 343 c 1
 285 322 l 1
 277.601 278.839 242.556 247 194 247 c 0
EndSplineSet
EndChar

StartChar: f
Encoding: 102 102 50
Width: 1153
Flags: HW
LayerCount: 2
Fore
SplineSet
889 637 m 0
 1008.34 637 1113 534.756 1113 413 c 0
 1113 387 1113 387 1113 362 c 1
 1111 347.332 1109.67 336.665 1109 330 c 0
 1109 303.462 1102.64 277.246 1096 254 c 1
 1064.54 115.06 983.947 7 826 7 c 0
 776 7 739 24 715 58 c 1
 647 162 l 1
 632.333 150 607.333 124.667 572 86 c 0
 516.666 26 468 -4 426 -4 c 0
 292.651 -4 226 51.8301 226 185 c 0
 226 210.333 229.333 250.667 236 306 c 1
 241 372 l 1
 225 440 l 1
 211 486 194.333 510 175 512 c 1
 138 508 l 1
 95 505 l 1
 60.822 505 35 506.729 35 538 c 0
 35 623.255 79.719 669 165 669 c 2
 172 669 l 1
 178 668 l 1
 310.632 668 376 613.027 376 485 c 2
 376 449 l 1
 374.667 443 374 439 374 437 c 0
 370.139 398.527 364.686 361.648 360 324 c 1
 360 254.359 380.948 113 441 113 c 0
 461 113 488 133.333 522 174 c 0
 548.667 207.333 566 233.667 574 253 c 1
 584 299 l 1
 596 394 l 1
 599 442 l 1
 601 480 l 2
 601 492.667 599.667 503 597 511 c 1
 593 547 l 1
 593 586.333 596.333 609.333 603 616 c 1
 639 624 l 1
 645 624 649 624.667 651 626 c 1
 662.604 616.937 674.262 607.928 686 599 c 1
 708 586 l 2
 711.333 584 741 594.333 797 617 c 1
 844 632 l 1
 864.925 636.185 865.119 637 889 637 c 0
854 140 m 0
 969.01 140 1008 243.361 1008 371 c 0
 1008 427.183 950.502 497 892 497 c 1
 876 498 l 1
 800.88 498 728 433.863 728 357 c 0
 728 238.451 750.101 140 854 140 c 0
EndSplineSet
EndChar

StartChar: g
Encoding: 103 103 51
Width: 1011
Flags: HW
LayerCount: 2
Fore
SplineSet
275 19 m 0
 123.63 19 32 192.605 32 352 c 0
 32 442.667 79.3333 519.333 174 582 c 1
 264.667 639.333 372.667 668 498 668 c 0
 616.784 668 775.576 607.486 845 554 c 1
 928.221 492.489 968 419.856 968 280 c 0
 968 253.333 959.667 223 943 189 c 1
 911 132 l 2
 882.891 80.2786 813.117 7 737 7 c 0
 699.787 7 666.613 4.98096 654 23 c 1
 638 54 l 1
 632 90 l 1
 632 108.119 633.4 109.8 640 123 c 1
 650.264 138.967 661.4 141.133 679 147 c 1
 702 148 l 1
 719 147 l 1
 736 147 l 1
 757 150 l 1
 805.667 169.333 835.667 190 847 212 c 1
 855.667 232.667 860 276.333 860 343 c 0
 860 408.333 814.667 466.333 724 517 c 0
 642.666 563 562.333 586 483 586 c 0
 385.667 586 300.667 560.667 228 510 c 0
 160.667 462.667 127 410.333 127 353 c 0
 127 271.223 142.795 216.205 183 176 c 1
 235 204 l 1
 248.333 209.333 260.667 212.667 272 214 c 1
 320.116 214 365 143.145 365 111 c 0
 365 55.8722 328.012 19 275 19 c 0
EndSplineSet
EndChar

StartChar: h
Encoding: 104 104 52
Width: 867
Flags: HW
LayerCount: 2
Fore
SplineSet
816 90 m 1
 816 35.5795 803.894 -6 755 -6 c 0
 731 -6 714.333 -2.33333 705 5 c 1
 690 30 l 1
 656 266 l 2
 646 335.333 635.667 378.333 625 395 c 1
 614.333 387.667 592.333 363.333 559 322 c 0
 506.925 255.075 454.847 188.153 403 121 c 1
 355 65.6667 318.667 38 294 38 c 0
 244.54 38 243 131.981 243 184 c 0
 243 267.078 243.962 335.448 233 393 c 1
 227.666 427.667 215.333 458.667 196 486 c 0
 185.333 500.667 152.333 520 97 544 c 0
 55.6667 561.333 35 585.333 35 616 c 0
 35 651.854 77.2088 681 112 681 c 1
 136 678 l 1
 178.153 668.365 206.696 654.097 238 632 c 1
 251.004 624.414 308.075 528.827 316 510.5 c 128
 321.333 498.167 332.333 442.333 349 343 c 0
 355 304.333 360 283.333 364 280 c 0
 387.763 263.549 596.167 568.185 616 600 c 1
 641.405 633.289 679.352 679 724 679 c 0
 749.333 679 762 646.667 762 582 c 0
 762 570.667 763.833 547 767.5 511 c 128
 771.167 475 778 419.667 788 345 c 1
 816 90 l 1
EndSplineSet
EndChar

StartChar: i
Encoding: 105 105 53
Width: 265
Flags: HW
LayerCount: 2
Fore
SplineSet
276 906 m 0
 276 878 273 854 267 834 c 1
 250 796 l 1
 220.667 734 190.667 683 160 643 c 128
 129.333 603 103.333 583 82 583 c 0
 58 583 25.3333 610 -16 664 c 1
 -72 747 l 2
 -80.6667 761 -93 786 -109 822 c 0
 -118.549 845.873 -131 870.088 -131 895 c 2
 -131 957 l 2
 -131 1024.77 -98.4042 1101.82 -72 1141 c 1
 -45.2673 1193.35 5.35289 1236 77 1236 c 0
 103.667 1236 128.667 1227.67 152 1211 c 0
 172 1197.67 193.667 1174.33 217 1141 c 0
 235 1113.67 249.333 1081 260 1043 c 1
 270 977 l 2
 274 951 276 927.333 276 906 c 0
185 906 m 0
 185 980.224 177.906 1012.88 154 1066 c 1
 136 1090 l 1
 117 1109 l 1
 91 1120 l 1
 77 1121 l 2
 68.3333 1121 63 1120.33 61 1119 c 2
 39 1111 l 1
 24.3378 1100.74 8.60613 1082.91 -2 1067 c 1
 -14.1715 1042.66 -22.2435 1024.02 -31 994 c 1
 -40 957 l 1
 -44 918 l 1
 -44 880.99 -29.3141 846.932 -9 819 c 1
 31 753 l 1
 51 723.667 68 709 82 709 c 0
 111.958 709 144.684 782.719 162 819 c 1
 178 862 l 1
 182.667 880.67 185 895.337 185 906 c 0
EndSplineSet
EndChar

StartChar: j
Encoding: 106 106 54
Width: 319
Flags: HW
LayerCount: 2
Fore
SplineSet
-95 954 m 0
 -95 1043.48 26.0822 1077 125 1077 c 0
 148.819 1077 235.509 1047.12 243 1030 c 1
 268 989 l 1
 282 957 l 1
 285 930 l 1
 282 895 l 1
 277 866 l 2
 269 823.333 221.333 765.333 134 692 c 0
 49.3333 620.667 -8 585 -38 585 c 0
 -54.2683 585 -81 602.776 -81 619 c 0
 -81 623 -60 643.667 -18 681 c 1
 32.6667 723.667 72.3333 761 101 793 c 0
 143.667 841.667 165 884.334 165 921 c 0
 165 953.239 114.951 997 81 997 c 0
 55.7117 997 53 970.689 53 943 c 2
 53 915 l 2
 53 848.817 39.6993 818 -22 818 c 0
 -82.5586 818 -95 880.302 -95 954 c 0
EndSplineSet
EndChar

StartChar: k
Encoding: 107 107 55
Width: 1072
Flags: HW
LayerCount: 2
Fore
SplineSet
906 673 m 0
 973.348 673 1023 482.291 1023 406 c 2
 1020 19 l 2
 1020 13.6667 1014.33 9.66667 1003 7 c 1
 964 3 l 1
 954 3 944 3 934 3 c 1
 923.773 4.46095 899.392 5.60819 896 9 c 0
 888 14.3333 884 57.6667 884 139 c 2
 885 247 l 1
 886 368 l 2
 886 378 886 378 886 388 c 128
 886 394.667 886.667 402.333 888 411 c 1
 888 423 889.667 436.667 893 452 c 1
 893 473.119 886.852 495 866 495 c 0
 842 495 816.667 481.333 790 454 c 1
 755 410 l 1
 713 378 685 332 671 272 c 1
 662.333 230 658 180.333 658 123 c 0
 658 111.333 658 99.6667 658 88 c 0
 658 56.6667 656.333 36.3333 653 27 c 1
 647.268 -9.30553 611.012 -17 568 -17 c 0
 539.022 -17 522.637 -12.9116 515 10 c 1
 511.667 28 510 75 510 151 c 1
 508 211 l 1
 506 335 l 1
 508 383 l 1
 508 443.519 504.364 503 462 503 c 0
 438 503 400.667 477.333 350 426 c 128
 299.333 374.667 271 332.333 265 299 c 1
 267 220 l 1
 268 152 l 1
 268 94 l 2
 268 34.0099 260.835 -4 208 -4 c 0
 186 -4 168.333 3.66667 155 19 c 1
 145 47 l 1
 143 104 l 1
 144 193 l 1
 146 252 l 2
 146 271.333 146 290.667 146 310 c 1
 144 321 l 1
 144 333 143.333 341.333 142 346 c 2
 138 369 l 2
 137.333 376.333 102.333 411 33 473 c 0
 2.33333 499.667 -13 525.333 -13 550 c 1
 -3 577 l 1
 13 616.333 30.3333 639 49 645 c 1
 60 646 l 1
 86.6667 646 121.333 616.667 164 558 c 1
 249 433 l 1
 369 592 l 1
 417 647.333 461.667 675 503 675 c 1
 557.066 671.996 578.514 633.207 604 538 c 0
 609.333 518 616.667 478 626 418 c 1
 673.333 496 722.167 558 772.5 604 c 128
 822.833 650 867.333 673 906 673 c 0
EndSplineSet
EndChar

StartChar: l
Encoding: 108 108 56
Width: 1200
Flags: HW
LayerCount: 2
Fore
SplineSet
945 569 m 0
 945 631.802 1002.75 699 1083 699 c 1
 1094 698 l 1
 1132.69 690.747 1151.87 673.031 1176 628 c 1
 1193.33 593.333 1202 561.333 1202 532 c 1
 1200 515 l 1
 1176 396 l 1
 1165.19 358.675 1142.07 320.3 1120 280 c 0
 1083.01 209.992 1047.73 153.101 1001 94 c 1
 951 28 912.333 -5 885 -5 c 0
 777.157 -5 754.285 1.46068 698 55 c 128
 653.681 97.1572 637 131.896 637 207 c 1
 635 316 l 1
 635 361 l 1
 636 381 l 1
 635 413 l 1
 635 433 l 1
 631 447 l 1
 615 439 583.333 411.333 536 364 c 0
 468 296 416.333 242.667 381 204 c 0
 359.667 179.333 339.333 153 320 125 c 1
 293 83 l 2
 277 59 263 47 251 47 c 0
 243.667 47 238 50.3333 234 57 c 1
 225 83 l 1
 220 111 l 1
 219 143 l 1
 220 198 l 1
 225 355 l 1
 225 388.324 210.513 429.483 198 457 c 1
 182.389 503.832 158.92 530.869 116 537 c 1
 85 535 l 1
 51.9488 535 44 556.59 44 595 c 0
 44 625.667 61.3333 652.333 96 675 c 1
 148 698 l 1
 158 698 181.667 683 219 653 c 1
 251 625 272 604 282 590 c 0
 297.334 566.666 307.668 535.332 313 496 c 1
 312 447 l 1
 311 392 l 2
 311 373 311 373 311 359.5 c 128
 311 341.838 315.345 304 334 304 c 0
 340 304 361.667 324.667 399 366 c 1
 428.333 396.667 462 435.333 500 482 c 0
 532.667 520.667 552.667 546 560 558 c 0
 585.333 596.667 600 618 604 622 c 0
 626 650 655 664 691 664 c 0
 723.809 664 758.472 624.649 767 598 c 1
 771 569 l 1
 774 525 l 1
 775 315 l 1
 772 264 l 1
 770 223 l 1
 770 173.972 774.737 143.263 806 112 c 0
 820 98 834.667 91 850 91 c 0
 878 91 911.667 122.667 951 186 c 1
 1006 271 l 2
 1024 299 1037.33 321.5 1046 338.5 c 128
 1054.67 355.5 1059 375.333 1059 398 c 0
 1059 409.333 1040 430 1002 460 c 128
 964 490.001 945 526.334 945 569 c 0
EndSplineSet
EndChar

StartChar: m
Encoding: 109 109 57
Width: 750
Flags: HW
LayerCount: 2
Fore
SplineSet
472 561 m 0
 472 609.985 530.305 675 582 675 c 0
 590 675 600.5 669.833 613.5 659.5 c 128
 661.259 621.538 711 546.615 711 462 c 0
 711 328.813 667.973 247.077 613 163 c 128
 588.091 124.905 554.675 80.3624 523 60 c 0
 495.667 41.3333 471 26.6667 449 16 c 0
 416.333 1.33333 386 -6 358 -6 c 2
 345 -6 l 1
 311.076 -0.780931 280.053 1.84791 258 19 c 0
 230.667 39.6667 211 60.3333 199 81 c 0
 185.667 106.333 179 143.333 179 192 c 2
 179 383 l 1
 180 424 l 1
 181 458 l 2
 181 488.967 174.237 518.977 156 532 c 1
 64 561 l 1
 36.6667 577 23 598.667 23 626 c 0
 23 646 42.3333 664 81 680 c 1
 102 685 l 1
 123 688 l 1
 139 687 l 2
 144.333 687 150 685.333 156 682 c 2
 183 670 l 1
 208 653 l 2
 250 623.667 279.667 576.667 297 512 c 1
 300.333 495.332 302 475.666 302 453 c 2
 301 422 l 2
 301 407.667 301 393.333 301 379 c 1
 603 379 l 1
 612 404 l 2
 613.333 408 614 412 614 416 c 128
 614 422 614 422 614 425 c 0
 610 441.667 599.667 453 583 459 c 2
 544 472 l 2
 496 487.333 472 517 472 561 c 0
581 283 m 1
 299 283 l 1
 299 138 l 2
 299 134 302 129 308 123 c 1
 329 108 l 2
 344.333 96 362 90 382 90 c 0
 410 90 446 109 490 147 c 128
 534 185 564.333 230.333 581 283 c 1
EndSplineSet
EndChar

StartChar: n
Encoding: 110 110 58
Width: 605
Flags: HW
LayerCount: 2
Fore
SplineSet
577 558 m 0
 577 504.241 550.325 452 502 452 c 256
 482 452 463.333 465.667 446 493 c 0
 430.667 519 419.333 532.667 412 534 c 1
 402 534 384.333 529 359 519 c 2
 292 490 l 1
 261.333 478.667 236.667 467 218 455 c 1
 198 443.667 184 432 176 420 c 1
 174 128 l 1
 229 151 l 2
 256.334 163 279.667 175.333 299 188 c 2
 482 306 l 2
 484.12 306.53 515.102 314 518 314 c 0
 546.073 314 552.6 281.204 554 256 c 1
 554 -32 l 2
 554 -44.1293 551.837 -56.7618 549 -70 c 1
 544.998 -104.684 527.236 -119 496 -119 c 1
 453.108 -115.426 432 -102.941 432 -56 c 2
 432 86 l 1
 431 116 l 2
 431 134.602 425.142 145.232 411 147 c 1
 318.68 101.987 229.357 53.9768 142 4 c 0
 132.066 -0.966925 83.6391 -17.1278 68 -14 c 1
 62 -6 l 1
 58 10 l 1
 58 628 l 1
 61.5208 645.598 68.2351 653.963 87 661 c 1
 111 665 l 1
 125 666 l 2
 137.667 666 146.334 664.667 151 662 c 1
 165 645 l 1
 174.579 635.421 177 621.975 177 601 c 1
 176 585 l 1
 176 569 l 2
 176 555.662 178 541.329 182 526 c 1
 209.52 533.706 328.357 581.211 350 594 c 1
 397 632 l 2
 410.481 642.485 421.327 647.425 439 655 c 1
 479 668 l 1
 507 673 l 1
 553.775 673 577 604.716 577 558 c 0
EndSplineSet
EndChar

StartChar: o
Encoding: 111 111 59
Width: 153
Flags: HW
LayerCount: 2
Fore
SplineSet
129 -66 m 1
 175.858 -101.143 195.893 -147.069 200 -221 c 1
 200 -238 l 1
 195 -267 l 2
 193.667 -277.666 185 -295.333 169 -320 c 1
 150 -342 l 1
 126 -364 l 2
 111.333 -376.667 89 -386 59 -392 c 1
 37 -394 l 1
 -1.66667 -394 -35.6667 -380.333 -65 -353 c 1
 -73.6863 -347.788 -79.2039 -342.061 -86 -333 c 1
 -94.6667 -323.668 -102.667 -312.335 -110 -299 c 1
 -124 -266 l 1
 -130 -232 l 1
 -130.698 -221.031 -131.362 -210.029 -132 -199 c 0
 -132 -151.603 -123.421 -134.987 -104 -101 c 1
 -92 -82.3333 -76 -65.6667 -56 -51 c 1
 -41.3333 -41.6667 -23.6667 -35 -3 -31 c 1
 31 -28 l 1
 52 -28 l 2
 83.1504 -28 106.048 -45.8023 129 -66 c 1
118 -213 m 1
 114.533 -160.401 86.8751 -116.722 31 -110 c 1
 14 -111 l 2
 10.6667 -111 2.33333 -114 -11 -120 c 1
 -20.0134 -120 -28.5022 -137.003 -33 -143 c 0
 -45 -159 -51 -178.667 -51 -202 c 1
 -47.9541 -259.872 -18.4709 -309 46 -309 c 1
 90.3473 -302.843 118 -260.938 118 -213 c 1
EndSplineSet
EndChar

StartChar: p
Encoding: 112 112 60
Width: 750
Flags: HW
LayerCount: 2
Fore
SplineSet
472 561 m 0
 472 609.985 530.305 675 582 675 c 0
 590 675 600.5 669.833 613.5 659.5 c 128
 664.965 618.592 717 523.226 717 455 c 0
 717 391 691 312 639 218 c 1
 591 136.667 549.333 84 514 60 c 0
 503.333 52 489.333 44 472 36 c 1
 416 16 l 1
 356 4 l 1
 294 0 l 1
 213.707 34.4114 178 108.641 178 231 c 2
 178 380 l 1
 182 414 l 1
 183 443 l 1
 183 482.423 177.37 516.735 156 532 c 1
 64 561 l 1
 36.6667 577 23 598.667 23 626 c 0
 23 646 42.3333 664 81 680 c 1
 138 695 l 1
 150.691 691.539 155.147 690.587 167 682 c 2
 208 653 l 1
 255.442 621.819 275.061 596.219 297 540 c 1
 306 520 l 2
 308 516 309 504.667 309 486 c 0
 308.359 370.974 307.695 255.971 307 141 c 0
 307 113.554 350.583 90 382 90 c 0
 420.667 90 466.333 123.667 519 191 c 0
 577.667 265.667 607 344 607 426 c 0
 607 442.667 584.5 458.333 539.5 473 c 128
 494.5 487.667 472 517 472 561 c 0
EndSplineSet
EndChar

StartChar: q
Encoding: 113 113 61
Width: 15
Flags: HW
LayerCount: 2
Fore
SplineSet
-214 1131 m 0
 -138.101 1131 -12 1091.75 -12 1015 c 0
 -12 997 -20.3333 981.667 -37 969 c 0
 -45.6667 963.667 -56.3333 960 -69 958 c 1
 -126 987 l 1
 -153.641 999.093 -192.981 1018 -233 1018 c 0
 -304.996 1018 -446 961.259 -446 895 c 0
 -446 887.667 -426.667 858.667 -388 808 c 0
 -369.333 783.333 -360 760.333 -360 739 c 0
 -360 717.857 -376.904 714 -404 714 c 0
 -427.333 714 -455 736.333 -487 781 c 1
 -510.333 816.333 -522 857.667 -522 905 c 0
 -522 953.667 -494.333 1001.67 -439 1049 c 0
 -374.333 1103.67 -299.333 1131 -214 1131 c 0
EndSplineSet
EndChar

StartChar: r
Encoding: 114 114 62
Width: 1099
Flags: HW
LayerCount: 2
Fore
SplineSet
266 0 m 0
 143.475 0 65 73.2464 65 198 c 0
 65 228 91.8334 272.667 145.5 332 c 128
 209.705 402.985 249.82 432.712 327 437 c 1
 354 436 l 1
 374 432 l 1
 391 431 l 1
 405 433 l 1
 421.279 440.235 429.878 443.885 443 457 c 1
 457 475 l 2
 461 479.667 467.333 497.333 476 528 c 0
 506 635.333 549 721 605 785 c 0
 673 861 760 899 866 899 c 0
 905.333 899 948.5 877.833 995.5 835.5 c 128
 1042.5 793.167 1066 751 1066 709 c 0
 1066 627.604 988.269 557 905 557 c 0
 867 557 838.333 564 819 578 c 1
 808 595 l 1
 804 627 l 1
 804 675.768 815.508 698.394 849 717 c 0
 855 721 865.667 723 881 723 c 0
 898.333 723 917.667 719 939 711 c 1
 953.667 711 961 719.333 961 736 c 0
 961 795.95 862.94 813 796 813 c 0
 755.339 813 702.526 728.118 678 676 c 1
 643 595 l 1
 626.333 550.333 617 522.667 615 512 c 1
 615 478 643 453 699 437 c 0
 781.667 413.667 826 400 832 396 c 0
 879.333 366.667 918.5 332.167 949.5 292.5 c 128
 980.5 252.833 996 218 996 188 c 0
 996 138 972 93.3333 924 54 c 1
 883.333 22.6667 847.333 7 816 7 c 0
 750 7 694.667 24.3333 650 59 c 1
 542 174 l 1
 487.333 129.333 435.666 89.1667 387 53.5 c 128
 338.333 17.8333 298 0 266 0 c 0
848 99 m 0
 881.7 99 915 123.384 915 157 c 0
 915 196.333 874 236 792 276 c 0
 761.99 291.005 694.667 322 657 322 c 0
 632.522 322 605 303.047 605 278 c 1
 610.862 213.514 661.889 169.718 714 142 c 0
 769.333 113.333 814 99 848 99 c 0
158 164 m 0
 158 125.082 188.878 99 229 99 c 0
 268.333 99 308.667 122.167 350 168.5 c 128
 391.333 214.833 412 255 412 289 c 0
 412 316.608 383.989 330 356 330 c 0
 301.769 330 248.567 290.814 217 261 c 0
 177.667 223 158 190.667 158 164 c 0
EndSplineSet
EndChar

StartChar: s
Encoding: 115 115 63
Width: 1059
Flags: HW
LayerCount: 2
Fore
SplineSet
992 782 m 2
 1029.75 782 1041 757.082 1041 716 c 0
 1041 639.333 1019.67 556 977 466 c 0
 969.667 450.667 962.667 435.667 956 421 c 0
 927.128 365.182 889.895 302.885 850 255 c 1
 783 169 l 2
 761 141 745.667 125 737 121 c 128
 728.333 117 724 110.667 724 102 c 0
 724.667 88 725.333 74 726 60 c 0
 726 18.6667 706.333 -2 667 -2 c 0
 639.664 -2 622.331 20.3333 615 65 c 1
 603 342 l 1
 599.667 361.333 587.667 371 567 371 c 0
 560.333 371 544.333 360.333 519 339 c 0
 454.296 281.704 390.931 223.069 328 164 c 0
 277.333 117.333 246.333 93 235 91 c 1
 189.196 91 188 155.292 188 203 c 2
 189 307 l 1
 190 430 l 2
 190 499.997 154.635 515.874 96 538 c 1
 32 559.333 0 578 0 594 c 0
 0 640.19 46.5839 680 93 680 c 0
 123 680 154 670.333 186 651 c 0
 210.667 637 233.333 619 254 597 c 1
 261.333 586.333 267.333 574.667 272 562 c 2
 280 540 l 1
 301.372 499.037 301 438.909 301 380 c 0
 301 372 301 364 301 356 c 2
 300 321 l 2
 300 306.667 300 292.333 300 278 c 1
 316.667 285.334 346.667 310.667 390 354 c 1
 540 511 l 1
 588.667 557.667 624 581 646 581 c 0
 669.581 581 712.694 549.44 721 519 c 1
 725 495 l 1
 722 373 l 1
 718 273 l 1
 719 246 l 1
 721.667 245.333 723.667 245 725 245 c 0
 766.333 265.667 825 362 901 534 c 0
 911 555.333 921 606.333 931 687 c 0
 938.333 747 948 778 960 780 c 2
 984 782 l 1
 992 782 l 2
EndSplineSet
EndChar

StartChar: t
Encoding: 116 116 64
Width: 1000
Flags: HW
LayerCount: 2
Fore
SplineSet
20 252 m 1
 20 300.263 29.9495 364.498 43 408 c 0
 43 408.667 45.8333 416.833 51.5 432.5 c 128
 94.8381 552.317 201.252 667.674 331 694 c 1
 341 695 l 2
 349.667 695 357 693.667 363 691 c 1
 369 689.667 379.667 683.667 395 673 c 1
 420 649 l 1
 445 622 l 1
 453 607 l 1
 463 584 l 1
 470 562 l 1
 484 506 l 1
 495 451 l 1
 510 338 l 1
 521.333 340 545 370.333 581 429 c 1
 672 592 l 1
 708 650 741.667 682 773 688 c 1
 798.333 652.667 816.333 608 827 554 c 1
 833 505 l 1
 836 455 l 1
 836 447 l 1
 842.667 408.333 856 356.333 876 291 c 2
 902 208 l 1
 920.44 156.773 938.78 105.447 957 54 c 1
 948 26 l 2
 945.096 14.3821 939.901 3.90154 934 -2 c 1
 913 -4 l 1
 870.333 -4 837 26.6667 813 88 c 0
 805.666 109.333 793.333 165.333 776 256 c 2
 770 289 l 1
 762.671 318.004 756.525 348.192 750 378 c 1
 750 387 l 1
 751 401 l 1
 748 436 l 1
 746 445.335 742 453.668 736 461 c 1
 686.15 370.517 638.611 277.722 593 183 c 2
 542 79 l 1
 511 21 l 1
 493 39 481 63 475 93 c 1
 469 135 459.333 169.667 446 197 c 1
 408 150 l 2
 366.888 99.6378 287.771 14.2548 226 0 c 1
 192 -3 l 1
 118.738 -3 75.529 45.9419 47 103 c 1
 40.3333 119.667 33.6667 143 27 173 c 1
 22 209 l 1
 20 252 l 1
391 476 m 1
 382.304 513.685 339.467 561 298 561 c 0
 267.333 561 231 537 189 489 c 1
 141.667 432.333 118 371 118 305 c 1
 119 284 l 2
 119 274.667 120.333 265.667 123 257 c 2
 135 194 l 1
 146.203 161.139 171.567 143.453 213 140 c 1
 235 140 260 152 288 176 c 1
 331 222 l 1
 347 236 362 283 376 363 c 1
 391 476 l 1
EndSplineSet
EndChar

StartChar: u
Encoding: 117 117 65
Width: 32
Flags: HW
LayerCount: 2
Fore
SplineSet
181 -280 m 0
 197.168 -280 194.891 -292.687 196 -306 c 1
 196 -318.667 171 -339 121 -367 c 0
 93 -381.667 73.3333 -390.667 62 -394 c 2
 29 -404 l 1
 6 -410 l 1
 -12 -414 l 1
 -24 -413 l 1
 -33 -412 l 1
 -56 -405 l 1
 -76 -401 -89 -396.333 -95 -391 c 1
 -103 -387 -114.333 -378.667 -129 -366 c 1
 -149 -346 -165 -320.667 -177 -290 c 1
 -185 -257 l 1
 -188 -215 l 1
 -188 -189.667 -185.667 -164 -181 -138 c 2
 -174 -103 l 1
 -174 -73 -158.333 -58 -127 -58 c 0
 -97 -58 -82 -72.6667 -82 -102 c 2
 -82 -122 l 1
 -83 -150 l 1
 -82 -187 l 2
 -82 -202.333 -80.6667 -214.333 -78 -223 c 2
 -71 -258 l 2
 -69 -270 -66 -278 -62 -282 c 2
 -48 -297 l 1
 -38 -305 l 1
 -15 -310 l 1
 15 -313 l 1
 34 -311 l 1
 81 -297 l 1
 108.387 -290.914 143.072 -280 173 -280 c 128
 179 -280 179 -280 181 -280 c 0
EndSplineSet
EndChar

StartChar: v
Encoding: 118 118 66
Width: 1100
Flags: HW
LayerCount: 2
Fore
SplineSet
820 640 m 1
 941.847 622.426 1068 531.5 1068 399 c 0
 1068 334.333 1036.33 261.333 973 180 c 0
 916.333 106 862 59.3333 810 40 c 1
 771 35 l 1
 690 30 l 1
 651.333 30 621.333 42.6667 600 68 c 1
 541 147 l 1
 460 52 l 1
 433.333 30.6667 390 20 330 20 c 0
 242 20 182.667 57.6667 152 133 c 0
 130 189 119 293.667 119 447 c 0
 119 503.323 66.2022 531 4 531 c 1
 -9 572 l 1
 -14 606 l 1
 -14 668.22 37.4052 653.005 93 630 c 1
 225 572 l 1
 275.267 599.326 298.893 623.078 370 633 c 1
 401 630 l 1
 414.626 627.275 423.065 624.468 434 619 c 2
 505 588 l 1
 529 596 542.333 614.667 545 644 c 1
 545 672.667 556 687 578 687 c 0
 598 687 612.333 674.667 621 650 c 0
 633 611.333 647.333 581.667 664 561 c 1
 688.987 595.357 757.683 640 820 640 c 1
956 329 m 0
 956 438.857 917.949 510 812 510 c 0
 751.248 510 673.507 476.567 650 440 c 0
 643.353 429.661 636.449 396.59 633 369 c 1
 633 357 l 2
 633 343.145 643.378 256.622 650 250 c 1
 658.279 193.424 688.207 169.243 740 155 c 1
 772 151 l 1
 830 151 869.513 191.257 900 227 c 1
 937.333 273.667 956 307.667 956 329 c 0
429 481 m 0
 298.724 481 225 458.814 225 344 c 0
 225 258 227.667 206 233 188 c 0
 241 156 273 136.333 329 129 c 1
 350 130 l 1
 414.343 140.724 458.495 158.07 489 205 c 128
 515 245 528 305 528 385 c 0
 528 445.382 489.992 481 429 481 c 0
EndSplineSet
EndChar

StartChar: w
Encoding: 119 119 67
Width: 724
Flags: HW
LayerCount: 2
Fore
SplineSet
292 540 m 0
 395.576 540 462 388.701 462 276 c 0
 462 112.02 415.587 -2 263 -2 c 0
 137.553 -2 85 127.249 85 265 c 0
 85 333 106.833 395.833 150.5 453.5 c 128
 194.167 511.167 241.333 540 292 540 c 0
264 104 m 1
 325.487 111.32 367 192.956 367 265 c 0
 367 365.914 362.251 426 282 426 c 0
 227.688 426 200 318.424 200 258 c 0
 200 206.671 215.121 104 264 104 c 1
413 1103 m 0
 488.899 1103 615 1063.75 615 987 c 0
 615 969 606.667 953.667 590 941 c 0
 581.333 935.667 570.667 932 558 930 c 1
 501 959 l 1
 473.359 971.093 434.018 990 394 990 c 0
 322.763 990 181 932.845 181 867 c 0
 181 859.667 200.333 830.667 239 780 c 0
 257.667 755.333 267 732.333 267 711 c 0
 267 690.022 248.616 686 223 686 c 0
 199.667 686 172 708.333 140 753 c 1
 116.667 788.333 105 829.667 105 877 c 0
 105 925.667 132.667 973.667 188 1021 c 0
 252.667 1075.67 327.667 1103 413 1103 c 0
EndSplineSet
EndChar

StartChar: x
Encoding: 120 120 68
Width: 977
Flags: HW
LayerCount: 2
Fore
SplineSet
668 625 m 0
 822.82 625 934 507.293 934 352 c 0
 934 296 906 234 850 166 c 0
 786 88.6667 714.333 50 635 50 c 0
 570.625 50 525 129.67 525 197 c 0
 525 227.2 559.815 259.802 587 263 c 1
 605.667 263 624.667 256.333 644 243 c 1
 701 197 l 1
 746.333 197 784.333 216.333 815 255 c 0
 838.333 284.333 850 310 850 332 c 1
 851 345 l 1
 851 432.677 766.305 514 676 514 c 0
 535.039 514 431.978 391.89 369 295 c 1
 291 171 l 1
 251 74 l 2
 231 25.3333 207 -5 179 -17 c 1
 167.667 -0.333334 158.667 16 152 32 c 1
 145 75 l 1
 163 221 l 1
 168.585 276.849 171 321.708 171 384 c 0
 171 490.667 144.667 544 92 544 c 0
 40.6667 544 15 565 15 607 c 0
 15 634.333 26.3333 657.333 49 676 c 1
 66.3333 692 80.3333 700 91 700 c 0
 170.836 700 243.607 610.912 259 536 c 1
 265 492 l 1
 268 454 l 1
 270 400 l 1
 270 374 l 2
 270 341.02 268.976 333.062 295 330 c 1
 350 406 l 2
 417.345 499.095 533.232 625 668 625 c 0
EndSplineSet
EndChar

StartChar: y
Encoding: 121 121 69
Width: 1061
Flags: HW
LayerCount: 2
Fore
SplineSet
803 569.5 m 128
 803 625.685 854.776 669 908 669 c 0
 950.669 669 986.335 643.667 1015 593 c 1
 1028 562 l 1
 1044 516 l 1
 1044 500 l 1
 1045 473 l 1
 1045 413.667 1042.33 368 1037 336 c 1
 1029 274 1015.33 230 996 204 c 1
 973.333 169.333 935.333 129.667 882 85 c 0
 820.667 35 770.667 10 732 10 c 0
 662 10 621 38.3333 609 95 c 128
 597 151.667 585 180 573 180 c 1
 534.821 110.584 474.306 53.3092 381 26 c 1
 355 23 l 1
 268.319 23 171 109.591 171 198 c 1
 199 358 l 1
 199 430.667 188 479 166 503 c 0
 152.667 517 129 524 95 524 c 2
 81 524 l 2
 36.0775 524 24 541.313 24 590 c 0
 24 616.572 44.0928 661 71 661 c 0
 179.165 661 289 607.311 289 511 c 1
 296 225 l 2
 296 197 310 172 338 150 c 1
 381 126 l 1
 445.747 180.99 488.084 237.423 506 327 c 1
 520 411 l 1
 528 501.667 534 557.333 538 578 c 1
 548 657 l 1
 553.333 679 567.333 690 590 690 c 0
 658.363 690 668 589.435 668 502 c 1
 659.414 455.586 650.75 409.25 642 363 c 1
 642 343 642 343 642 328 c 128
 642 318 643.333 304.667 646 288 c 1
 648 267.333 653.333 246 662 224 c 1
 682 165.333 713.333 136 756 136 c 0
 788 136 828 160 876 208 c 0
 943.204 275.204 960 301.817 960 397 c 0
 960 433 953.667 456 941 466 c 1
 906 477 l 1
 874 491 l 2
 830 511 806.333 531 803 551 c 1
 803 562 803 562 803 569.5 c 128
EndSplineSet
EndChar

StartChar: z
Encoding: 122 122 70
Width: 1151
Flags: HW
LayerCount: 2
Fore
SplineSet
443 514 m 0
 396.988 514 352 561.833 352 609 c 0
 352 651.667 384.667 673 450 673 c 0
 510.667 673 571.667 690 633 724 c 0
 656.333 736.667 691.667 767.667 739 817 c 1
 894 988 l 1
 932 988 l 1
 935 963 l 1
 941 936 l 1
 927.428 897.998 853.811 789.697 831 761 c 0
 787.387 707.574 696.14 623.883 628 575 c 1
 607.333 563.667 573 549.667 525 533 c 1
 483.667 520.333 456.333 514 443 514 c 0
1043 380 m 0
 1043 357.146 998 123.652 998 103 c 0
 998 72.3333 1018 44.6667 1058 20 c 128
 1098 -4.66667 1118 -32 1118 -62 c 0
 1118 -81.6725 1087.19 -151.601 1069 -153 c 1
 1025 -153 982.333 -138 941 -108 c 1
 897.667 -74 876 -31 876 21 c 1
 907 354 l 1
 907 384 890 408 856 426 c 0
 847.333 430 787 447 675 477 c 1
 672 485 l 1
 666 496 l 1
 666 514 684.667 534.333 722 557 c 0
 751.333 574.333 784.667 583 822 583 c 0
 933.151 583 1043 491.863 1043 380 c 0
521 351 m 256
 521 381.405 541.923 404 574 404 c 0
 581.333 404 609 396 657 380 c 128
 705 364 733 352.667 741 346 c 1
 773.369 327.503 793 285.784 793 239 c 0
 793 202.333 771.667 144.5 729 65.5 c 128
 686.333 -13.5 655 -53 635 -53 c 1
 613.906 -49.2775 585 -25.6008 585 -1 c 1
 614.615 44.9545 659 126.816 659 194 c 0
 659 206 648 221.667 626 241 c 1
 533 312 l 1
 525 324 521 337 521 351 c 256
202 378 m 1
 222.295 403.127 320.456 449 364 449 c 0
 379.334 449 401.667 427.333 431 384 c 0
 463 336.667 479 295 479 259 c 0
 479 111.137 373.306 28.8164 245 -9 c 1
 202.333 -19.6667 175 -25 163 -25 c 0
 149 -25 135 -22 121 -16 c 1
 106.333 -8 96 3 90 17 c 1
 88 25 107.667 39.3333 149 60 c 1
 203 85.3333 243.667 108.333 271 129 c 0
 315.667 164.333 338 204.667 338 250 c 0
 338 275.333 313.667 302 265 330 c 1
 235 346 214 362 202 378 c 1
EndSplineSet
EndChar

StartChar: braceleft
Encoding: 123 123 71
Width: 983
Flags: HW
LayerCount: 2
Fore
SplineSet
841 1387 m 1
 717.611 1358.53 615 1287.34 615 1156 c 0
 615 1113.33 622.333 1060.33 637 997 c 1
 654 910 l 1
 658 882.667 660 858 660 836 c 0
 660 768.666 635.333 703.333 586 640 c 128
 536.666 576.667 463 527.667 365 493 c 1
 460.334 459 533.334 409.167 584 343.5 c 128
 634.667 277.833 660 211.667 660 145 c 1
 659 108 l 1
 658 87 l 2
 658 79 656.667 70.6667 654 62 c 1
 654 51.3333 652.333 40 649 28 c 2
 637 -19 l 1
 622.333 -95.6666 615 -147.667 615 -175 c 0
 615 -223 632.833 -268 668.5 -310 c 128
 704.167 -352 761.667 -384.333 841 -407 c 1
 841 -442 l 1
 733 -428 643.333 -382.833 572 -306.5 c 128
 500.667 -230.167 465 -147 465 -57 c 1
 466 -18 l 1
 467 2 l 2
 467 11.3333 468.333 20.3333 471 29 c 1
 471 39.6667 472.667 51 476 63 c 2
 488 110 l 1
 504 194 l 1
 511 259 l 1
 511 377.583 399.08 449.271 283 470 c 1
 283 511 l 1
 396.502 524.224 511 606.777 511 722 c 1
 510 752 l 2
 510 765.146 508.319 779.936 505 791 c 1
 499 824 l 1
 496.726 842.19 494.437 849.615 488 870 c 1
 472.667 937.333 465 993.333 465 1038 c 0
 465 1128.67 499.833 1211.67 569.5 1287 c 128
 639.167 1362.33 729.667 1407.33 841 1422 c 1
 841 1387 l 1
EndSplineSet
EndChar

StartChar: bar
Encoding: 124 124 72
Width: 410
Flags: HW
LayerCount: 2
Fore
SplineSet
244 1422 m 1
 244 -442 l 1
 161 -442 l 1
 161 1422 l 1
 244 1422 l 1
EndSplineSet
EndChar

StartChar: braceright
Encoding: 125 125 73
Width: 983
Flags: HW
LayerCount: 2
Fore
SplineSet
507 722 m 0
 507 601.273 617.68 530.198 735 511 c 1
 735 470 l 1
 616.209 457.272 507 377.373 507 259 c 1
 508 229 l 1
 511 195 l 1
 518 158 l 1
 522 139 l 1
 529 114 l 1
 542.608 58.4347 553 4.54139 553 -57 c 0
 553 -147 519 -229.167 451 -303.5 c 128
 383 -377.833 291.667 -424 177 -442 c 1
 177 -407 l 1
 255.667 -389 313 -358.5 349 -315.5 c 128
 385 -272.5 403 -225.667 403 -175 c 0
 403 -110.327 397.077 -79.9903 380 -19 c 1
 363 68 l 1
 359 96 357 121.333 357 144 c 0
 357 212 381.833 277.667 431.5 341 c 128
 481.167 404.333 555 453.333 653 488 c 1
 557.667 522 484.333 571.667 433 637 c 1
 408.333 670.333 389.333 703.333 376 736 c 1
 364.851 766.97 357 796.266 357 836 c 1
 358 872 l 1
 359 892 l 2
 359 900.674 360.333 909.34 363 918 c 1
 363 928.667 364.667 940 368 952 c 2
 380 1000 l 1
 395.333 1068.67 403 1120.67 403 1156 c 0
 403 1206 385 1252 349 1294 c 128
 313 1336 255.667 1367 177 1387 c 1
 177 1422 l 1
 287 1408 377.167 1363.83 447.5 1289.5 c 128
 517.833 1215.17 553 1131 553 1037 c 1
 552 998 l 1
 551 976 l 2
 551 967.333 549.667 958 547 948 c 1
 543.422 917.59 540.299 902.221 531 872 c 1
 518.342 823.479 507 773.525 507 722 c 0
EndSplineSet
EndChar

StartChar: asciitilde
Encoding: 126 126 74
Width: 1108
Flags: HW
LayerCount: 2
Fore
SplineSet
880 489 m 0
 991.179 489 1055.25 567.518 1066 675 c 1
 1111 675 l 1
 1111 522.354 1014.37 398 866 398 c 0
 838.667 398 805.167 403.167 765.5 413.5 c 128
 725.833 423.833 635 459 493 519 c 1
 386.333 561.667 313.333 583 274 583 c 0
 160.099 583 110.837 507.661 88 400 c 1
 44 400 l 1
 44 491.235 70.6131 558.613 118 606 c 1
 163.333 654 216.667 678 278 678 c 1
 322 675 l 2
 328.667 675 335.667 673.667 343 671 c 2
 368 664 l 2
 439.333 644 531 609.833 643 561.5 c 128
 755 513.166 834 488.999 880 489 c 0
EndSplineSet
EndChar

StartChar: florin
Encoding: 402 402 76
Width: 1024
Flags: HW
LayerCount: 2
Fore
SplineSet
931 1198 m 256
 897.078 1198 868 1222.59 868 1254 c 0
 868 1264 871 1275 877 1287 c 2
 890 1315 l 1
 890 1318.37 887 1324.71 881 1334 c 1
 874.333 1338 865.667 1340.33 855 1341 c 0
 837.664 1341 818.33 1333 797 1317 c 1
 777.664 1298.33 762.33 1270.33 751 1233 c 1
 737 1171 715.667 1051.67 687 875 c 1
 865 875 l 1
 848 809 l 1
 674 809 l 1
 628.198 564.721 568.581 336.136 502 101 c 1
 440 -122.333 371.667 -272 297 -348 c 1
 240.333 -403.333 182.667 -431 124 -431 c 0
 58.536 -431 2 -388.307 2 -326 c 0
 2 -282.907 34.5557 -237 79 -237 c 0
 105.807 -237 144 -266.244 144 -293 c 0
 144 -307 139.333 -319.667 130 -331 c 1
 120 -350 l 1
 126.922 -361.866 126.855 -366.161 145 -371 c 1
 158.333 -371 170.667 -367.667 182 -361 c 0
 200.667 -350.333 219.334 -330.167 238 -300.5 c 128
 256.667 -270.833 277.667 -210.667 301 -120 c 1
 387 295 l 1
 510 809 l 1
 333 809 l 1
 348 875 l 1
 359 875 l 2
 388.333 875 411.5 876.167 428.5 878.5 c 128
 469.087 884.071 493.83 893.357 515 922 c 0
 532.333 944.669 552.333 989.335 575 1056 c 0
 623 1196.67 669.667 1287 715 1327 c 128
 760.333 1367 809.333 1387 862 1387 c 0
 931.003 1387 999 1341.12 999 1275 c 0
 999 1232.37 971.545 1198 931 1198 c 256
EndSplineSet
EndChar

StartChar: quotedblbase
Encoding: 8222 8222 77
Width: 909
Flags: HW
LayerCount: 2
Fore
SplineSet
67 80 m 0
 67 147.812 129.587 200 199 200 c 0
 240.333 200 279.5 180.667 316.5 142 c 128
 353.5 103.333 372 55.6667 372 -1 c 0
 372 -166.441 255.022 -275.348 115 -316 c 1
 115 -274 l 1
 182.333 -236 226.5 -201 247.5 -169 c 128
 268.5 -137 279 -101.667 279 -63 c 0
 279 -32.4594 269.972 -11.6822 245 -7 c 1
 232 -8 l 1
 213 -15 l 1
 192 -21 l 1
 169 -23 l 1
 112.939 -23 67 23.6466 67 80 c 0
675 200 m 0
 772.365 200 851 100.548 851 -2 c 0
 851 -166.653 730.424 -267.019 592 -316 c 1
 592 -274 l 1
 647.333 -246 688.5 -214.333 715.5 -179 c 128
 742.5 -143.667 756 -107 756 -69 c 0
 756 -33.4627 747.942 -13.8405 724 -7 c 1
 708 -8 l 1
 684 -16 l 1
 649 -23 l 1
 596.439 -23 547 25.8093 547 82 c 0
 547 144.781 608.729 200 675 200 c 0
EndSplineSet
EndChar

StartChar: ellipsis
Encoding: 8230 8230 78
Width: 2048
Flags: HW
LayerCount: 2
Fore
SplineSet
230 83 m 256
 230 142.453 281.549 194 341 194 c 256
 400.987 194 452 143.303 452 83 c 0
 452 27.2021 398.641 -28 341 -28 c 0
 275.275 -28 230 22.04 230 83 c 256
913 83 m 256
 913 142.453 964.549 194 1024 194 c 256
 1083.99 194 1135 143.303 1135 83 c 0
 1135 27.2021 1081.64 -28 1024 -28 c 0
 958.276 -28 913 22.04 913 83 c 256
1596 83 m 0
 1596 145.224 1644.78 194 1707 194 c 0
 1766.99 194 1818 143.303 1818 83 c 0
 1818 27.2021 1764.63 -28 1707 -28 c 0
 1641.26 -28 1596 22.04 1596 83 c 0
EndSplineSet
EndChar

StartChar: dagger
Encoding: 8224 8224 79
Width: 1024
Flags: HW
LayerCount: 2
Fore
SplineSet
816 1010 m 0
 876.989 1010 923 971.55 923 912 c 0
 923 890 913 867.333 893 844 c 1
 872.333 825.333 848 816 820 816 c 0
 779.333 816 724.333 831.667 655 863 c 1
 632.351 871.684 609.271 879.938 586 888 c 1
 524 896 l 1
 524 864.667 526.333 837.667 531 815 c 2
 538 785 l 2
 549.578 732.901 580.414 697.557 624 659 c 1
 595.333 545.666 573 424.333 557 295 c 1
 544 137 l 1
 530 -128 l 1
 528.089 -225.755 526.1 -323.433 524 -421 c 1
 487 -421 l 1
 486.364 -367.97 485.701 -314.966 485 -262 c 2
 479 -31 l 1
 479 33 l 1
 477.667 42.3333 477 48.6667 477 52 c 0
 477 68 475 94 471 130 c 1
 471 149.333 469 176 465 210 c 2
 455 281 l 1
 441 413 418 539 386 659 c 1
 416.667 684.333 441 715.333 459 752 c 1
 465.794 772.872 472.457 793.876 479 815 c 1
 485 853 l 1
 487 896 l 1
 435.037 896 392.821 880.483 355 861 c 1
 284.333 831.667 233.333 817 202 817 c 0
 148.126 817 101 856.326 101 912 c 0
 101 965.559 149.282 1011 204 1011 c 0
 216.667 1011 232 1009 250 1005 c 1
 286.265 991.598 320.139 975.806 355 961 c 1
 419 939 l 1
 452 933 l 1
 487 931 l 1
 487 958.333 484.667 979 480 993 c 1
 478 1005.67 468 1034.33 450 1079 c 0
 414 1164.33 396 1229 396 1273 c 0
 396 1338.22 444.213 1403 508 1403 c 0
 569.965 1403 617 1337.66 617 1273 c 1
 616 1242 l 2
 616 1236 613.667 1226.33 609 1213 c 1
 603 1182.33 587.667 1140.33 563 1087 c 1
 548 1048 l 1
 534 1003 l 1
 528.055 973.273 524 956.494 524 931 c 1
 571.333 935 615.333 945 656 961 c 2
 772 1004 l 2
 785.333 1008 800 1010 816 1010 c 0
EndSplineSet
EndChar

StartChar: daggerdbl
Encoding: 8225 8225 80
Width: 1024
Flags: HW
LayerCount: 2
Fore
SplineSet
885 996 m 0
 885 946.664 842.7 907 791 907 c 0
 761 907 719 918 665 940 c 2
 594 968 l 1
 565 972 l 1
 530 976 l 1
 535.333 928.665 544 895.332 556 876 c 128
 568 856.665 590.667 833.332 624 806 c 1
 592 758 568 710 552 662 c 1
 537 584 l 1
 532 536 l 1
 530 484 l 1
 530 340.405 560.89 263.451 624 170 c 1
 562.707 120.444 542.91 93.2379 530 0 c 1
 561 5 l 1
 588 11 l 1
 658 38 l 1
 714.667 61.3333 759.334 73 792 73 c 0
 845.302 73 885 37.7644 885 -15 c 0
 885 -68.0207 846.02 -107 793 -107 c 0
 765.665 -107 723.332 -94.6667 666 -70 c 1
 629 -56 l 1
 595 -45 l 1
 567 -40 l 1
 530 -37 l 1
 542 -116 l 1
 548 -138 l 1
 564 -173 l 2
 597.333 -247.667 614 -302.333 614 -337 c 0
 614 -396.389 571.506 -442 513 -442 c 0
 457.519 -442 413 -392.713 413 -334 c 0
 413 -322.667 415 -306.167 419 -284.5 c 128
 423 -262.833 436.333 -224.667 459 -170 c 1
 471.667 -133.333 482 -89 490 -37 c 1
 451 -38 l 2
 428.63 -38 405.833 -45.5838 389 -54 c 1
 345 -73 l 1
 279 -98 l 1
 259.667 -104 244 -107 232 -107 c 0
 179.16 -107 141 -70.9179 141 -19 c 256
 141 33.3361 183.467 73 237 73 c 0
 263.667 73 301.333 62.3333 350 41 c 0
 382 27 407.333 18 426 14 c 1
 451 10 l 1
 490 7 l 1
 476.595 96.3695 455.742 120.857 394 170 c 1
 424 210 446 250 460 290 c 1
 472 333 l 1
 482 384 l 1
 489 438 l 1
 491 496 l 1
 491 578.667 480.333 647 459 701 c 1
 447 739.667 425.333 774.667 394 806 c 1
 459.193 854.895 473.357 880.301 490 976 c 1
 470.667 976 459.667 975.333 457 974 c 2
 431 968 l 2
 422.333 966.637 412.333 963.304 401 958 c 2
 345 936 l 2
 299 918 259.667 909 227 909 c 0
 176.646 909 139 946.647 139 997 c 0
 139 1042.88 177.922 1083 226 1083 c 0
 256 1083 299.667 1071.67 357 1049 c 0
 405.97 1029.22 419.628 1020.76 461 1018 c 1
 490 1014 l 1
 490 1034 l 2
 490 1043.33 489.333 1050 488 1054 c 1
 488 1059.33 486 1067 482 1077 c 1
 476 1103 461 1146 437 1206 c 2
 414 1266 l 1
 410 1311 l 1
 410 1373.57 450.505 1422 511 1422 c 0
 571.416 1422 608 1371.88 608 1307 c 2
 608 1280 l 1
 606.667 1275.33 606 1272.33 606 1271 c 0
 599.557 1240.93 592.434 1226.13 566 1165 c 1
 552 1129 l 1
 540 1088 l 1
 533 1052 l 1
 530 1014 l 1
 564 1015 l 1
 589 1020 l 1
 622 1030 l 1
 669 1050 l 2
 719 1072 761 1083 795 1083 c 0
 846.152 1083 885 1046.9 885 996 c 0
EndSplineSet
EndChar

StartChar: circumflex
Encoding: 710 710 81
Width: 682
Flags: HW
LayerCount: 2
Fore
SplineSet
249 1385 m 1
 433 1385 l 1
 623 1054 l 1
 592 1054 l 1
 319 1267 l 1
 90 1054 l 1
 60 1054 l 1
 249 1385 l 1
EndSplineSet
EndChar

StartChar: perthousand
Encoding: 8240 8240 82
Width: 2048
Flags: HW
LayerCount: 2
Fore
SplineSet
1220 1387 m 1
 248 -55 l 1
 159 -55 l 1
 1131 1387 l 1
 1220 1387 l 1
353 1387 m 1
 538.758 1387 643 1214.31 643 1021 c 0
 643 909 614.667 820.667 558 756 c 128
 501.333 691.333 434.333 659 357 659 c 0
 235.046 659 147.804 734.862 104.5 827.5 c 128
 78.1667 883.833 65 948.667 65 1022 c 0
 65 1162.44 125.234 1285.8 210 1344 c 1
 242 1361 l 1
 276 1375 l 1
 288.667 1379 301.333 1382 314 1384 c 1
 353 1387 l 1
349 1334 m 0
 288.3 1334 264.228 1285.09 248 1231 c 1
 233 1141 l 1
 228 1082 l 1
 226 1017 l 1
 226 892.333 241.667 806.333 273 759 c 0
 295 725.667 322.333 709 355 709 c 0
 385 709 411.333 726.333 434 761 c 1
 466.667 817 483 906.667 483 1030 c 0
 483 1148 467 1232 435 1282 c 0
 411.667 1316.67 383 1334 349 1334 c 0
1029 673 m 0
 1151.81 673 1229.26 594.87 1274 499 c 128
 1302 439 1316 376.667 1316 312 c 0
 1316 136.319 1232.1 -0.21411 1098.5 -43.5 c 128
 1074.83 -51.1667 1050.66 -55 1026 -55 c 0
 950.666 -55 883.832 -22.5 825.5 42.5 c 128
 767.167 107.5 738 196 738 308 c 0
 738 450.415 797.435 574.937 889 629.5 c 128
 937.667 658.5 984.334 673 1029 673 c 0
1025 620 m 0
 1004.33 620 986.333 613.667 971 601 c 0
 909.724 551.214 898 422.638 898 300 c 0
 898 180 913.333 96.3333 944 49 c 0
 965.333 16.3333 992 0 1024 0 c 256
 1056 0 1083.33 16.6667 1106 50 c 1
 1138.67 104 1155 188.333 1155 303 c 0
 1155 428.333 1138.33 517 1105 569 c 0
 1083.67 603 1057 620 1025 620 c 0
1691 673 m 0
 1804.99 673 1898.87 592.386 1941 505.5 c 128
 1967.67 450.5 1981 388.667 1981 320 c 0
 1981 163.906 1931.39 55.8256 1836.5 -7 c 128
 1788.17 -39 1740.33 -55 1693 -55 c 256
 1575.76 -55 1487.78 27.1282 1445.5 116.5 c 128
 1419.17 172.167 1406 233.667 1406 301 c 0
 1406 375.722 1419.46 453.626 1444 504 c 1
 1468 560 1504.67 602.167 1554 630.5 c 128
 1603.33 658.833 1649 673 1691 673 c 0
1691 620 m 256
 1659 620 1632.33 604.333 1611 573 c 1
 1581 525 1566 435.333 1566 304 c 0
 1566 182 1581.33 97.3333 1612 50 c 0
 1634 16.6667 1661.67 1.90735e-06 1695 0 c 0
 1715 0 1732.67 6.33333 1748 19 c 0
 1768 37 1785.17 69 1799.5 115 c 128
 1813.83 161 1821 232.333 1821 329 c 0
 1821 443.667 1805.33 523.667 1774 569 c 0
 1750.67 603 1723 620 1691 620 c 256
EndSplineSet
EndChar

StartChar: guilsinglleft
Encoding: 8249 8249 84
Width: 682
Flags: HW
LayerCount: 2
Fore
SplineSet
563 -8 m 1
 506 -8 l 1
 119 464 l 1
 506 934 l 1
 563 934 l 1
 319 464 l 1
 563 -8 l 1
EndSplineSet
EndChar

StartChar: OE
Encoding: 338 338 85
Width: 1821
Flags: HW
LayerCount: 2
Fore
SplineSet
1104 225 m 2
 1104 106.835 1108.14 76 1224 76 c 2
 1328 76 l 2
 1408.67 76 1464.33 80.3333 1495 89 c 1
 1527.67 97 1560.67 116.667 1594 148 c 1
 1644 192 1687 256 1723 340 c 1
 1763 340 l 1
 1655 0 l 1
 1170 0 l 1
 999 -1 l 1
 832 -10 l 1
 687 -16 l 1
 427.298 -16 252.047 129.64 158 320 c 128
 102.667 432 75 550.667 75 676 c 0
 75 844 122 995.667 216 1131 c 1
 328 1289 492.333 1368 709 1368 c 1
 903 1361 l 1
 991.998 1359.33 1080.99 1357.66 1170 1356 c 1
 1643 1356 l 1
 1655 1058 l 1
 1623 1058 l 1
 1607 1136 1592.67 1185.67 1580 1207 c 0
 1565.33 1229.67 1539.66 1250.33 1503 1269 c 1
 1472.33 1277.67 1424.66 1282 1360 1282 c 2
 1104 1282 l 1
 1104 747 l 1
 1287 747 l 2
 1431.19 747 1497 797.842 1497 943 c 1
 1536 943 l 1
 1536 471 l 1
 1497 471 l 1
 1494 526 l 1
 1492 544 1488.33 559.333 1483 572 c 1
 1459.03 649.898 1402.51 673 1287 673 c 2
 1104 673 l 1
 1104 225 l 2
912 1042 m 2
 912 1128 905.833 1184.67 893.5 1212 c 128
 881.163 1239.33 863.33 1260.33 840 1275 c 0
 806.665 1294.33 764.332 1304 713 1304 c 0
 513.781 1304 409.91 1176.17 355 1006.5 c 128
 321.667 903.5 305 790.667 305 668 c 0
 305 567.333 319 468.667 347 372 c 128
 395.288 205.29 508.922 55 709 55 c 0
 888.834 55 912 141.488 912 340 c 2
 912 1042 l 2
EndSplineSet
EndChar

StartChar: quoteleft
Encoding: 8216 8216 86
Width: 682
Flags: HW
LayerCount: 2
Fore
SplineSet
490 986 m 0
 490 911 426.781 869 359 869 c 0
 317.667 869 278.333 888.167 241 926.5 c 128
 203.667 964.833 185 1011.67 185 1067 c 0
 185 1145 214.333 1216.67 273 1282 c 1
 312.333 1324 369.333 1359 444 1387 c 1
 444 1344 l 1
 376 1304 329.667 1265.67 305 1229 c 0
 287 1203 278 1172.33 278 1137 c 0
 278 1099.72 289.615 1082.76 316 1075 c 1
 338.675 1077.27 368.608 1091 388 1091 c 0
 410 1091 433.667 1081 459 1061 c 1
 479.667 1040.33 490 1015.33 490 986 c 0
EndSplineSet
EndChar

StartChar: quoteright
Encoding: 8217 8217 87
Width: 682
Flags: HW
LayerCount: 2
Fore
SplineSet
324 1387 m 0
 420.06 1387 498 1291.14 498 1190 c 0
 498 1112 468.333 1040.33 409 975 c 0
 373.667 936.333 316.667 901 238 869 c 1
 238 916 l 1
 298.667 952 345.333 990 378 1030 c 1
 395.333 1055.34 404 1085.67 404 1121 c 0
 404 1152.51 391.538 1177.4 367 1182 c 1
 338.504 1182 322.531 1166 295 1166 c 0
 273 1166 249.333 1176 224 1196 c 1
 203.333 1216.67 193 1241.67 193 1271 c 0
 193 1345.13 256.826 1387 324 1387 c 0
EndSplineSet
EndChar

StartChar: quotedblleft
Encoding: 8220 8220 88
Width: 909
Flags: HW
LayerCount: 2
Fore
SplineSet
371 989 m 0
 371 924.045 310.143 872 242 872 c 0
 200 872 160.333 891.167 123 929.5 c 128
 35.8923 1018.94 59.1004 1161.57 132.5 1258.5 c 128
 176.167 1316.17 240.667 1359 326 1387 c 1
 326 1346 l 1
 268 1316 226.167 1284.17 200.5 1250.5 c 128
 174.833 1216.83 162 1180.33 162 1141 c 0
 162 1104.08 168.023 1084.2 194 1079 c 1
 212.353 1079 248.688 1094 269 1094 c 0
 323.036 1094 371 1044.53 371 989 c 0
851 992 m 0
 851 929.519 782.907 871 718 871 c 0
 677.333 871 638.5 890.167 601.5 928.5 c 128
 564.5 966.833 546 1014 546 1070 c 0
 546 1231.9 664.844 1343.11 803 1384 c 1
 803 1346 l 1
 735.665 1308 691.332 1273.5 670 1242.5 c 128
 648.667 1211.5 638 1175.33 638 1134 c 0
 638 1104.51 646.828 1082.72 672 1078 c 1
 690.117 1078 691.805 1079.4 705 1086 c 1
 726 1092 l 1
 749 1094 l 1
 800.051 1094 851 1045.2 851 992 c 0
EndSplineSet
EndChar

StartChar: bullet
Encoding: 8226 8226 90
Width: 717
Flags: HW
LayerCount: 2
Fore
SplineSet
112 677 m 0
 112 813.599 224.483 928 363 928 c 0
 501.61 928 614 816.25 614 677 c 0
 614 539.454 500.542 426 363 426 c 0
 228.435 426 112 543.386 112 677 c 0
EndSplineSet
EndChar

StartChar: endash
Encoding: 8211 8211 91
Width: 1024
Flags: HW
LayerCount: 2
Fore
SplineSet
1041 453 m 1
 -18 453 l 1
 -18 526 l 1
 1041 526 l 1
 1041 453 l 1
EndSplineSet
EndChar

StartChar: emdash
Encoding: 8212 8212 92
Width: 2048
Flags: HW
LayerCount: 2
Fore
SplineSet
2066 453 m 1
 -19 453 l 1
 -19 527 l 1
 2066 527 l 1
 2066 453 l 1
EndSplineSet
EndChar

StartChar: tilde
Encoding: 732 732 93
Width: 682
Flags: HW
LayerCount: 2
Fore
SplineSet
54 1097 m 1
 22 1097 l 1
 25 1160 l 1
 40.2313 1266.62 100.625 1356 210 1356 c 0
 239.333 1356 265.667 1351.33 289 1342 c 1
 311.667 1334.67 352 1312 410 1274 c 128
 468 1236 509.667 1217 535 1217 c 0
 552.333 1217 571 1226 591 1244 c 1
 607 1262 620 1299.33 630 1356 c 1
 661 1356 l 1
 661 1214.69 617.401 1138.51 519 1100 c 1
 500.333 1095.33 484.333 1093 471 1093 c 0
 418.333 1093 353 1119.67 275 1173 c 0
 224.693 1207.38 207.846 1217.26 176 1230 c 1
 147 1234 l 1
 123.667 1234 102 1222 82 1198 c 0
 76 1190.67 66.6667 1157 54 1097 c 1
EndSplineSet
EndChar

StartChar: trademark
Encoding: 8482 8482 94
Width: 2007
Flags: HW
LayerCount: 2
Fore
SplineSet
254 1296 m 2
 125.892 1296 85.487 1261.09 64 1155 c 1
 30 1155 l 1
 51 1356 l 1
 779 1356 l 1
 801 1155 l 1
 767 1155 l 1
 754.056 1258.55 695.462 1296 573 1296 c 2
 498 1296 l 1
 498 717 l 2
 498 613.135 511.257 585 604 585 c 1
 604 549 l 1
 230 549 l 1
 230 585 l 1
 318.163 593.966 330 609.857 330 716 c 2
 330 1296 l 1
 254 1296 l 2
983 1182 m 2
 983 1291.1 975.711 1319 870 1319 c 1
 870 1356 l 1
 1156 1356 l 1
 1429 784 l 1
 1694 1356 l 1
 1973 1356 l 1
 1973 1319 l 1
 1869.09 1319 1862 1292.59 1862 1184 c 2
 1862 716 l 2
 1862 608.311 1877.23 585 1973 585 c 1
 1973 549 l 1
 1575 549 l 1
 1575 585 l 1
 1677.55 585 1694 611.461 1694 715 c 2
 1694 1207 l 1
 1387 549 l 1
 1355 549 l 1
 1047 1198 l 1
 1047 716 l 2
 1047 669.333 1049.67 639.667 1055 627 c 1
 1060.33 617.662 1069.33 607.329 1082 596 c 1
 1094.67 588.667 1114 585 1140 585 c 2
 1176 585 l 1
 1176 549 l 1
 870 549 l 1
 870 585 l 1
 904 585 928.667 588 944 594 c 1
 954 599.333 963.667 609.667 973 625 c 1
 979.667 643 983 673.333 983 716 c 2
 983 1182 l 2
EndSplineSet
EndChar

StartChar: guilsinglright
Encoding: 8250 8250 96
Width: 682
Flags: HW
LayerCount: 2
Fore
SplineSet
115 934 m 1
 173 934 l 1
 567 462 l 1
 173 -8 l 1
 115 -8 l 1
 358 462 l 1
 115 934 l 1
EndSplineSet
EndChar

StartChar: oe
Encoding: 339 339 97
Width: 1479
Flags: HW
LayerCount: 2
Fore
SplineSet
802 785 m 1
 867.811 878.521 940.414 944 1085 944 c 0
 1179 944 1258.67 911 1324 845 c 1
 1376.99 786.712 1411 687.909 1411 573 c 1
 863 573 l 1
 861 535 l 1
 861 476.333 872 412.5 894 343.5 c 128
 929.591 231.874 1008.77 137 1139 137 c 0
 1191 137 1237.67 153.833 1279 187.5 c 128
 1320.33 221.167 1353.33 277 1378 355 c 1
 1411 338 l 1
 1387 213.333 1344.83 121.167 1284.5 61.5 c 128
 1224.17 1.83333 1153 -28 1071 -28 c 0
 937.443 -28 851.605 44.9508 802 133 c 1
 762 81 714.667 40.6667 660 12 c 1
 619 -5 l 1
 578 -17 l 1
 533 -25 l 1
 484 -28 l 1
 366.667 -28 267.833 14.8333 187.5 100.5 c 128
 107.167 186.167 67 300.333 67 443 c 0
 67 592.333 108 713 190 805 c 128
 272 897 372 943 490 943 c 0
 572.276 943 623.065 931.278 676 899 c 1
 728 871 770 833 802 785 c 1
453 888 m 0
 419.534 888 393.643 875.89 368 862 c 0
 338 845.333 312.333 815 291 771 c 1
 279.667 743.667 270.667 710 264 670 c 1
 257 608 l 1
 254 539 l 1
 254 370.333 288 235 356 133 c 1
 397.333 73 448.333 43 509 43 c 0
 568.333 43 617.5 67.6667 656.5 117 c 128
 695.5 166.333 715 253.333 715 378 c 0
 715 537.419 700.063 647.176 647 749 c 1
 603 841.667 538.333 888 453 888 c 0
863 638 m 1
 1214 638 l 1
 1214 680 1206 724.667 1190 772 c 1
 1169.24 827.373 1110.32 877 1039 877 c 0
 999 877 959.333 857 920 817 c 1
 883.895 776.883 863 714.617 863 638 c 1
EndSplineSet
EndChar

StartChar: exclamdown
Encoding: 161 161 99
Width: 1161
Flags: HW
LayerCount: 2
Fore
SplineSet
974 673 m 0
 1041.35 673 1091 482.291 1091 406 c 2
 1088 19 l 2
 1088 13.6667 1082.33 9.66667 1071 7 c 1
 1032 3 l 1
 1022 3 1012 3 1002 3 c 1
 991.773 4.46095 967.392 5.60819 964 9 c 0
 956 14.3333 952 57.6667 952 139 c 2
 953 247 l 1
 954 368 l 1
 957 413 l 1
 961 452 l 1
 961 473.119 954.852 495 934 495 c 0
 910 495 884.667 481.333 858 454 c 1
 823 410 l 1
 781 378 753 332 739 272 c 1
 730.333 230 726 180.333 726 123 c 0
 726 111.333 726 99.6667 726 88 c 0
 726 56.6667 724.333 36.3333 721 27 c 1
 715.268 -9.30553 679.012 -17 636 -17 c 0
 607.022 -17 590.637 -12.9116 583 10 c 1
 579.667 28 578 75 578 151 c 2
 578 248 l 2
 578 274.667 576.667 291.667 574 299 c 1
 574 335 l 1
 576 383 l 1
 576 443.519 572.364 503 530 503 c 0
 506 503 468.667 477.333 418 426 c 128
 367.333 374.667 339 332.333 333 299 c 1
 335 220 l 1
 336 152 l 1
 336 94 l 2
 336 34.0099 328.835 -4 276 -4 c 0
 254 -4 236.333 3.66667 223 19 c 1
 213 47 l 1
 211 104 l 1
 212 193 l 1
 214 252 l 2
 214 271.333 214 290.667 214 310 c 1
 212 321 l 1
 212 333 211.333 341.333 210 346 c 2
 206 369 l 2
 205.333 376.333 170.333 411 101 473 c 0
 70.3333 499.667 55 525.333 55 550 c 1
 65 577 l 1
 81 616.333 98.3333 639 117 645 c 1
 128 646 l 1
 154.667 646 189.333 616.667 232 558 c 1
 317 433 l 1
 437 592 l 1
 485 647.333 529.667 675 571 675 c 1
 625.065 671.996 646.513 633.207 672 538 c 0
 677.333 518 684.667 478 694 418 c 1
 741.333 496 790.167 558 840.5 604 c 128
 890.833 650 935.333 673 974 673 c 0
EndSplineSet
EndChar

StartChar: cent
Encoding: 162 162 100
Width: 1023
Flags: HW
LayerCount: 2
Fore
SplineSet
720 665 m 0
 879.634 665 994 543.777 994 384 c 0
 994 326 965 262 907 192 c 0
 841 112 767.333 72 686 72 c 0
 617.986 72 572 154.913 572 224 c 0
 572 254.153 608.275 292 636 292 c 0
 654 292 673.667 285 695 271 c 1
 754 224 l 1
 800.667 224 839.667 243.667 871 283 c 0
 895 313 907 339.667 907 363 c 1
 908 376 l 1
 908 467.991 822.04 551 728 551 c 0
 662 551 599.333 526.333 540 477 c 0
 518.666 459 496.999 437.333 475 412 c 0
 457 390 435.667 361 411 325 c 1
 331 197 l 1
 290 97 l 2
 270 46.3333 245 15 215 3 c 1
 196.876 30.1859 180 60.9802 180 98 c 1
 199 248 l 1
 205 326 l 1
 207 417 l 1
 207 526.333 180 581 126 581 c 0
 72.6667 581 46 602.667 46 646 c 0
 46 682.858 87.2517 742 125 742 c 0
 207.28 742 284.907 646.525 298 573 c 1
 304 529 l 1
 307 489 l 1
 309 433 l 1
 309 406 l 2
 309 391.222 308.957 379.781 313 369 c 1
 316.333 363.667 323.667 361 335 361 c 1
 392 439 l 2
 466.9 541.437 580.361 665 720 665 c 0
EndSplineSet
EndChar

StartChar: currency
Encoding: 164 164 101
Width: 1147
Flags: HW
LayerCount: 2
Fore
SplineSet
93 367 m 0
 93 577.932 349.502 696 579 696 c 0
 698.221 696 870.572 630.751 940 577 c 1
 988 542.333 1022.67 500 1044 450 c 0
 1060 410 1068 357.333 1068 292 c 0
 1068 263.333 1059.33 231.667 1042 197 c 1
 1009 138 l 2
 979.183 84.9928 906.416 7 828 7 c 0
 786.941 7 755.24 4.4196 741 24 c 1
 725 56 l 1
 718 94 l 1
 718 128.934 739.848 144.426 767 153 c 1
 791 154 l 1
 809 153 l 1
 827 153 l 1
 849 156 l 1
 899.667 176 930.667 197.667 942 221 c 0
 951.333 241.667 956 287 956 357 c 0
 956 423.667 908.667 484.333 814 539 c 1
 729.333 586.333 645.667 610 563 610 c 0
 461.667 610 373.333 583.667 298 531 c 0
 227.333 481.667 192 427.333 192 368 c 1
 195 309 l 1
 197 290.333 200.667 273.666 206 259 c 1
 214 230.333 229 205 251 183 c 1
 305 212 l 2
 316.333 217.333 329 221 343 223 c 1
 393.648 223 440 149.9 440 116 c 0
 440 58.1197 401.382 20 346 20 c 0
 280.667 20 222.167 52.8333 170.5 118.5 c 128
 118.833 184.167 93 267 93 367 c 0
EndSplineSet
EndChar

StartChar: yen
Encoding: 165 165 102
Width: 554
Flags: HW
LayerCount: 2
Fore
SplineSet
141 385 m 1
 89.4144 385 42 444.854 42 497 c 0
 42 525.667 59.6667 567.334 95 622 c 1
 130.003 680.005 176.565 711 250 711 c 0
 294.164 711 328.778 693.789 361 673 c 1
 438.817 626.561 495 529.238 495 408 c 0
 495 376.667 480.667 327 452 259 c 0
 438.187 227.146 423.119 196.548 408 166 c 1
 390.667 142 356.333 110.333 305 71 c 1
 237 21 177 -4 125 -4 c 0
 89 -4 67 6 59 26 c 1
 45 87 l 1
 97 114 l 1
 120.333 124 141.667 129 161 129 c 0
 206.333 129 257.5 161.5 314.5 226.5 c 128
 371.5 291.5 400 352.333 400 409 c 0
 400 502.106 336.053 565.973 258 605 c 1
 223 603 l 1
 188 602 l 1
 203.091 560.758 218.007 519.34 232 477 c 1
 213.633 428.022 190.833 392.475 141 385 c 1
EndSplineSet
EndChar

StartChar: brokenbar
Encoding: 166 166 103
Width: 1311
Flags: HW
LayerCount: 2
Fore
SplineSet
987 606 m 0
 1138.86 606 1234 496.689 1234 343 c 0
 1234 195.718 1130.43 85 982 85 c 0
 916.967 85 849 142.914 849 210 c 0
 849 279.944 880.432 320 952 320 c 0
 996 320 1025 300.667 1039 262 c 128
 1053 223.333 1068.67 204 1086 204 c 0
 1119.35 204 1132 271.16 1132 313 c 0
 1132 351 1113 386 1075 418 c 0
 1042.33 444.667 1012.33 458 985 458 c 1
 960 459 l 1
 941 460 l 2
 932.333 460 924.667 458.333 918 455 c 1
 910.667 453 901 447.333 889 438 c 2
 836 394 l 1
 810 370 791 351 779 337 c 2
 747 298 l 1
 703 224 l 1
 670 156 l 1
 653 111 l 1
 641 65 l 1
 673 23 702.167 -23.3333 728.5 -74 c 128
 754.833 -124.667 768 -165 768 -195 c 0
 768 -269.707 701.054 -337.966 648 -370 c 0
 630 -381.333 607 -389.333 579 -394 c 1
 537 -399 l 1
 496 -401 l 1
 461 -400 l 2
 451.667 -400 445.333 -399.333 442 -398 c 1
 426.049 -398 304.508 -322.824 280 -305 c 0
 261.314 -291.653 235.506 -272.005 218 -257 c 0
 168 -215 143 -180.667 143 -154 c 0
 143 -126.625 154.6 -115 182 -115 c 0
 202 -115 242.333 -139.333 303 -188 c 128
 363.667 -236.667 418.333 -261 467 -261 c 0
 542.798 -261 634 -231.636 634 -168 c 0
 634 -131.333 621 -97 595 -65 c 1
 575 -43 553 -26 529 -14 c 1
 452 -51 l 1
 420.667 -63 389 -69 357 -69 c 0
 255.789 -69 168 3.12766 168 106 c 0
 168 123.333 177 158 195 210 c 128
 213 262 222 292.333 222 301 c 0
 222 331.667 219 358 213 380 c 1
 198 421 l 2
 192 435.667 164.833 447 116.5 455 c 128
 68.1667 463 44 481.333 44 510 c 2
 44 537 l 2
 44 556.2 48.0825 576 68 576 c 0
 214.708 576 332.662 535.411 355 420 c 0
 359.38 396.641 362 373.94 362 345 c 0
 362 313 353.167 271.833 335.5 221.5 c 128
 317.833 171.167 309 140 309 128 c 0
 309 93.8023 338.647 57.9999 373 58 c 0
 424.333 58 465.667 71 497 97 c 1
 541 157 l 1
 614 282 l 1
 668 370 722.667 440.667 778 494 c 0
 854.667 568.667 924.334 606 987 606 c 0
EndSplineSet
EndChar

StartChar: section
Encoding: 167 167 104
Width: 734
Flags: HW
LayerCount: 2
Fore
SplineSet
654 924 m 0
 675.795 924 685.426 907.309 688 888 c 1
 688 679.748 574.033 563.169 433 486 c 1
 375.667 456 339.333 435.333 324 424 c 0
 310.667 415.333 303 408.333 301 403 c 1
 303 396 l 1
 303 310.333 303 224.667 303 139 c 0
 303 102.963 322.606 75 360 75 c 0
 376.667 75 407.333 91.5 452 124.5 c 128
 496.667 157.5 519 185 519 207 c 0
 519 231 505.5 247 478.5 255 c 128
 451.5 263 438 281.667 438 311 c 0
 438 337.718 469.458 402 496 402 c 0
 597.824 402 648 338.837 648 237 c 0
 648 191 640 160 624 144 c 1
 594 126 l 1
 586.667 113.333 556.667 89 504 53 c 0
 442.667 11.6667 394.667 -9 360 -9 c 0
 230.503 -9 193 80.1711 193 220 c 1
 195 305 l 1
 198 360 l 1
 198 407 l 1
 194 444 l 1
 194 455 194 455 194 467 c 1
 189.352 490.24 187.816 508.163 179 528 c 1
 169 558 145.333 579 108 591 c 128
 70.6667 603 52 622.667 52 650 c 0
 52 677.557 123.464 709 150 709 c 0
 192.667 709 229.167 686.667 259.5 642 c 128
 289.833 597.333 321.333 575 354 575 c 0
 379.334 575 406.667 584.333 436 603 c 2
 488 638 l 1
 512.783 662.783 536.978 690.962 553 719 c 1
 584 783 l 1
 612 854 l 1
 627.333 900.667 641.333 924 654 924 c 0
EndSplineSet
EndChar

StartChar: dieresis
Encoding: 168 168 105
Width: 1179
Flags: HW
LayerCount: 2
Fore
SplineSet
966 697 m 0
 1086.17 697 1147 603.229 1147 476 c 0
 1147 411.196 1137.05 360.372 1121 314 c 1
 1078.74 180.163 1001.37 83.2233 882 21 c 0
 826 -9 773.333 -24 724 -24 c 0
 697.359 -24 677.304 -6.34291 660 10 c 1
 637 41 l 1
 616 75 l 1
 610 93 l 1
 600 144 l 1
 596 186 l 1
 595 231 l 1
 597 319 l 1
 600 390 l 1
 584 390 550 355.667 498 287 c 2
 354 96 l 1
 295.333 27.3333 250 -7 218 -7 c 1
 208.666 13.6667 200.333 40.6667 193 74 c 1
 188 117 l 1
 186 159 l 1
 187 197 l 2
 187 208 187 208 187 219 c 1
 189 226.333 190.333 231.667 191 235 c 0
 191 241.667 193 252 197 266 c 1
 197 398.801 195.675 553 99 553 c 0
 91 553 79.3333 551 64 547 c 1
 41 547 l 1
 41 646 l 1
 87 646 l 1
 93.6667 648 98.3333 649.333 101 650 c 2
 134 662 l 1
 255.273 662 297 582.938 297 457 c 1
 298 424 l 2
 298.88 389.546 299.965 355.299 301 321 c 1
 295 289 l 1
 293 262 l 1
 293 246 295.333 235.333 300 230 c 1
 334.107 270.559 366.513 312.82 399 355 c 1
 484.833 472.167 572.078 587.921 660 703 c 1
 675.475 680.304 684 665.462 684 636 c 1
 683 609 l 1
 684 581 l 2
 684 558.803 687.557 552.392 695 529 c 1
 744 572 l 1
 782 604 819 631 855 653 c 0
 902.333 682.333 939.333 697 966 697 c 0
701 220 m 1
 701 167.032 731.387 103 775 103 c 0
 823 103 877.667 128.333 939 179 c 0
 1014.33 241 1052 314.333 1052 399 c 0
 1052 478.268 1028.05 521.769 967 543 c 1
 943 547 l 1
 919 547 892.333 537.333 863 518 c 1
 813 480 l 1
 795 468.667 770.333 421.333 739 338 c 1
 701 220 l 1
EndSplineSet
EndChar

StartChar: logicalnot
Encoding: 172 172 106
Width: 1271
Flags: HW
LayerCount: 2
Fore
SplineSet
978 525 m 0
 978 564.187 1025.82 641 1066 641 c 0
 1107.34 641 1147.67 616.333 1187 567 c 0
 1224.33 520.333 1243 477.667 1243 439 c 0
 1243 322.185 1198.41 172.764 1153.5 104.5 c 128
 1116.46 48.2117 1072.46 -3 996 -3 c 0
 967.333 -3 932 7.33333 890 28 c 2
 826 61 l 1
 848.221 33.2239 871 -37.831 871 -94 c 2
 871 -113 l 1
 869 -134 l 1
 869 -204.783 845.383 -265.838 822 -318 c 0
 788 -396.667 748.667 -436 704 -436 c 0
 644 -436 603.667 -410.333 583 -359 c 0
 578.333 -345.667 567.667 -285.667 551 -179 c 1
 549 -153 l 1
 549 -129.667 554 -98 564 -58 c 2
 580 10 l 1
 580 22 575.667 30.3333 567 35 c 1
 559 37.6667 528 33 474 21 c 2
 393 2 l 1
 313.672 2 227 70.5303 227 146 c 0
 227 167.333 230.333 201 237 247 c 2
 258 396 l 1
 258 456 226 486 162 486 c 0
 98.6666 486 67 507.333 67 550 c 0
 67 601.707 144.878 638 192 638 c 0
 336.194 638 398 540.652 398 391 c 0
 398 365 396 338 392 310 c 2
 386 276 l 1
 386 177.125 387.286 113 460 113 c 0
 490 113 527.667 139.667 573 193 c 0
 596.387 221.584 610.126 240.608 629 274 c 1
 641.667 300.667 648 325.333 648 348 c 1
 661 506 l 1
 670.333 579.333 688.667 616 716 616 c 0
 771.893 616 779 502.554 779 428 c 2
 779 408 l 2
 778.384 396.616 777.732 385.268 777 374 c 2
 777 355 l 2
 776.427 344.24 775.818 333.515 775 323 c 0
 775 299.667 799 261 847 207 c 1
 899.667 150.333 944.667 122 982 122 c 0
 1004.67 122 1031.33 142.333 1062 183 c 1
 1096 231 1113 284.667 1113 344 c 0
 1113 386 1090.5 421.5 1045.5 450.5 c 128
 1000.5 479.5 978 504.333 978 525 c 0
688 -271 m 1
 766.682 -252.843 783 -184.915 783 -82 c 1
 780 -20 l 1
 774.139 50.3261 740.887 112.457 693 129 c 1
 664 69 l 1
 657 7 l 1
 651 -58 l 1
 647 -128 l 1
 647 -191.917 648.198 -271 688 -271 c 1
EndSplineSet
EndChar

StartChar: minus
Encoding: 173 173 107
Width: 1103
Flags: HW
LayerCount: 2
Fore
SplineSet
851 351 m 2
 851 403.633 882.23 446 931 446 c 0
 955.667 446 981.667 437.667 1009 421 c 0
 1044.33 399.667 1062 373 1062 341 c 0
 1062 291 1034.33 224.333 979 141 c 0
 916.333 48.3333 855.667 2 797 2 c 0
 751 2 714.667 21.6667 688 61 c 0
 676 79 659.333 118.667 638 180 c 1
 621 244 l 1
 617 266 615 287 615 307 c 0
 615 350.333 605 372 585 372 c 0
 576.333 372 551.333 344.333 510 289 c 2
 392 133 l 1
 348 77 318.667 49 304 49 c 0
 244.324 49 227 112.295 227 179 c 1
 228 211 l 2
 228 223 228.667 231 230 235 c 1
 230 243.667 224.167 275.833 212.5 331.5 c 128
 200.833 387.167 192.333 417.333 187 422 c 1
 183 428 153.667 437.333 99 450 c 0
 57 460 36 482.667 36 518 c 1
 37 545 l 1
 38.3333 553 41.6667 560.333 47 567 c 0
 58.3333 579 84.3333 585 125 585 c 0
 163.434 585 188.943 573.434 213 559 c 1
 257 535 286.333 499.333 301 452 c 1
 316 394 l 1
 330 323 l 1
 337.333 277.667 349 255 365 255 c 0
 379 255 407.667 286 451 348 c 1
 562 521 l 1
 604.668 583.667 635.335 615 654 615 c 0
 669.333 615 682 608.167 692 594.5 c 128
 702 580.833 713 574 725 574 c 0
 737.667 574 753 582 771 598 c 1
 808 640 l 2
 876.553 719.1 916 799.785 916 933 c 1
 915 964 l 1
 915 994 l 2
 915 1025.38 916.256 1044 944 1044 c 1
 965 1041 l 1
 985 1035 997.667 1016 1003 984 c 1
 1005 932 l 1
 1005 861.109 997.527 793.879 979 744 c 1
 932 635 l 1
 916 589.666 866.333 534.332 783 469 c 0
 749 443 732 418.667 732 396 c 1
 746 194 l 1
 746 162.52 776.96 99 809 99 c 0
 828.333 99 857.333 123.667 896 173 c 0
 932.667 219.667 951 248.333 951 259 c 0
 951 267.667 934.333 277 901 287 c 128
 867.667 297 851 314.333 851 339 c 2
 851 351 l 2
EndSplineSet
EndChar

StartChar: acute
Encoding: 180 180 108
Width: 860
Flags: HW
LayerCount: 2
Fore
SplineSet
25 577 m 0
 25 631.693 37.5359 654 93 654 c 2
 123 654 l 2
 199 654 252.833 631.167 284.5 585.5 c 128
 316.167 539.833 342 517 362 517 c 0
 374 517 399.667 531.333 439 560 c 2
 548 641 l 1
 575.912 658.445 617.118 684 658 684 c 0
 681.333 684 712.667 666.167 752 630.5 c 128
 791.333 594.833 811 562.667 811 534 c 0
 811 474.892 731.911 414 671 414 c 0
 635.667 414 615.667 434.333 611 475 c 0
 609 494.333 600.333 504 585 504 c 1
 525.012 498.547 473.457 480.192 416 445 c 0
 348.667 405 315 359 315 307 c 0
 315 264.688 328.614 209 370 209 c 0
 380.667 209 408.167 220.333 452.5 243 c 128
 496.833 265.667 529.667 277 551 277 c 0
 585 277 629.333 249.667 684 195 c 0
 746 133 777 70.6667 777 8 c 1
 774 -55 l 1
 764 -144 l 1
 764 -167.333 740 -200.667 692 -244 c 1
 631.333 -296.667 568.333 -323 503 -323 c 0
 433.625 -323 367 -264.234 367 -198 c 0
 367 -182 378.333 -158.333 401 -127 c 0
 427 -91.6667 451.333 -74 474 -74 c 0
 487.334 -74 514.334 -89.3333 555 -120 c 2
 616 -167 l 1
 631.333 -167 645.333 -152.333 658 -123 c 1
 670 -88 l 1
 674 -65 l 1
 662 -17 l 1
 648 21 626.333 51.3333 597 74 c 0
 556.333 106.667 503.667 123 439 123 c 0
 399 123 353.5 104.333 302.5 67 c 128
 251.5 29.6667 214.333 11 191 11 c 0
 177.666 11 167.333 20 160 38 c 1
 154 72 l 1
 152 126 l 1
 153.297 198.037 154.627 270.039 156 342 c 2
 157 392 l 1
 160 447 l 1
 160 496.49 138.674 502.863 93 517 c 2
 65 526 l 1
 43.588 537.42 25 550.938 25 577 c 0
EndSplineSet
EndChar

StartChar: mu
Encoding: 181 181 109
Width: 1119
Flags: HW
LayerCount: 2
Fore
SplineSet
229 19 m 1
 121.709 19 68.7484 108.227 50 209 c 1
 45 249 l 1
 43 295 l 1
 43 390.938 68.7504 487.517 105 553 c 1
 156.043 650.549 264.585 751.917 380 775 c 1
 391 776 l 1
 412 773 l 1
 426.977 765.952 434.838 763.802 449 752 c 1
 457.667 746.667 467 738 477 726 c 2
 504 697 l 1
 513 680 l 1
 531 631 l 1
 542.333 593 551.333 553 558 511 c 1
 574 389 l 1
 588 391 613.667 424 651 488 c 1
 750 664 l 1
 791.333 728 828 763 860 769 c 1
 886 731.667 905.333 683 918 623 c 1
 925 571 l 1
 928 516 l 1
 928 506 l 1
 938.93 445.883 952.97 393.359 972 338 c 1
 991.333 272.667 1010.67 214 1030 162 c 2
 1060 80 l 1
 1050 50 l 2
 1047.15 38.5974 1040.77 29.234 1035 20 c 1
 1012 18 l 1
 964 18 927.667 51.3333 903 118 c 0
 894.333 142 881 202.333 863 299 c 0
 853.928 343.595 844.617 387.95 835 432 c 1
 835 442 l 1
 836 457 l 1
 836 486.234 832.793 506.364 820 522 c 1
 793.331 474.003 767.572 425.095 742 376 c 1
 646 182 590.333 71.6667 575 45 c 1
 557 65 544.333 91 537 123 c 1
 530.524 166.931 520.471 201.228 505 235 c 1
 464 184 l 1
 428 142 396.333 109 369 85 c 0
 327 47.6667 292.667 26.6667 266 22 c 1
 229 19 l 1
445 539 m 1
 435.558 578.349 390.248 630 344 630 c 0
 311.333 630 272 604 226 552 c 1
 174.667 491.333 149 425 149 353 c 1
 150 329 l 2
 150 320 150 320 150 311 c 1
 155.376 291.289 156.925 274.609 162 256 c 2
 168 232 l 1
 181.013 193.727 207.479 177.425 252 174 c 1
 276 174 303 187 333 213 c 1
 380 263 l 1
 396.667 278.333 413 329.333 429 416 c 1
 445 539 l 1
EndSplineSet
EndChar

StartChar: paragraph
Encoding: 182 182 110
Width: 1100
Flags: HW
LayerCount: 2
Fore
SplineSet
820 640 m 1
 941.847 622.426 1068 531.5 1068 399 c 0
 1068 334.333 1036.33 261.333 973 180 c 0
 916.333 106 862 59.3333 810 40 c 1
 771 35 l 1
 690 30 l 1
 651.333 30 621.333 42.6667 600 68 c 1
 541 147 l 1
 460 52 l 1
 433.333 30.6667 390 20 330 20 c 0
 242 20 182.667 57.6667 152 133 c 0
 130 189 119 293.667 119 447 c 0
 119 503.323 66.2022 531 4 531 c 1
 -9 572 l 1
 -14 606 l 1
 -14 668.22 37.4052 653.005 93 630 c 1
 225 572 l 1
 293 609 l 1
 322 622 l 1
 351 632 l 1
 370 633 l 1
 401 630 l 1
 414.626 627.275 423.065 624.468 434 619 c 2
 505 588 l 1
 529 596 542.333 614.667 545 644 c 1
 545 672.667 556 687 578 687 c 0
 598 687 612.333 674.667 621 650 c 0
 633 611.333 647.333 581.667 664 561 c 1
 688.987 595.357 757.683 640 820 640 c 1
956 329 m 0
 956 438.857 917.949 510 812 510 c 0
 777.703 510 690.328 489.833 677 464.5 c 128
 668.165 447.713 666.713 439.742 662 415 c 1
 657 371 l 1
 656 329 l 1
 656 276.782 658.485 205.247 681 181 c 2
 707 154 l 1
 711.667 150.667 720.667 149 734 149 c 2
 782 149 l 2
 816.667 149 856 175 900 227 c 1
 937.333 273.667 956 307.667 956 329 c 0
429 481 m 0
 298.724 481 225 458.814 225 344 c 0
 225 258.667 227.5 206.333 232.5 187 c 128
 237.5 167.667 254 151.667 282 139 c 1
 305 131 l 1
 329 129 l 1
 341 129 l 2
 346.333 129 350.333 129.667 353 131 c 0
 483.787 148.438 528 229.317 528 385 c 0
 528 445.382 489.992 481 429 481 c 0
EndSplineSet
EndChar

StartChar: cedilla
Encoding: 184 184 111
Width: 1126
Flags: HW
LayerCount: 2
Fore
SplineSet
681 611 m 1
 743.89 634.45 798.081 655 860 655 c 0
 912 655 961 635 1007 595 c 0
 1059 549 1085 490.333 1085 419 c 1
 1084 392 l 1
 1084 376 l 1
 1080 364 l 1
 1066 281.333 1030.67 218.667 974 176 c 0
 929.333 143.333 877.333 127 818 127 c 0
 783.333 127 754.667 131.667 732 141 c 1
 738 108.333 747.333 73.6667 760 37 c 1
 780 -27 790 -79.3333 790 -120 c 0
 790 -235.861 747.851 -393 648 -393 c 0
 590.667 -393 548 -368 520 -318 c 1
 513.333 -304 498.667 -252 476 -162 c 1
 469 -120 l 1
 466 -80 l 1
 466 -39.241 490 68.0634 490 110 c 1
 403 99 l 1
 384 99 l 1
 360 104 l 2
 353.333 104.667 343 109.667 329 119 c 1
 287.667 141.667 258 180 240 234 c 1
 228 291 l 1
 224 364 l 1
 224 459.334 199.667 522.334 151 553 c 1
 91.6667 569.667 54.3333 582.334 39 591 c 0
 12.3333 605.667 -1 625.667 -1 651 c 0
 -1 684.407 44.7899 711 83 711 c 0
 145 711 194.167 685.833 230.5 635.5 c 128
 266.834 585.167 291.667 560 305 560 c 0
 317 560 340.667 570.333 376 591 c 0
 393.333 601 408.333 607 421 609 c 2
 450 612 l 1
 482.753 612 484.544 611.242 517 605 c 2
 559 596 l 1
 563 600 571.333 614 584 638 c 1
 590 652.667 602 660 620 660 c 0
 634 660 644.667 657 652 651 c 1
 681 611 l 1
825 234 m 0
 922.247 234 994 299.752 994 395 c 0
 994 424.334 981 457.667 955 495 c 1
 923.667 537 887.667 558 847 558 c 0
 749.309 558 692 481.156 692 380 c 0
 692 313.214 759.357 234 825 234 c 0
316 387 m 0
 316 286.761 330.34 188 414 188 c 0
 439.333 188 470 204.667 506 238 c 0
 546 274 566 311.667 566 351 c 0
 566 431.571 523.699 515 451 515 c 0
 377.478 515 316 460.379 316 387 c 0
628 86 m 0
 595.717 86 573 42.7107 573 9 c 2
 574 -85 l 2
 574 -147.21 572.609 -241.536 622 -258 c 1
 643 -264 l 1
 666.973 -264 672.033 -227.836 676 -208 c 1
 680 -153 l 1
 679 -124 l 1
 679 -95 l 2
 679 -35.9455 666.834 86 628 86 c 0
EndSplineSet
EndChar

StartChar: onesuperior
Encoding: 185 185 112
Width: 665
Flags: HW
LayerCount: 2
Fore
SplineSet
133 666 m 1
 182.925 666 215 638.078 215 591 c 0
 215 575.813 216.582 563.672 220 550 c 2
 227 525 l 1
 275.945 538.177 311.45 564.088 354 596 c 0
 378.853 613.813 402.447 632.887 426 652 c 1
 450 670 479.667 679 515 679 c 2
 527 679 l 1
 544.942 675.013 554.421 673.316 568 662 c 1
 593.647 637.569 607 605.251 607 558 c 2
 607 540 l 1
 603.556 507.282 599.893 488.379 576 470 c 0
 562 458 548.667 452 536 452 c 0
 509.333 452 486.666 462.333 468 483 c 1
 452 504.333 438 515 426 515 c 0
 353.436 515 256.114 437.05 221 389 c 1
 207 315 200 263.333 200 234 c 0
 200 204 209 168.333 227 127 c 1
 244.418 134.917 252.714 138.725 269 150 c 0
 310.683 175.984 351.614 202.719 392 230 c 1
 525 335 l 1
 532 338 l 1
 553 344 l 1
 566 346 l 1
 575.333 346 583 343 589 337 c 1
 599 309 l 1
 602 266 l 1
 602 240 600 209 596 173 c 2
 584 59 l 1
 584 -83 l 2
 584 -104.111 536.49 -122 515 -122 c 1
 468.97 -113.369 442 -74.518 442 -31 c 2
 443 77 l 2
 443 95.0076 418.562 120 400 120 c 0
 392 120 362 107 310 81 c 2
 169 8 l 2
 113.685 -20.8602 88.9331 -40.0929 72 -13 c 1
 66 10 l 1
 67 40 l 1
 69 64 l 1
 71 508 l 1
 69 624 l 2
 69 645.568 76.961 654.235 95 661 c 1
 119 665 l 1
 133 666 l 1
EndSplineSet
EndChar

StartChar: ordmasculine
Encoding: 186 186 113
Width: 776
Flags: HW
LayerCount: 2
Fore
SplineSet
538 712 m 0
 645.142 712 745 602.714 745 491 c 0
 745 338.966 660.37 186.24 579 108 c 0
 519.667 50 449.333 14.3333 368 1 c 1
 333 -2 l 1
 182.775 -2.00001 163 172.075 163 337 c 2
 163 370 l 1
 164 402 l 1
 164 451.333 159.333 487.333 150 510 c 1
 139.333 539.333 117.333 564 84 584 c 2
 46 608 l 2
 32 618 25 636.333 25 663 c 0
 25 681 45.3333 698.333 86 715 c 1
 147 734 l 1
 173 734 198.667 710 224 662 c 1
 254 598 273 562 281 554 c 1
 349 610 393 645 413 659 c 0
 449.078 684.352 489.373 712 538 712 c 0
278 245 m 0
 278 185.851 315.819 111 372 111 c 0
 522.73 111 617.5 308.371 639 453.5 c 128
 640.333 462.5 641 472.333 641 483 c 0
 641 540.919 549.245 592 487 592 c 0
 431 592 380.333 548.333 335 461 c 1
 297 385 278 313 278 245 c 0
EndSplineSet
EndChar

StartChar: guillemotright
Encoding: 187 187 114
Width: 750
Flags: HW
LayerCount: 2
Fore
SplineSet
479 561 m 0
 479 604.984 535.376 668 582 668 c 0
 596 668 619.333 647.333 652 606 c 0
 690.667 555.333 710 505 710 455 c 0
 710 393 684 315.333 632 222 c 1
 585.333 141.333 544.667 89.3333 510 66 c 0
 486.667 50.6666 454.667 36.3333 414 23 c 1
 355 11 l 1
 296 7 l 1
 218.483 37.1456 185 114.716 185 231 c 2
 185 379 l 1
 189 413 l 1
 190 442 l 1
 190 486.438 184.686 521.876 159 539 c 1
 67 567 l 1
 42.3333 581.668 30 601.334 30 626 c 0
 30 642 48 657.667 84 673 c 1
 139 688 l 1
 143 688 151 684 163 676 c 2
 204 647 l 2
 244 619.667 273.667 580.667 293 530 c 1
 304.919 494.244 312 455.337 312 408 c 0
 312 398.333 312 388.667 312 379 c 1
 310 369 l 1
 307 339 l 1
 301 264 l 1
 300 141 l 2
 300 109.473 346.476 83 382 83 c 0
 422.667 83 470.333 117.333 525 186 c 1
 584.333 262.667 614 342.667 614 426 c 0
 614 446.667 591.5 464.167 546.5 478.5 c 128
 501.5 492.834 479 520.334 479 561 c 0
EndSplineSet
EndChar

StartChar: onequarter
Encoding: 188 188 115
Width: 1153
Flags: HW
LayerCount: 2
Fore
SplineSet
889 637 m 0
 1008.34 637 1113 534.756 1113 413 c 0
 1113 387 1113 387 1113 362 c 1
 1111 347.332 1109.67 336.665 1109 330 c 0
 1109 303.462 1102.64 277.246 1096 254 c 1
 1064.54 115.06 983.947 7 826 7 c 0
 776 7 739 24 715 58 c 1
 647 162 l 1
 632.333 150 607.333 124.667 572 86 c 0
 516.666 26 468 -4 426 -4 c 0
 292.651 -4 226 51.8301 226 185 c 0
 226 210.333 229.333 250.667 236 306 c 1
 241 372 l 1
 225 440 l 1
 211 486 194.333 510 175 512 c 1
 138 508 l 1
 95 505 l 1
 60.822 505 35 506.729 35 538 c 0
 35 623.255 79.719 669 165 669 c 2
 172 669 l 1
 178 668 l 1
 310.632 668 376 613.027 376 485 c 2
 376 449 l 1
 374.667 443 374 439 374 437 c 0
 370.139 398.527 364.686 361.648 360 324 c 1
 360 254.359 380.948 113 441 113 c 0
 461 113 488 133.333 522 174 c 0
 548.667 207.333 566 233.667 574 253 c 1
 584 299 l 1
 596 394 l 1
 599 442 l 1
 601 480 l 2
 601 492.667 599.667 503 597 511 c 1
 593 547 l 1
 593 586.333 596.333 609.333 603 616 c 1
 639 624 l 1
 645 624 649 624.667 651 626 c 1
 662.604 616.937 674.262 607.928 686 599 c 1
 708 586 l 2
 711.333 584 741 594.333 797 617 c 1
 844 632 l 1
 864.925 636.185 865.119 637 889 637 c 0
854 140 m 0
 969.01 140 1008 243.361 1008 371 c 0
 1008 427.183 950.502 497 892 497 c 1
 876 498 l 1
 800.88 498 728 433.863 728 357 c 0
 728 238.451 750.101 140 854 140 c 0
EndSplineSet
EndChar

StartChar: questiondown
Encoding: 191 191 116
Width: 29
Flags: HW
LayerCount: 2
Fore
SplineSet
-146 -74 m 1
 -112.554 -74 -100 -112.633 -100 -149 c 0
 -100 -162.333 -102 -175 -106 -187 c 2
 -130 -250 l 1
 -156 -303 l 1
 -176.197 -346.502 -221.599 -398.057 -260 -420 c 1
 -309 -445 l 1
 -327.667 -453 -354 -462 -388 -472 c 1
 -490 -488 l 1
 -526 -492 -562.667 -494 -600 -494 c 0
 -614 -494 -628 -494 -642 -494 c 1
 -661 -492 l 1
 -733 -488 l 1
 -804 -480 l 1
 -824.142 -480 -848.14 -475.302 -863 -472 c 1
 -885 -470 -901 -466 -911 -460 c 1
 -977 -429 l 1
 -1036 -406 l 2
 -1049.66 -400.145 -1066 -384.731 -1066 -368 c 0
 -1066 -351.779 -1056.14 -341.446 -1043 -333 c 1
 -1019 -328 l 1
 -1009.67 -328 -1000.33 -328 -991 -328 c 1
 -956 -340 l 1
 -942 -346 l 1
 -944 -348 -945 -351.667 -945 -357 c 256
 -945 -362.333 -925.333 -368.333 -886 -375 c 1
 -731 -394 l 1
 -667 -398 l 1
 -602 -400 l 1
 -513 -397 l 2
 -494.866 -397 -478.678 -395.618 -463 -392 c 2
 -435 -385 l 1
 -413 -381 -387 -372 -357 -358 c 2
 -320 -341 l 1
 -285 -320 l 1
 -246 -253 l 2
 -231.91 -228.344 -219.325 -199.439 -205 -169 c 1
 -198 -139 l 2
 -196 -129 -192.667 -119.333 -188 -110 c 1
 -180 -84 -166 -72 -146 -74 c 1
EndSplineSet
EndChar

StartChar: Agrave
Encoding: 192 192 117
Width: 1111
Flags: HW
LayerCount: 2
Fore
SplineSet
552 370 m 0
 552 454.233 563.13 637 606 637 c 0
 626 637 641 624.833 651 600.5 c 128
 661 576.167 672 564 684 564 c 1
 783 596 l 2
 796.331 599.636 850.818 612 869 612 c 0
 917 612 969.333 575.333 1026 502 c 0
 1069.33 445.333 1091 380.666 1091 308 c 0
 1091 196.828 982.678 130.772 895 86 c 1
 815 51 l 2
 807.667 47.6666 802 41.3333 798 32 c 1
 792 4 l 1
 792 -8 792.667 -16.6667 794 -22 c 2
 799 -46 l 1
 800 -59 l 1
 800 -75 l 2
 800 -207.552 747.721 -443 648 -443 c 0
 622 -443 591.667 -420.667 557 -376 c 0
 513 -318 484 -239.333 470 -140 c 1
 470 -130.667 469.333 -124.667 468 -122 c 1
 468 -111 l 2
 468 -94.3333 470.333 -75.3333 475 -54 c 1
 482 4 l 1
 482 20.6667 479.667 39.3333 475 60 c 1
 453.515 40.5613 422.104 20 387 20 c 1
 356 23 l 1
 325 30 l 1
 263 42 221 88.3333 199 169 c 0
 196.333 179 191 223.667 183 303 c 1
 183 411.667 144.333 473.333 67 488 c 0
 31 494.001 13 512.334 13 543 c 0
 13 581.876 70.2499 612 113 612 c 0
 149 612 187 597 227 567 c 0
 272.333 531.667 295 489.333 295 440 c 0
 295 415.667 295 391.333 295 367 c 1
 293 344 l 1
 289 276 l 1
 289 210.116 335.552 133 401 133 c 0
 501.143 133 552 257.513 552 370 c 0
791 214 m 0
 872.314 214 960 278.283 960 361 c 0
 960 416.601 925.249 478 875 478 c 0
 767.523 478 714 413.674 714 300 c 0
 714 266.107 758.783 214 791 214 c 0
644 -299 m 0
 696.785 -299 693 -179.42 693 -100 c 0
 693 -45.7772 667.945 57.8494 631 65 c 1
 612.333 67 597.667 53 587 23 c 1
 579 -7 575 -46 575 -94 c 0
 575 -147.333 580.333 -193.333 591 -232 c 0
 599 -262.667 608 -282 618 -290 c 1
 628 -296 636.667 -299 644 -299 c 0
EndSplineSet
EndChar

StartChar: Aacute
Encoding: 193 193 118
Width: 750
Flags: HW
LayerCount: 2
Fore
SplineSet
296 7 m 1
 218.483 37.1456 185 114.716 185 231 c 2
 185 379 l 1
 189 413 l 1
 190 442 l 1
 190 486.438 184.686 521.876 159 539 c 1
 67 567 l 1
 42.3333 581.668 30 601.334 30 626 c 0
 30 642 48 657.667 84 673 c 1
 139 688 l 1
 143 688 151 684 163 676 c 2
 204 647 l 2
 244.667 618.333 273.333 572.667 290 510 c 1
 298.667 468 303 422 303 372 c 1
 597 372 l 1
 597 376 600 384.667 606 398 c 1
 614 426 l 1
 614 446.667 591.5 464.167 546.5 478.5 c 128
 501.5 492.834 479 520.334 479 561 c 0
 479 604.984 535.376 668 582 668 c 0
 596 668 619.333 647.333 652 606 c 0
 690.667 555.333 710 505 710 455 c 0
 710 393 684 315.333 632 222 c 1
 585.333 141.333 544.667 89.3333 510 66 c 0
 486.667 50.6666 454.667 36.3333 414 23 c 1
 355 11 l 1
 296 7 l 1
413 288 m 2
 399 288 385 288 371 288 c 2
 300 291 l 1
 300 141 l 2
 300 109.473 346.476 83 382 83 c 0
 411.334 83 448.667 102 494 140 c 1
 544 184 576.333 234.333 591 291 c 1
 502 289 l 1
 413 288 l 2
EndSplineSet
EndChar

StartChar: Acircumflex
Encoding: 194 194 119
Width: 1091
Flags: HW
LayerCount: 2
Fore
SplineSet
803 569.5 m 128
 803 625.685 854.776 669 908 669 c 0
 950.669 669 986.335 643.667 1015 593 c 1
 1028 562 l 1
 1044 516 l 1
 1044 500 l 1
 1045 473 l 1
 1045 413.667 1042.33 368 1037 336 c 1
 1029 274 1015.33 230 996 204 c 1
 973.333 169.333 935.333 129.667 882 85 c 0
 820.667 35 770.667 10 732 10 c 0
 662 10 621 38.3333 609 95 c 128
 597 151.667 585 180 573 180 c 1
 534.821 110.584 474.306 53.3092 381 26 c 1
 355 23 l 1
 268.319 23 171 109.591 171 198 c 1
 199 358 l 1
 199 430.667 188 479 166 503 c 0
 152.667 517 129 524 95 524 c 2
 81 524 l 2
 36.0775 524 24 541.313 24 590 c 0
 24 616.572 44.0928 661 71 661 c 0
 179.165 661 289 607.311 289 511 c 1
 296 225 l 2
 296 197 310 172 338 150 c 1
 381 126 l 1
 445.747 180.99 488.084 237.423 506 327 c 1
 520 411 l 1
 528 501.667 534 557.333 538 578 c 1
 548 657 l 1
 553.333 679 567.333 690 590 690 c 0
 658.363 690 668 589.435 668 502 c 1
 659.414 455.586 650.75 409.25 642 363 c 1
 642 343 642 343 642 328 c 128
 642 318 643.333 304.667 646 288 c 1
 648 267.333 653.333 246 662 224 c 1
 682 165.333 713.333 136 756 136 c 0
 788 136 828 160 876 208 c 0
 943.204 275.204 960 301.817 960 397 c 0
 960 433 953.667 456 941 466 c 1
 906 477 l 1
 874 491 l 2
 830 511 806.333 531 803 551 c 1
 803 562 803 562 803 569.5 c 128
EndSplineSet
EndChar

StartChar: Atilde
Encoding: 195 195 120
Width: 1099
Flags: HW
LayerCount: 2
Fore
SplineSet
266 0 m 0
 143.475 0 65 73.2464 65 198 c 0
 65 228 91.8334 272.667 145.5 332 c 128
 199.167 391.334 248.667 425.667 294 435 c 1
 316 437 l 1
 347 434 l 1
 374 432 l 1
 400 435 l 1
 421 445 l 1
 459.714 467.583 459.982 471.322 476 528 c 0
 506 635.333 549 721 605 785 c 0
 673 861 760 899 866 899 c 0
 905.333 899 948.5 877.833 995.5 835.5 c 128
 1042.5 793.167 1066 751 1066 709 c 0
 1066 627.604 988.269 557 905 557 c 0
 853.966 557 803 567.584 803 614 c 1
 804 624 l 1
 804 681.583 813.526 730 860 730 c 0
 870.667 730 889 725.667 915 717 c 1
 942 710 l 1
 954.667 710 961 718.667 961 736 c 0
 961 795.95 862.94 813 796 813 c 0
 755.339 813 702.526 728.118 678 676 c 1
 643 595 l 1
 626.333 550.333 617 522.667 615 512 c 1
 615 478 643 453 699 437 c 0
 781.667 413.667 826 400 832 396 c 0
 879.333 366.667 918.5 332.167 949.5 292.5 c 128
 980.5 252.833 996 218 996 188 c 0
 996 138 972 93.3333 924 54 c 1
 883.333 22.6667 847.333 7 816 7 c 0
 750 7 694.667 24.3333 650 59 c 1
 542 174 l 1
 487.333 129.333 435.666 89.1667 387 53.5 c 128
 338.333 17.8333 298 0 266 0 c 0
848 99 m 0
 881.7 99 915 123.384 915 157 c 0
 915 196.333 874 236 792 276 c 1
 728 306 685.667 321 665 321 c 1
 641.858 307.115 618 283.224 618 257 c 0
 618 216.333 650 178 714 142 c 1
 769.333 113.333 814 99 848 99 c 0
158 164 m 0
 158 125.082 188.878 99 229 99 c 0
 268.333 99 308.667 122.167 350 168.5 c 128
 391.333 214.833 412 255 412 289 c 0
 412 312.048 391.217 327 368 327 c 0
 315.333 327 265 305 217 261 c 1
 177.667 223 158 190.667 158 164 c 0
EndSplineSet
EndChar

StartChar: Adieresis
Encoding: 196 196 121
Width: 205
Flags: HW
LayerCount: 2
Fore
SplineSet
1079 -172 m 0
 1114.96 -172 1132.05 -188.667 1142 -221 c 1
 1142 -237 1118.67 -259 1072 -287 c 0
 1003.28 -327.85 947.389 -367.443 871 -402 c 1
 843.826 -413.159 815.819 -423.485 788 -434 c 1
 760 -443.333 734 -450.333 710 -455 c 1
 671 -460 l 1
 625 -462 l 1
 472.476 -462 361.372 -423.949 279 -344 c 0
 252.232 -319.101 226.204 -293.463 201 -267 c 1
 160 -220 l 1
 147.308 -197.026 134.653 -174.013 122 -151 c 1
 89 -76 l 1
 57.1771 7.01634 40 136.627 40 255 c 1
 42 325 l 1
 44 380 l 1
 47 437 l 1
 50.4089 477.907 54.3004 480.703 57 505 c 0
 67 587 80 650 96 694 c 1
 107.333 732 119 762.667 131 786 c 1
 143.667 813.333 157.333 836.667 172 856 c 1
 186.667 878 206.334 899 231 919 c 0
 349.731 1020.77 512.402 1073.34 706 1101 c 1
 777 1107 l 1
 856 1109 l 1
 918 1109 979 1106 1039 1100 c 0
 1049 1100 1049 1100 1058 1100 c 128
 1064 1100 1070.67 1099.33 1078 1098 c 0
 1111.53 1093.87 1144.98 1089.65 1178 1085 c 1
 1255.27 1085 1311.19 1041.55 1366 1021 c 0
 1387.37 1013.03 1409 1005.33 1430 997 c 1
 1451.21 992.758 1488 970.819 1488 946 c 0
 1488 926.331 1475.3 916.51 1460 906 c 1
 1436 900 l 1
 1407 898 l 1
 1392 898 l 1
 1368.84 905.24 1345.6 914.699 1325 925 c 1
 1326.47 929.196 1327.77 933.559 1329 938 c 1
 1329 943.333 1303 951.667 1251 963 c 1
 1036 989 l 1
 956 995 l 1
 859 998 l 1
 794 997 l 2
 779 997 779 997 769.5 997 c 128
 763.167 997 752 995.667 736 993 c 1
 714 993 692 991 670 987 c 1
 628 977 l 1
 556 963 488.333 937.667 425 901 c 1
 397.177 887.751 368.522 872.547 346 854 c 1
 329.333 842 310.667 826.667 290 808 c 1
 280.667 797.333 268 779 252 753 c 0
 240.667 733 228.667 707.333 216 676 c 1
 207 647 l 1
 196 607 l 1
 179 507 l 1
 169.667 421.667 165 342 165 268 c 0
 165 138.859 168.195 -0.191345 215 -83 c 1
 239.698 -131.161 264.372 -172.98 305 -202 c 1
 313 -210 355.333 -239.333 432 -290 c 1
 474 -314 l 1
 518 -333 l 1
 554 -343.667 583 -349 605 -349 c 0
 657.884 -349 737.795 -324.739 781 -302 c 1
 805 -292.667 829.667 -280 855 -264 c 1
 944 -236 l 1
 1019 -191 l 1
 1045.67 -178.333 1065.67 -172 1079 -172 c 0
EndSplineSet
EndChar

StartChar: Aring
Encoding: 197 197 122
Width: 1200
Flags: HW
LayerCount: 2
Fore
SplineSet
80 536 m 0
 52.0182 536 44 559.978 44 595 c 0
 44 625.667 61.3333 652.333 96 675 c 1
 148 698 l 1
 158 698 181.667 683 219 653 c 0
 265 615 295 570 309 518 c 1
 313 496 l 1
 314 470 l 2
 314 454.667 312 431.333 308 400 c 1
 303 347 l 1
 303 318.333 313.333 304 334 304 c 0
 340 304 361.667 324.667 399 366 c 0
 434.476 403.857 468.277 443.389 501 484 c 2
 560 558 l 1
 585.333 596.667 600 618 604 622 c 0
 626 650 655 664 691 664 c 0
 723.809 664 758.472 624.649 767 598 c 1
 771 569 l 1
 774 525 l 1
 776 357 l 1
 773 302 l 1
 772 235 l 2
 772 218.333 772 201.667 772 185 c 1
 775 159 l 2
 778.407 136.287 817.549 91 850 91 c 0
 878 91 911.667 122.667 951 186 c 1
 968.668 216.999 985.906 248.427 1002 281 c 1
 1030.34 309.341 1059 343.825 1059 398 c 0
 1059 409.333 1040 430 1002 460 c 128
 964 490.001 945 526.334 945 569 c 0
 945 603 961.333 636 994 668 c 0
 1021.33 694 1042.33 707 1057 707 c 0
 1085 707 1111.67 686.333 1137 645 c 0
 1159 609 1170 579.667 1170 557 c 0
 1170 425.667 1136.67 298.667 1070 176 c 0
 1008 60 948.333 2 891 2 c 0
 791.667 2 726.667 15.3333 696 42 c 1
 649 128 l 2
 641 143.333 635 158.667 631 174 c 1
 627 229 l 1
 627 255 l 1
 630 297 633 339 636 381 c 1
 635 413 l 1
 635 433 l 1
 631 447 l 1
 615 439 583.333 411.333 536 364 c 0
 499.333 327.333 459 284.666 415 236 c 2
 351 165 l 1
 335 134 l 1
 319 106 l 1
 282.7 49.6389 237.369 14.2969 214 88 c 1
 206.667 117.333 203 152.333 203 193 c 2
 204 245 l 2
 204 258 204 258 204 267 c 128
 204 273 205.333 284 208 300 c 1
 208 310.667 210 327 214 349 c 1
 214 391.667 208.667 427.667 198 457 c 0
 184 499 161.333 525 130 535 c 1
 109 538 l 1
 99.3018 537.365 89.6308 536.703 80 536 c 0
EndSplineSet
EndChar

StartChar: Ccedilla
Encoding: 199 199 123
Width: 724
Flags: HW
LayerCount: 2
Fore
SplineSet
500 1109 m 0
 559.896 1109 716 1065.34 716 1012 c 0
 716 1004 713.333 996.333 708 989 c 1
 688 968 l 1
 620 1002 l 1
 595 1013 l 1
 580 1019 l 1
 527.333 1019 468.333 994.667 403 946 c 0
 341.667 900 311 862.667 311 834 c 0
 311 816 323.333 798 348 780 c 1
 373.333 764 386 748 386 732 c 1
 374 701 l 1
 364 679.667 353.333 669 342 669 c 0
 270.448 669 203 787.246 203 862 c 0
 203 906.667 238.167 959 308.5 1019 c 128
 378.834 1079 442.667 1109 500 1109 c 0
232 540 m 0
 335.576 540 402 388.701 402 276 c 0
 402 112.02 355.587 -2 203 -2 c 0
 77.5526 -2 25 127.249 25 265 c 0
 25 333 46.8333 395.833 90.5 453.5 c 128
 134.167 511.167 181.333 540 232 540 c 0
204 104 m 1
 265.487 111.32 307 192.956 307 265 c 0
 307 365.914 302.251 426 222 426 c 0
 167.688 426 140 318.424 140 258 c 0
 140 206.671 155.121 104 204 104 c 1
EndSplineSet
EndChar

StartChar: Egrave
Encoding: 200 200 124
Width: 32
Flags: HW
LayerCount: 2
Fore
SplineSet
-176 965 m 0
 -176 948.333 -179.667 933 -187 919 c 1
 -205 893 l 1
 -219 875 l 1
 -236 862 l 1
 -266 846 l 1
 -293 837 l 1
 -318 835 l 1
 -334.667 835 -350 838.667 -364 846 c 2
 -386 859 l 1
 -411 878 l 1
 -429.53 901.471 -446 936.274 -446 977 c 0
 -446 1011 -432 1042 -404 1070 c 1
 -388.931 1079.26 -372.859 1087.53 -357 1096 c 1
 -335 1102.67 -318 1106 -306 1106 c 0
 -291.333 1106 -276.333 1102.67 -261 1096 c 1
 -245.648 1087.02 -230.781 1077.55 -216 1068 c 1
 -203 1048 l 1
 -186 1018 l 1
 -179.333 996 -176 978.333 -176 965 c 0
-314 1032 m 1
 -337.85 1032 -359.266 993.402 -370 975 c 1
 -370 952.943 -354.465 932.465 -340 918 c 1
 -314 912 l 1
 -308.668 912 -301.335 914.333 -292 919 c 2
 -272 929 l 1
 -258 949 l 1
 -251 972 l 1
 -251 983.333 -255.667 994.667 -265 1006 c 1
 -283 1020 l 1
 -314 1032 l 1
EndSplineSet
EndChar

StartChar: Ecircumflex
Encoding: 202 202 125
Width: 1059
Flags: HW
LayerCount: 2
Fore
SplineSet
992 782 m 2
 1029.75 782 1041 757.082 1041 716 c 0
 1041 544.875 935.934 372.575 847 260 c 0
 803 204 769.667 171 747 161 c 0
 739 157 733 144 729 122 c 1
 726 60 l 1
 726 31.1095 710.377 12.6887 689 2 c 1
 665 -2 l 1
 639.667 -2 623 20.3333 615 65 c 1
 607 151 l 1
 604 274 l 1
 604 297 l 1
 603 342 l 1
 599.667 361.333 587.667 371 567 371 c 0
 559 371 527.333 347 472 299 c 1
 328 164 l 2
 277.333 117.333 246.333 93 235 91 c 1
 197.388 91 191 157.64 191 204 c 2
 191 232 l 2
 191 241.333 191.667 248 193 252 c 1
 190 274 l 1
 191 329 l 1
 193 412 l 1
 193 473.333 160.833 515 96.5 537 c 128
 32.1667 559 0 578 0 594 c 0
 0 640.19 46.5839 680 93 680 c 0
 123 680 154 670.333 186 651 c 0
 210.667 637 233.333 619 254 597 c 1
 292 538 l 1
 310 502 319 465 319 427 c 1
 316 386 l 2
 314.275 370.699 310.663 358.59 305 345 c 1
 300 307 l 1
 300 278 l 1
 322 288 358.333 320.333 409 375 c 1
 540 511 l 1
 588.667 557.667 624 581 646 581 c 0
 680.347 581 733 523.225 733 487 c 1
 730 394 l 1
 728 325 l 2
 728 295 730.333 280 735 280 c 0
 757 280 785 309 819 367 c 0
 843 409 870.333 464.667 901 534 c 0
 911 555.333 921 606.333 931 687 c 0
 938.333 747 948 778 960 780 c 2
 984 782 l 1
 992 782 l 2
EndSplineSet
EndChar

StartChar: Edieresis
Encoding: 203 203 126
Width: 867
Flags: HW
LayerCount: 2
Fore
SplineSet
296 38 m 0
 251.518 38 246 102.33 246 149 c 2
 246 180 l 1
 247 214 l 1
 247 250 l 1
 242.026 297.359 237.643 345.309 233 393 c 1
 227.666 427.667 215.333 458.667 196 486 c 0
 185.333 500.667 152.333 520 97 544 c 0
 55.6667 561.333 35 585.333 35 616 c 0
 35 651.854 77.2088 681 112 681 c 1
 136 678 l 1
 212.617 661.207 243.843 657.245 284 619 c 0
 290.667 613 302.667 583.333 320 530 c 1
 341.637 456.637 363.966 383.966 384 309 c 1
 420.667 329 464 373 514 441 c 1
 630 608 l 1
 672 663.333 707.333 691 736 691 c 0
 760.667 691 773 658.667 773 594 c 0
 773 553.333 775 513 779 473 c 1
 789 397 l 1
 802 284 l 2
 807.333 241.333 810 205.667 810 177 c 1
 816 90 l 1
 816 35.5795 803.894 -6 755 -6 c 1
 699.263 -1.7125 675 28.8343 675 82 c 2
 674 138 l 1
 668 210 l 2
 660 300 645.667 361.667 625 395 c 1
 609 385 577 348 529 284 c 0
 468.333 202 426.333 147.667 403 121 c 0
 355 65.6667 319.333 38 296 38 c 0
EndSplineSet
EndChar

StartChar: Iacute
Encoding: 205 205 127
Width: 1138
Flags: HW
LayerCount: 2
Fore
SplineSet
336 94 m 2
 336 34.0099 328.835 -4 276 -4 c 0
 254 -4 236.333 3.66667 223 19 c 1
 213 47 l 1
 211 104 l 1
 212 193 l 1
 214 252 l 2
 214 271.333 214 290.667 214 310 c 1
 212 321 l 1
 212 333 211.333 341.333 210 346 c 2
 206 369 l 2
 205.333 376.333 170.333 411 101 473 c 0
 70.3333 499.667 55 525.333 55 550 c 1
 65 577 l 1
 81 616.333 98.3333 639 117 645 c 1
 128 646 l 1
 154.667 646 189.333 616.667 232 558 c 1
 317 433 l 1
 485 660 l 2
 527.667 717.333 571.5 771.667 616.5 823 c 128
 661.5 874.333 699.333 907.333 730 922 c 0
 769.333 940 802.667 949 830 949 c 0
 871.6 949 903 923.645 903 879 c 0
 903 841.048 859.973 794 825 794 c 1
 779 809 l 1
 744 816 l 1
 734 816 726 815 720 813 c 0
 687.333 803 657.333 779.333 630 742 c 0
 606 710 594 685.667 594 669 c 1
 657 528 l 2
 675.667 486 688 449.333 694 418 c 1
 741.333 496 790.167 558 840.5 604 c 128
 890.833 650 935.333 673 974 673 c 0
 1041.35 673 1091 482.291 1091 406 c 2
 1088 19 l 2
 1088 13.6667 1082.33 9.66667 1071 7 c 1
 1032 3 l 1
 1022 3 1012 3 1002 3 c 1
 991.773 4.46095 967.392 5.60819 964 9 c 0
 956 14.3333 952 57.6667 952 139 c 2
 953 247 l 1
 954 368 l 1
 957 413 l 1
 961 452 l 1
 961 473.119 954.852 495 934 495 c 0
 910 495 884.667 481.333 858 454 c 1
 823 410 l 1
 781 378 753 332 739 272 c 1
 730.333 230 726 180.333 726 123 c 0
 726 111.333 726 99.6667 726 88 c 0
 726 56.6667 724.333 36.3333 721 27 c 1
 715.268 -9.30553 679.012 -17 636 -17 c 0
 607.022 -17 590.637 -12.9116 583 10 c 1
 579.667 28 578 75 578 151 c 2
 578 248 l 2
 578 274.667 576.667 291.667 574 299 c 1
 574 335 l 1
 576 383 l 1
 576 443.519 572.364 503 530 503 c 0
 506 503 468.667 477.333 418 426 c 128
 367.333 374.667 339 332.333 333 299 c 1
 335 220 l 1
 336 152 l 1
 336 94 l 2
EndSplineSet
EndChar

StartChar: Icircumflex
Encoding: 206 206 128
Width: 27
Flags: HW
LayerCount: 2
Fore
SplineSet
-238 1146 m 0
 -152.932 1146 -13 1101.34 -13 1017 c 0
 -13 995.667 -22.3333 978.667 -41 966 c 0
 -52.3333 959.333 -64.3333 955 -77 953 c 1
 -140 986 l 1
 -191.333 1008.67 -231 1020 -259 1020 c 0
 -338.614 1020 -496 956.668 -496 883 c 0
 -496 874.333 -474.333 842.333 -431 787 c 0
 -410.333 760.333 -400 734.667 -400 710 c 0
 -400 686.388 -423.424 682 -449 682 c 0
 -475 682 -505.667 707 -541 757 c 1
 -567 796.333 -580 842 -580 894 c 0
 -580 948 -549.333 1001.67 -488 1055 c 0
 -417.333 1115.67 -334 1146 -238 1146 c 0
EndSplineSet
EndChar

StartChar: Eth
Encoding: 208 208 129
Width: 372
Flags: HW
LayerCount: 2
Fore
SplineSet
303 795 m 1
 300 730 l 1
 295 678 l 2
 291 640 279 609 259 585 c 2
 174 489 l 1
 160 467 l 1
 148.667 452.333 137 445 125 445 c 0
 116.333 445 108.667 451.667 102 465 c 1
 96 486 l 1
 94 499 l 1
 94 533 118.833 576.333 168.5 629 c 128
 218.167 681.667 243 736.334 243 793 c 1
 240 835 l 1
 304 835 l 1
 303 795 l 1
164 -136 m 1
 156.722 -132.945 148.243 -131.09 138 -131 c 1
 138 -99 l 1
 227 48 l 1
 227 74 210.333 99.3333 177 124 c 2
 75 198 l 1
 96 248 l 1
 112 279.333 124.667 296 134 298 c 1
 164 298 197 276.667 233 234 c 0
 272.333 187.333 292 138.333 292 87 c 0
 292 34.3333 275 -18 241 -70 c 1
 211 -114 185.333 -136 164 -136 c 1
EndSplineSet
EndChar

StartChar: Ograve
Encoding: 210 210 130
Width: 588
Flags: HW
LayerCount: 2
Fore
SplineSet
485 -230 m 0
 507.552 -230 525 -241.808 525 -261 c 1
 524 -274 l 1
 515.032 -295.497 490.048 -308.195 460 -320 c 1
 437.361 -327.546 446.206 -335.632 420 -340 c 1
 389 -343 l 1
 376 -343 l 2
 331.109 -343 319.019 -339.509 286 -323 c 1
 259.591 -313.568 232.975 -294.797 210 -276 c 1
 154 -242 126 -183.333 126 -100 c 2
 126 534 l 2
 126 609.121 34.7507 669 -44 669 c 0
 -57.1336 669 -139.535 716 -154 716 c 1
 -160 751 l 1
 -123.333 764.333 -84.6667 771 -44 771 c 0
 101.959 771 240 689.434 240 534 c 2
 240 -90 l 2
 240 -133.967 261.001 -178.039 290 -197 c 1
 296 -203 305.667 -208 319 -212 c 2
 364 -223 l 1
 400 -229 l 1
 425 -230 l 2
 445 -230 465 -230 485 -230 c 0
EndSplineSet
EndChar

StartChar: Ocircumflex
Encoding: 212 212 131
Width: 20
Flags: HW
LayerCount: 2
Fore
SplineSet
-110 1090 m 2
 -110 1076.67 -110 1063.33 -110 1050 c 1
 -112 1032 l 1
 -112 1005.09 -112.158 1003.22 -120 981 c 2
 -135 933 l 1
 -155.349 888.808 -174.88 859.684 -211 829 c 0
 -231 813 -255 805 -283 805 c 0
 -342.12 805 -375.313 849.454 -405 892 c 1
 -434.398 936.098 -460 999.13 -460 1070 c 0
 -460 1144.88 -434.502 1236.07 -404 1283 c 1
 -380.086 1327.58 -336.928 1364 -276 1364 c 0
 -217.585 1364 -185.706 1326.07 -158 1284 c 0
 -142 1259.33 -129.333 1231 -120 1199 c 1
 -113 1150 l 1
 -110 1090 l 2
-377 1087 m 0
 -377 1012.9 -354.317 906 -283 906 c 0
 -271.667 906 -260 910 -248 918 c 0
 -238.667 925.333 -227.333 937.333 -214 954 c 1
 -192.667 989.333 -182 1032 -182 1082 c 0
 -182 1133.33 -191.333 1179 -210 1219 c 1
 -225 1239 l 1
 -242 1255 l 1
 -264 1265 l 1
 -276 1266 l 1
 -291.254 1266 -297.19 1261.2 -308 1257 c 1
 -327 1241 l 1
 -344 1220 l 1
 -362.972 1184.59 -377 1139.97 -377 1087 c 0
EndSplineSet
EndChar

StartChar: Otilde
Encoding: 213 213 132
Width: 20
Flags: HW
LayerCount: 2
Fore
SplineSet
-110 1090 m 2
 -110 1076.67 -110 1063.33 -110 1050 c 1
 -112 1032 l 1
 -112 1005.09 -112.158 1003.22 -120 981 c 2
 -135 933 l 1
 -155.349 888.808 -174.88 859.684 -211 829 c 0
 -231 813 -255 805 -283 805 c 0
 -342.12 805 -375.313 849.454 -405 892 c 1
 -434.398 936.098 -460 999.13 -460 1070 c 0
 -460 1144.88 -434.502 1236.07 -404 1283 c 1
 -380.086 1327.58 -336.928 1364 -276 1364 c 0
 -217.585 1364 -185.706 1326.07 -158 1284 c 0
 -142 1259.33 -129.333 1231 -120 1199 c 1
 -113 1150 l 1
 -110 1090 l 2
-178 1106 m 1
 -178 1122 -181 1140 -187 1160 c 1
 -197 1188 l 1
 -210 1219 l 1
 -225 1239 l 1
 -242 1255 l 1
 -264 1265 l 1
 -276 1266 l 1
 -291.254 1266 -297.19 1261.2 -308 1257 c 1
 -327 1241 l 1
 -344 1220 l 1
 -353.244 1201.48 -362.64 1182.08 -369 1163 c 1
 -378 1129 l 1
 -382 1110 l 1
 -314.02 1108.65 -246.02 1107.31 -178 1106 c 1
-380 1044 m 1
 -377 1015 l 2
 -375 1005 -371.333 995.333 -366 986 c 2
 -349 952 l 1
 -332.333 921.333 -310.333 906 -283 906 c 0
 -271.667 906 -260 910 -248 918 c 0
 -238.667 925.333 -227.333 937.333 -214 954 c 1
 -191 998 l 2
 -186.024 1007.98 -182.758 1029.29 -180 1044 c 1
 -380 1044 l 1
EndSplineSet
EndChar

StartChar: Odieresis
Encoding: 214 214 133
Width: 319
Flags: HW
LayerCount: 2
Fore
SplineSet
-95 954 m 0
 -95 1043.48 26.0822 1077 125 1077 c 0
 148.819 1077 235.509 1047.12 243 1030 c 1
 268 989 l 1
 282 957 l 1
 285 930 l 1
 282 895 l 1
 277 866 l 2
 269 823.333 221.333 765.333 134 692 c 0
 49.3333 620.667 -8 585 -38 585 c 0
 -54.2683 585 -81 602.776 -81 619 c 0
 -81 623 -60 643.667 -18 681 c 1
 32.6667 723.667 72.3333 761 101 793 c 0
 143.667 841.667 165 884.334 165 921 c 0
 165 953.239 114.951 997 81 997 c 0
 55.7117 997 53 970.689 53 943 c 2
 53 915 l 2
 53 848.817 39.6993 818 -22 818 c 0
 -82.5586 818 -95 880.302 -95 954 c 0
149 -66 m 1
 195.858 -101.143 215.893 -147.069 220 -221 c 1
 220 -238 l 1
 215 -267 l 2
 213.667 -277.666 205 -295.333 189 -320 c 1
 170 -342 l 1
 146 -364 l 2
 131.333 -376.667 109 -386 79 -392 c 1
 57 -394 l 1
 18.3333 -394 -15.6667 -380.333 -45 -353 c 1
 -53.6862 -347.788 -59.2039 -342.061 -66 -333 c 1
 -74.6667 -323.668 -82.6667 -312.335 -90 -299 c 1
 -104 -266 l 1
 -110 -232 l 1
 -110.698 -221.031 -111.362 -210.029 -112 -199 c 0
 -112 -151.603 -103.421 -134.987 -84 -101 c 1
 -72 -82.3333 -56 -65.6667 -36 -51 c 1
 -21.3333 -41.6667 -3.66667 -35 17 -31 c 1
 51 -28 l 1
 72 -28 l 2
 103.15 -28 126.048 -45.8024 149 -66 c 1
138 -213 m 1
 134.533 -160.401 106.875 -116.722 51 -110 c 1
 34 -111 l 2
 30.6667 -111 22.3333 -114 9 -120 c 1
 -0.0134408 -120 -8.5022 -137.003 -13 -143 c 0
 -25 -159 -31 -178.667 -31 -202 c 1
 -27.9541 -259.872 1.5291 -309 66 -309 c 1
 110.347 -302.843 138 -260.938 138 -213 c 1
EndSplineSet
EndChar

StartChar: multiply
Encoding: 215 215 134
Width: 584
Flags: HW
LayerCount: 2
Fore
SplineSet
479 219 m 1
 501.132 212.011 511 206.721 511 176 c 0
 511 149.333 492.333 117.333 455 80 c 1
 411 34 363.667 11 313 11 c 2
 302 11 l 1
 250.596 19.5674 217.886 39.0285 189 93 c 1
 170.333 131 156 182.667 146 248 c 1
 138 346 l 1
 135 460 l 1
 136 559 l 1
 137 644 l 2
 137 666.667 134.667 681.667 130 689 c 1
 108 713 l 1
 73 701 l 1
 53 697 l 1
 35 696 l 1
 12 697 l 2
 3.33333 698.333 -6 702 -16 708 c 0
 -74.6409 737.327 -101.634 773.946 -127 844 c 0
 -131 856 -133 870.333 -133 887 c 0
 -133 945 -116 1004.67 -82 1066 c 1
 -42.6667 1134 3.66667 1168 57 1168 c 0
 128.333 1168 178 1137.67 206 1077 c 1
 212 1061 217.667 1030.67 223 986 c 1
 225 844 l 1
 229 621 l 1
 230 360 l 2
 230 267.947 253.6 122 325 122 c 0
 336.334 122 355.667 129 383 143 c 1
 415.667 161.667 447.667 187 479 219 c 1
27 794 m 0
 113.292 794 147 859.408 147 952 c 0
 147 1006.32 109.566 1062 58 1062 c 0
 -0.834263 1062 -45 968.628 -45 915 c 0
 -45 896.333 -39.6667 874 -29 848 c 0
 -15 812 3.66667 794 27 794 c 0
EndSplineSet
EndChar

StartChar: Oslash
Encoding: 216 216 135
Width: 32
Flags: HW
LayerCount: 2
Fore
SplineSet
181 -280 m 0
 197.168 -280 194.891 -292.687 196 -306 c 1
 196 -318.667 171 -339 121 -367 c 0
 93 -381.667 73.3333 -390.667 62 -394 c 2
 29 -404 l 1
 6 -410 l 1
 -12 -414 l 1
 -24 -413 l 1
 -33 -412 l 1
 -56 -405 l 1
 -76 -401 -89 -396.333 -95 -391 c 1
 -103 -387 -114.333 -378.667 -129 -366 c 1
 -149 -346 -165 -320.667 -177 -290 c 1
 -185 -257 l 1
 -188 -215 l 1
 -188 -189.667 -185.667 -164 -181 -138 c 2
 -174 -103 l 1
 -174 -73 -158.333 -58 -127 -58 c 0
 -97 -58 -82 -72.6667 -82 -102 c 2
 -82 -122 l 1
 -83 -150 l 1
 -82 -187 l 2
 -82 -202.333 -80.6667 -214.333 -78 -223 c 2
 -71 -258 l 2
 -69 -270 -66 -278 -62 -282 c 2
 -48 -297 l 1
 -38 -305 l 1
 -15 -310 l 1
 15 -313 l 1
 34 -311 l 1
 81 -297 l 1
 108.387 -290.914 143.072 -280 173 -280 c 128
 179 -280 179 -280 181 -280 c 0
EndSplineSet
EndChar

StartChar: Ugrave
Encoding: 217 217 136
Width: 61
Flags: HW
LayerCount: 2
Fore
SplineSet
-193 -467 m 0
 -193 -441.72 -176.574 -432.878 -156 -427 c 1
 -152 -427 -148.333 -428.333 -145 -431 c 2
 -123 -450 l 1
 -101 -465 l 2
 -85 -476.333 -71.6667 -483.333 -61 -486 c 2
 -32 -493 l 1
 -2 -496 l 1
 20 -495 l 1
 45 -495 l 2
 76.254 -495 89.6284 -488.237 115 -475 c 1
 150 -455 l 1
 178.145 -433.415 221.219 -398.961 252 -386 c 1
 262.884 -383.032 290 -385.253 290 -395 c 1
 286 -423 280.667 -441.333 274 -450 c 1
 244 -480 l 1
 210.666 -516 186.333 -537.667 171 -545 c 1
 48 -590 l 1
 29 -593 l 1
 19 -593 -4 -587 -40 -575 c 0
 -86 -559 -126 -537 -160 -509 c 1
 -180 -490 l 1
 -188 -484 -192.333 -476.333 -193 -467 c 0
181 -280 m 0
 197.168 -280 194.891 -292.687 196 -306 c 1
 196 -318.667 171 -339 121 -367 c 0
 93 -381.667 73.3333 -390.667 62 -394 c 2
 29 -404 l 1
 6 -410 l 1
 -12 -414 l 1
 -24 -413 l 1
 -33 -412 l 1
 -56 -405 l 1
 -76 -401 -89 -396.333 -95 -391 c 1
 -103 -387 -114.333 -378.667 -129 -366 c 1
 -149 -346 -165 -320.667 -177 -290 c 1
 -185 -257 l 1
 -188 -215 l 1
 -188 -189.667 -185.667 -164 -181 -138 c 2
 -174 -103 l 1
 -174 -73 -158.333 -58 -127 -58 c 0
 -97 -58 -82 -72.6667 -82 -102 c 2
 -82 -122 l 1
 -83 -150 l 1
 -82 -187 l 2
 -82 -202.333 -80.6667 -214.333 -78 -223 c 2
 -71 -258 l 2
 -69 -270 -66 -278 -62 -282 c 2
 -48 -297 l 1
 -38 -305 l 1
 -15 -310 l 1
 15 -313 l 1
 34 -311 l 1
 81 -297 l 1
 108.387 -290.914 143.072 -280 173 -280 c 128
 179 -280 179 -280 181 -280 c 0
EndSplineSet
EndChar

StartChar: agrave
Encoding: 224 224 137
Width: 857
Flags: HW
LayerCount: 2
Fore
SplineSet
919 1225 m 0
 957.299 1225 968 1195.08 968 1158 c 0
 968 1128 948.333 1057 909 945 c 0
 851.675 785.659 794.939 625.728 736 468 c 0
 695.565 358.612 636.576 200.161 608 93 c 0
 593.105 38.384 586.525 -2 532 -2 c 0
 494.866 -2 462 36.0979 462 74 c 256
 462 94 467 118 477 146 c 1
 511 231 l 1
 511 250 l 1
 512 274 l 1
 512 307 l 1
 508 343 l 1
 505 378 l 1
 496 414 l 1
 486 440 476 460 466 474 c 0
 440 514 409 534 373 534 c 0
 359 534 337 526.333 307 511 c 0
 270.333 492.333 252 476 252 462 c 1
 290 395 l 2
 301.333 374.333 307 354.333 307 335 c 1
 304 310 l 1
 298 282.667 284 260.333 262 243 c 1
 240.666 227.667 217.333 220 192 220 c 0
 133.507 220 51 283.79 51 339 c 2
 51 354 l 2
 51 412.95 74.6178 456.496 106 498 c 128
 126.667 525.333 170 560 236 602 c 0
 268 621.333 295.833 636.333 319.5 647 c 128
 343.167 657.667 362 663 376 663 c 0
 430 663 474.667 643 510 603 c 1
 598 472 l 1
 601.333 472 613 494.333 633 539 c 1
 671.46 641.206 707.754 745.579 742 852 c 2
 778 961 l 1
 791.287 997.916 808.164 1038.92 825 1075 c 1
 868.333 1175 899.667 1225 919 1225 c 0
EndSplineSet
EndChar

StartChar: aacute
Encoding: 225 225 138
Width: 27
Flags: HW
LayerCount: 2
Fore
SplineSet
-238 1146 m 0
 -152.932 1146 -13 1101.34 -13 1017 c 0
 -13 995.667 -22.3333 978.667 -41 966 c 0
 -52.3333 959.333 -64.3333 955 -77 953 c 1
 -140 986 l 1
 -191.333 1008.67 -231 1020 -259 1020 c 0
 -338.614 1020 -496 956.668 -496 883 c 0
 -496 874.333 -474.333 842.333 -431 787 c 0
 -410.333 760.333 -400 734.667 -400 710 c 0
 -400 686.388 -423.424 682 -449 682 c 0
 -475 682 -505.667 707 -541 757 c 1
 -567 796.333 -580 842 -580 894 c 0
 -580 948 -549.333 1001.67 -488 1055 c 0
 -417.333 1115.67 -334 1146 -238 1146 c 0
EndSplineSet
EndChar

StartChar: acircumflex
Encoding: 226 226 139
Width: 153
Flags: HW
LayerCount: 2
Fore
SplineSet
129 -66 m 1
 175.858 -101.143 195.893 -147.069 200 -221 c 1
 200 -238 l 1
 195 -267 l 2
 193.667 -277.666 185 -295.333 169 -320 c 1
 150 -342 l 1
 126 -364 l 2
 111.333 -376.667 89 -386 59 -392 c 1
 37 -394 l 1
 -1.66667 -394 -35.6667 -380.333 -65 -353 c 1
 -73.6863 -347.788 -79.2039 -342.061 -86 -333 c 1
 -94.6667 -323.668 -102.667 -312.335 -110 -299 c 1
 -124 -266 l 1
 -130 -232 l 1
 -130.698 -221.031 -131.362 -210.029 -132 -199 c 0
 -132 -151.603 -123.421 -134.987 -104 -101 c 1
 -92 -82.3333 -76 -65.6667 -56 -51 c 1
 -41.3333 -41.6667 -23.6667 -35 -3 -31 c 1
 31 -28 l 1
 52 -28 l 2
 83.1504 -28 106.048 -45.8023 129 -66 c 1
118 -213 m 1
 114.533 -160.401 86.8751 -116.722 31 -110 c 1
 14 -111 l 2
 10.6667 -111 2.33333 -114 -11 -120 c 1
 -20.0134 -120 -28.5022 -137.003 -33 -143 c 0
 -45 -159 -51 -178.667 -51 -202 c 1
 -47.9541 -259.872 -18.4709 -309 46 -309 c 1
 90.3473 -302.843 118 -260.938 118 -213 c 1
EndSplineSet
EndChar

StartChar: atilde
Encoding: 227 227 140
Width: 609
Flags: HW
LayerCount: 2
Fore
SplineSet
-30 553 m 0
 -57.4011 553 -79 584.246 -79 612 c 0
 -79 624 -55.1667 644 -7.5 672 c 128
 40.1667 700 64 734.333 64 775 c 1
 61 801 l 1
 55 863 l 1
 53 986 l 2
 53 1003.33 56 1020.67 62 1038 c 1
 83 1075 l 1
 103.551 1177.76 207.941 1207 345 1207 c 1
 394 1206 l 1
 434 1205 l 1
 488.308 1205 575 1158.46 575 1109 c 1
 558 1083 l 1
 546.663 1067.67 535.329 1059 524 1057 c 1
 515 1061 l 1
 495.981 1080.02 319.472 1100 279 1100 c 0
 257 1100 234 1088.33 210 1065 c 0
 186 1043 169 1016.67 159 986 c 1
 147 932 l 1
 143 887 l 1
 144 857 l 1
 147.438 822.625 165 786.129 165 750 c 2
 165 739 l 1
 156.434 687.605 138.007 651.22 89 609 c 128
 45.6667 571.667 6 553 -30 553 c 0
EndSplineSet
EndChar

StartChar: adieresis
Encoding: 228 228 141
Width: 319
Flags: HW
LayerCount: 2
Fore
SplineSet
-95 954 m 0
 -95 1043.48 26.0822 1077 125 1077 c 0
 148.819 1077 235.509 1047.12 243 1030 c 1
 268 989 l 1
 282 957 l 1
 285 930 l 1
 282 895 l 1
 277 866 l 2
 269 823.333 221.333 765.333 134 692 c 0
 49.3333 620.667 -8 585 -38 585 c 0
 -54.2683 585 -81 602.776 -81 619 c 0
 -81 623 -60 643.667 -18 681 c 1
 32.6667 723.667 72.3333 761 101 793 c 0
 143.667 841.667 165 884.334 165 921 c 0
 165 953.239 114.951 997 81 997 c 0
 55.7117 997 53 970.689 53 943 c 2
 53 915 l 2
 53 848.817 39.6993 818 -22 818 c 0
 -82.5586 818 -95 880.302 -95 954 c 0
EndSplineSet
EndChar

StartChar: ntilde
Encoding: 241 241 142
Width: 1151
Flags: HW
LayerCount: 2
Fore
SplineSet
443 514 m 0
 396.988 514 352 561.833 352 609 c 0
 352 651.667 384.667 673 450 673 c 0
 510.667 673 571.667 690 633 724 c 0
 656.333 736.667 691.667 767.667 739 817 c 1
 894 988 l 1
 932 988 l 1
 935 963 l 1
 941 936 l 1
 927.428 897.998 853.811 789.697 831 761 c 0
 787.387 707.574 696.14 623.883 628 575 c 1
 607.333 563.667 573 549.667 525 533 c 1
 483.667 520.333 456.333 514 443 514 c 0
1043 380 m 0
 1043 357.146 998 123.652 998 103 c 0
 998 72.3333 1018 44.6667 1058 20 c 128
 1098 -4.66667 1118 -32 1118 -62 c 0
 1118 -81.6725 1087.19 -151.601 1069 -153 c 1
 1025 -153 982.333 -138 941 -108 c 1
 897.667 -74 876 -31 876 21 c 1
 907 354 l 1
 907 384 890 408 856 426 c 0
 847.333 430 787 447 675 477 c 1
 672 485 l 1
 666 496 l 1
 666 514 684.667 534.333 722 557 c 0
 751.333 574.333 784.667 583 822 583 c 0
 933.151 583 1043 491.863 1043 380 c 0
521 351 m 256
 521 381.405 541.923 404 574 404 c 0
 581.333 404 609 396 657 380 c 128
 705 364 733 352.667 741 346 c 1
 773.369 327.503 793 285.784 793 239 c 0
 793 202.333 771.667 144.5 729 65.5 c 128
 686.333 -13.5 655 -53 635 -53 c 1
 613.906 -49.2775 585 -25.6008 585 -1 c 1
 614.615 44.9545 659 126.816 659 194 c 0
 659 206 648 221.667 626 241 c 1
 533 312 l 1
 525 324 521 337 521 351 c 256
202 378 m 1
 222.295 403.127 320.456 449 364 449 c 0
 379.334 449 401.667 427.333 431 384 c 0
 463 336.667 479 295 479 259 c 0
 479 111.137 373.306 28.8164 245 -9 c 1
 202.333 -19.6667 175 -25 163 -25 c 0
 149 -25 135 -22 121 -16 c 1
 106.333 -8 96 3 90 17 c 1
 88 25 107.667 39.3333 149 60 c 1
 203 85.3333 243.667 108.333 271 129 c 0
 315.667 164.333 338 204.667 338 250 c 0
 338 275.333 313.667 302 265 330 c 1
 235 346 214 362 202 378 c 1
EndSplineSet
EndChar

StartChar: dotlessi
Encoding: 305 305 143
Width: 569
Flags: HW
LayerCount: 2
Fore
SplineSet
74 36 m 1
 198.298 36 214 78.0299 214 207 c 2
 214 560 l 2
 214 664.667 211.333 726.667 206 746 c 1
 199.371 787.984 183.939 810 142 810 c 0
 128 810 105.333 805 74 795 c 1
 60 831 l 1
 336 943 l 1
 379 943 l 1
 379 207 l 2
 379 79.4612 395.108 36 519 36 c 1
 519 0 l 1
 74 0 l 1
 74 36 l 1
EndSplineSet
EndChar

StartChar: ring
Encoding: 730 730 144
Width: 682
Flags: HW
LayerCount: 2
Fore
SplineSet
150 1233 m 0
 150 1338.01 235.676 1424 341 1424 c 256
 446.301 1424 533 1338 533 1233 c 0
 533 1127.17 446.83 1041 341 1041 c 0
 235.996 1041 150 1127.71 150 1233 c 0
463 1233 m 0
 463 1296.26 405.817 1355 341 1355 c 256
 273.521 1355 219 1300.48 219 1233 c 0
 219 1166.37 274.056 1111 341 1111 c 0
 403.716 1111 463 1169.05 463 1233 c 0
EndSplineSet
EndChar

StartChar: caron
Encoding: 711 711 145
Width: 682
Flags: HW
LayerCount: 2
Fore
SplineSet
434 1054 m 1
 250 1054 l 1
 60 1385 l 1
 91 1385 l 1
 364 1173 l 1
 593 1385 l 1
 623 1385 l 1
 434 1054 l 1
EndSplineSet
EndChar

StartChar: c274
Encoding: 274 274 146
Width: 682
Flags: HW
LayerCount: 2
Fore
SplineSet
495 703 m 0
 495 757.554 543.567 808 600 808 c 0
 656.523 808 705 760.154 705 703 c 0
 705 647.012 656.302 598 600 598 c 0
 544.012 598 495 646.701 495 703 c 0
EndSplineSet
EndChar
